<?xml version="1.0" encoding="UTF-8"?>
<!DOCTYPE svg PUBLIC "-//W3C//DTD SVG 1.1//EN" "http://www.w3.org/Graphics/SVG/1.1/DTD/svg11.dtd">
<svg xmlns="http://www.w3.org/2000/svg" version="1.1" width="215px" height="234px" style="shape-rendering:geometricPrecision; text-rendering:geometricPrecision; image-rendering:optimizeQuality; fill-rule:evenodd; clip-rule:evenodd" xmlns:xlink="http://www.w3.org/1999/xlink">
<g><path style="opacity:1" fill="#fdfefd" d="M -0.5,-0.5 C 71.1667,-0.5 142.833,-0.5 214.5,-0.5C 214.5,77.5 214.5,155.5 214.5,233.5C 142.833,233.5 71.1667,233.5 -0.5,233.5C -0.5,155.5 -0.5,77.5 -0.5,-0.5 Z"/></g>
<g><path style="opacity:1" fill="#fcd92d" d="M 106.5,53.5 C 106.167,53.5 105.833,53.5 105.5,53.5C 106.582,41.1692 101.249,33.0025 89.5,29C 80.6342,28.4348 72.6342,25.6014 65.5,20.5C 63.8636,15.2722 63.3636,9.93884 64,4.5C 66.3728,11.8758 71.2062,17.0425 78.5,20C 83.7724,21.8686 89.1057,23.5353 94.5,25C 105.979,31.2541 109.979,40.7541 106.5,53.5 Z"/></g>
<g><path style="opacity:1" fill="#fdd728" d="M 103.5,54.5 C 102.662,54.8417 102.328,55.5084 102.5,56.5C 102.649,57.552 102.483,58.552 102,59.5C 100.123,54.6267 96.6231,51.4601 91.5,50C 78.2356,49.3238 71.0689,42.4905 70,29.5C 78.8871,33.2116 88.0537,36.0449 97.5,38C 102.949,42.1687 104.949,47.6687 103.5,54.5 Z"/></g>
<g><path style="opacity:1" fill="#1390b3" d="M 24.5,39.5 C 35.8382,39.3335 47.1716,39.5001 58.5,40C 65.0519,46.0494 71.0519,52.5494 76.5,59.5C 64.6193,74.0922 52.6193,88.5922 40.5,103C 35.1771,103.499 29.8437,103.666 24.5,103.5C 24.5,82.1667 24.5,60.8333 24.5,39.5 Z"/></g>
<g><path style="opacity:1" fill="#f7fbfa" d="M 35.5,50.5 C 37.1667,50.5 38.8333,50.5 40.5,50.5C 40.5,52.5 40.5,54.5 40.5,56.5C 42.1667,56.5 43.8333,56.5 45.5,56.5C 45.5,58.1667 45.5,59.8333 45.5,61.5C 43.8333,61.5 42.1667,61.5 40.5,61.5C 40.5,63.5 40.5,65.5 40.5,67.5C 38.8333,67.5 37.1667,67.5 35.5,67.5C 35.5,65.5 35.5,63.5 35.5,61.5C 33.8333,61.5 32.1667,61.5 30.5,61.5C 30.5,59.8333 30.5,58.1667 30.5,56.5C 32.1667,56.5 33.8333,56.5 35.5,56.5C 35.5,54.5 35.5,52.5 35.5,50.5 Z"/></g>
<g><path style="opacity:1" fill="#faeb86" d="M 105.5,53.5 C 105.833,53.5 106.167,53.5 106.5,53.5C 106.049,56.3066 104.715,57.3066 102.5,56.5C 102.328,55.5084 102.662,54.8417 103.5,54.5C 103.435,54.9382 103.601,55.2716 104,55.5C 104.278,54.5842 104.778,53.9175 105.5,53.5 Z"/></g>
<g><path style="opacity:1" fill="#b5dbde" d="M 113.5,62.5 C 105.5,61.1667 97.5,61.1667 89.5,62.5C 88.9569,62.44 88.6236,62.1067 88.5,61.5C 97.1667,60.1667 105.833,60.1667 114.5,61.5C 114.376,62.1067 114.043,62.44 113.5,62.5 Z"/></g>
<g><path style="opacity:1" fill="#1190b2" d="M 113.5,62.5 C 112.087,65.6612 110.42,68.6612 108.5,71.5C 107.515,75.6344 107.182,79.9677 107.5,84.5C 103.833,84.5 100.167,84.5 96.5,84.5C 96.8182,79.9677 96.4849,75.6344 95.5,71.5C 93.5,68.5 91.5,65.5 89.5,62.5C 97.5,61.1667 105.5,61.1667 113.5,62.5 Z"/></g>
<g><path style="opacity:1" fill="#82b3c6" d="M 77.5,90.5 C 77.8261,81.9832 77.4927,73.6499 76.5,65.5C 76.7828,64.7109 77.2828,64.0442 78,63.5C 78.824,72.6762 78.6573,81.6762 77.5,90.5 Z"/></g>
<g><path style="opacity:1" fill="#7bbbcd" d="M 95.5,71.5 C 96.4849,75.6344 96.8182,79.9677 96.5,84.5C 100.167,84.5 103.833,84.5 107.5,84.5C 107.182,79.9677 107.515,75.6344 108.5,71.5C 108.5,76.1667 108.5,80.8333 108.5,85.5C 104.167,85.5 99.8333,85.5 95.5,85.5C 95.5,80.8333 95.5,76.1667 95.5,71.5 Z"/></g>
<g><path style="opacity:1" fill="#1690b3" d="M 76.5,65.5 C 77.4927,73.6499 77.8261,81.9832 77.5,90.5C 76.325,90.281 75.325,90.6143 74.5,91.5C 73.5462,95.491 72.2128,99.3243 70.5,103C 66.789,103.175 63.1224,103.675 59.5,104.5C 54.1667,110.833 48.8333,117.167 43.5,123.5C 42.3364,117.528 42.1697,111.528 43,105.5C 53.947,91.9108 65.1137,78.5775 76.5,65.5 Z"/></g>
<g><path style="opacity:1" fill="#fbfdfb" d="M 69.5,78.5 C 70.6009,77.4017 71.9343,77.235 73.5,78C 72.3181,79.7683 70.9848,79.9349 69.5,78.5 Z"/></g>
<g><path style="opacity:1" fill="#1590b3" d="M 92.5,84.5 C 93.404,85.209 93.7373,86.209 93.5,87.5C 98.5,87.5 103.5,87.5 108.5,87.5C 108.5,92.5 108.5,97.5 108.5,102.5C 104.154,102.334 99.8206,102.501 95.5,103C 89.8333,110 84.1667,117 78.5,124C 72.5,124.667 66.5,124.667 60.5,124C 71.7585,111.249 82.4252,98.0821 92.5,84.5 Z"/></g>
<g><path style="opacity:1" fill="#2b95b6" d="M 95.5,104.5 C 99.8333,104.5 104.167,104.5 108.5,104.5C 108.828,109.875 108.495,115.208 107.5,120.5C 105.796,122.041 103.963,123.375 102,124.5C 100.01,123.182 98.0104,121.848 96,120.5C 95.5006,115.177 95.334,109.844 95.5,104.5 Z"/></g>
<g><path style="opacity:1" fill="#2b96b6" d="M 138.5,113.5 C 142.167,113.5 145.833,113.5 149.5,113.5C 149.5,132.5 149.5,151.5 149.5,170.5C 145.833,170.5 142.167,170.5 138.5,170.5C 138.5,151.5 138.5,132.5 138.5,113.5 Z"/></g>
<g><path style="opacity:1" fill="#1891b3" d="M 22.5,113.5 C 26.7675,113.203 30.9341,113.536 35,114.5C 41.3081,133.092 47.8081,151.592 54.5,170C 50.4589,170.827 46.4589,170.66 42.5,169.5C 40.7223,165.787 39.3889,161.954 38.5,158C 31.8085,157.169 25.1418,157.336 18.5,158.5C 17.1667,162.167 15.8333,165.833 14.5,169.5C 10.8333,170.833 7.16667,170.833 3.5,169.5C 10.146,150.905 16.4793,132.239 22.5,113.5 Z"/></g>
<g><path style="opacity:1" fill="#2996b6" d="M 155.5,113.5 C 159.167,113.5 162.833,113.5 166.5,113.5C 166.5,132.5 166.5,151.5 166.5,170.5C 162.833,170.5 159.167,170.5 155.5,170.5C 155.5,151.5 155.5,132.5 155.5,113.5 Z"/></g>
<g><path style="opacity:1" fill="#1991b3" d="M 109.5,128.5 C 125.703,126.075 134.37,132.908 135.5,149C 134.932,165.238 126.598,172.571 110.5,171C 100.715,167.284 96.0486,160.117 96.5,149.5C 96.5692,139.666 100.903,132.666 109.5,128.5 Z"/></g>
<g><path style="opacity:1" fill="#1c92b3" d="M 182.5,128.5 C 200.928,127.428 209.428,136.095 208,154.5C 203.396,169.885 193.562,174.719 178.5,169C 174.544,166.038 171.711,162.204 170,157.5C 166.754,144.346 170.921,134.679 182.5,128.5 Z"/></g>
<g><path style="opacity:1" fill="#1d92b4" d="M 67.5,166.5 C 67.44,165.957 67.1067,165.624 66.5,165.5C 65.501,177.482 65.1677,189.482 65.5,201.5C 62.1667,201.5 58.8333,201.5 55.5,201.5C 55.5,177.5 55.5,153.5 55.5,129.5C 58.8333,129.5 62.1667,129.5 65.5,129.5C 65.3398,131.199 65.5065,132.866 66,134.5C 67.1667,132 69,130.167 71.5,129C 80.9764,126.657 87.8097,129.823 92,138.5C 96.6148,149.894 94.7815,160.061 86.5,169C 79.3483,173.049 73.015,172.215 67.5,166.5 Z"/></g>
<g><path style="opacity:1" fill="#f3f9f8" d="M 27.5,128.5 C 28.7498,128.577 29.5831,129.244 30,130.5C 31.6797,136.22 33.5131,141.887 35.5,147.5C 30.8687,148.662 26.202,148.828 21.5,148C 23.8892,141.607 25.8892,135.107 27.5,128.5 Z"/></g>
<g><path style="opacity:1" fill="#f9fbfc" d="M 71.5,136.5 C 77.3084,135.652 81.1417,137.985 83,143.5C 83.8392,148.921 83.5059,154.254 82,159.5C 74.4011,165.717 69.0678,164.051 66,154.5C 64.1398,147.264 65.9732,141.264 71.5,136.5 Z"/></g>
<g><path style="opacity:1" fill="#f7fbfb" d="M 112.5,136.5 C 118.887,135.723 123.053,138.39 125,144.5C 126.589,151.2 125.089,157.034 120.5,162C 112.772,164.64 108.272,161.807 107,153.5C 105.414,146.683 107.247,141.017 112.5,136.5 Z"/></g>
<g><path style="opacity:1" fill="#f9fcfc" d="M 185.5,136.5 C 190.814,135.74 194.647,137.74 197,142.5C 197.789,148.237 197.456,153.903 196,159.5C 188.922,165.564 183.589,164.231 180,155.5C 179.333,151.5 179.333,147.5 180,143.5C 180.967,140.379 182.8,138.046 185.5,136.5 Z"/></g>
<g><path style="opacity:1" fill="#83bccc" d="M 67.5,166.5 C 66.8333,178.167 66.1667,189.833 65.5,201.5C 65.1677,189.482 65.501,177.482 66.5,165.5C 67.1067,165.624 67.44,165.957 67.5,166.5 Z"/></g>
<g><path style="opacity:1" fill="#a8d2d7" d="M 179.5,183.5 C 179.5,188.833 179.5,194.167 179.5,199.5C 182.5,199.5 185.5,199.5 188.5,199.5C 185.375,200.479 182.042,200.813 178.5,200.5C 178.178,194.642 178.511,188.975 179.5,183.5 Z"/></g>
<g><path style="opacity:1" fill="#3d93b9" d="M 179.5,183.5 C 181.442,188.056 182.108,193.056 181.5,198.5C 184.059,198.198 186.393,198.532 188.5,199.5C 185.5,199.5 182.5,199.5 179.5,199.5C 179.5,194.167 179.5,188.833 179.5,183.5 Z"/></g>
<g><path style="opacity:1" fill="#3b99b5" d="M 194.5,183.5 C 197.685,183.02 200.519,183.686 203,185.5C 203.749,186.635 203.583,187.635 202.5,188.5C 200.912,185.743 198.579,184.91 195.5,186C 194.167,187.333 194.167,188.667 195.5,190C 201.945,189.598 204.445,192.431 203,198.5C 199.595,201.077 196.262,201.077 193,198.5C 192.304,193.437 193.138,193.27 195.5,198C 199.917,199.568 201.917,198.068 201.5,193.5C 198.421,193.196 195.587,192.196 193,190.5C 192.167,187.829 192.667,185.496 194.5,183.5 Z"/></g>
<g><path style="opacity:1" fill="#3496b4" d="M 95.5,183.5 C 104.751,182.3 108.251,186.3 106,195.5C 102.468,201.29 98.1348,201.957 93,197.5C 90.4983,192.172 91.3317,187.506 95.5,183.5 Z"/></g>
<g><path style="opacity:1" fill="#f8fbfb" d="M 96.5,185.5 C 103.182,184.825 105.682,187.825 104,194.5C 102.727,198.102 100.227,199.268 96.5,198C 92.5654,193.837 92.5654,189.67 96.5,185.5 Z"/></g>
<g><path style="opacity:1" fill="#1b8eb1" d="M 156.5,185.5 C 155.674,189.982 155.174,194.649 155,199.5C 154.826,194.649 154.326,189.982 153.5,185.5C 151.712,185.785 150.045,185.452 148.5,184.5C 152.833,183.167 157.167,183.167 161.5,184.5C 159.955,185.452 158.288,185.785 156.5,185.5 Z"/></g>
<g><path style="opacity:1" fill="#9dcad5" d="M 153.5,185.5 C 154.326,189.982 154.826,194.649 155,199.5C 155.174,194.649 155.674,189.982 156.5,185.5C 156.5,190.5 156.5,195.5 156.5,200.5C 155.5,200.5 154.5,200.5 153.5,200.5C 153.5,195.5 153.5,190.5 153.5,185.5 Z"/></g>
<g><path style="opacity:1" fill="#3a99b4" d="M 112.5,183.5 C 114.857,183.337 117.19,183.503 119.5,184C 121.421,185.241 121.754,186.741 120.5,188.5C 119.614,187.675 119.281,186.675 119.5,185.5C 117.473,185.338 115.473,185.505 113.5,186C 112.978,186.561 112.645,187.228 112.5,188C 114.979,190.057 117.812,191.557 121,192.5C 122.324,199.505 119.49,202.005 112.5,200C 110.579,198.759 110.246,197.259 111.5,195.5C 113.088,198.257 115.421,199.09 118.5,198C 119.747,196.506 119.747,195.006 118.5,193.5C 111.258,192.973 109.258,189.639 112.5,183.5 Z"/></g>
<g><path style="opacity:1" fill="#2892b3" d="M 127.5,183.5 C 130.187,183.336 132.854,183.503 135.5,184C 139.448,186.916 139.448,189.75 135.5,192.5C 133.167,192.5 130.833,192.5 128.5,192.5C 128.663,194.857 128.497,197.19 128,199.5C 127.501,194.177 127.334,188.844 127.5,183.5 Z"/></g>
<g><path style="opacity:1" fill="#edf5f5" d="M 128.5,185.5 C 130.857,185.337 133.19,185.503 135.5,186C 136.86,187.938 136.527,189.604 134.5,191C 132.527,191.495 130.527,191.662 128.5,191.5C 128.5,189.5 128.5,187.5 128.5,185.5 Z"/></g>
<g><path style="opacity:1" fill="#1690b0" d="M 75.5,183.5 C 77.3435,185.279 78.0102,187.612 77.5,190.5C 80.1667,190.5 82.8333,190.5 85.5,190.5C 85.1924,188.076 85.5258,185.743 86.5,183.5C 87.8333,189.167 87.8333,194.833 86.5,200.5C 85.52,197.914 85.1866,195.247 85.5,192.5C 82.8333,192.5 80.1667,192.5 77.5,192.5C 77.8134,195.247 77.48,197.914 76.5,200.5C 75.5046,194.872 75.1712,189.206 75.5,183.5 Z"/></g>
<g><path style="opacity:1" fill="#76b7c8" d="M 142.5,183.5 C 143.5,183.5 144.5,183.5 145.5,183.5C 145.5,189.167 145.5,194.833 145.5,200.5C 144.5,200.5 143.5,200.5 142.5,200.5C 142.5,194.833 142.5,189.167 142.5,183.5 Z"/></g>
<g><path style="opacity:1" fill="#9dcad4" d="M 127.5,183.5 C 127.334,188.844 127.501,194.177 128,199.5C 128.497,197.19 128.663,194.857 128.5,192.5C 130.833,192.5 133.167,192.5 135.5,192.5C 133.735,193.461 131.735,193.795 129.5,193.5C 129.5,195.833 129.5,198.167 129.5,200.5C 128.5,200.5 127.5,200.5 126.5,200.5C 126.178,194.642 126.511,188.975 127.5,183.5 Z"/></g>
<g><path style="opacity:1" fill="#3a98b5" d="M 167.5,183.5 C 168.5,183.5 169.5,183.5 170.5,183.5C 171.758,188.942 173.425,194.276 175.5,199.5C 174.833,200.833 174.167,200.833 173.5,199.5C 172.754,198.264 172.421,196.93 172.5,195.5C 170.143,195.337 167.81,195.503 165.5,196C 164.929,197.205 164.262,198.372 163.5,199.5C 163.167,199 162.833,198.5 162.5,198C 164.47,193.255 166.137,188.422 167.5,183.5 Z"/></g>
<g><path style="opacity:1" fill="#ecf5f4" d="M 168.5,186.5 C 169.924,188.515 170.59,190.848 170.5,193.5C 169.167,193.5 167.833,193.5 166.5,193.5C 166.878,191.079 167.545,188.746 168.5,186.5 Z"/></g>
<g><path style="opacity:1" fill="#b7bcbb" d="M 21.5,224.5 C 17.6054,221.285 17.6054,217.785 21.5,214C 24.352,213.087 26.5186,213.92 28,216.5C 30.0119,223.297 27.8453,225.964 21.5,224.5 Z"/></g>
<g><path style="opacity:1" fill="#bdc3c1" d="M 43.5,213.5 C 44.7773,214.694 45.4439,216.36 45.5,218.5C 46.161,224.008 43.8277,226.175 38.5,225C 37.3781,221.591 37.2114,218.091 38,214.5C 38.3333,217.5 38.6667,220.5 39,223.5C 40.3333,224.833 41.6667,224.833 43,223.5C 43.4983,220.183 43.665,216.85 43.5,213.5 Z"/></g>
<g><path style="opacity:1" fill="#bdc2c1" d="M 70.5,214.5 C 72.1765,215.183 72.8432,216.517 72.5,218.5C 74.1667,218.5 75.8333,218.5 77.5,218.5C 78.8305,220.261 78.8305,220.927 77.5,220.5C 75.8333,220.5 74.1667,220.5 72.5,220.5C 72.7852,222.288 72.4519,223.955 71.5,225.5C 70.5108,221.893 70.1774,218.226 70.5,214.5 Z"/></g>
<g><path style="opacity:1" fill="#ced3d1" d="M 100.5,216.5 C 99.834,219.358 99.1674,222.358 98.5,225.5C 97.5091,221.555 97.1758,217.555 97.5,213.5C 98.5,213.5 99.5,213.5 100.5,213.5C 100.5,214.5 100.5,215.5 100.5,216.5 Z"/></g>
<g><path style="opacity:1" fill="#9faaa7" d="M 143.5,214.5 C 144.479,217.625 144.813,220.958 144.5,224.5C 146.199,224.34 147.866,224.506 149.5,225C 147.527,225.495 145.527,225.662 143.5,225.5C 143.5,221.833 143.5,218.167 143.5,214.5 Z"/></g>
<g><path style="opacity:1" fill="#fbfcfc" d="M 21.5,224.5 C 20.4448,221.927 20.2782,219.261 21,216.5C 27.1909,215.17 28.8575,217.503 26,223.5C 24.6439,224.38 23.1439,224.714 21.5,224.5 Z"/></g>
<g><path style="opacity:1" fill="#b9bebd" d="M 3.5,215.5 C 7.96657,214.138 9.63324,214.138 8.5,215.5C 7.83333,228.833 7.16667,228.833 6.5,215.5C 5.5,215.5 4.5,215.5 3.5,215.5 Z"/></g>
<g><path style="opacity:1" fill="#afb7b5" d="M 100.5,216.5 C 102.223,218.253 103.723,220.253 105,222.5C 105.333,219.833 105.667,217.167 106,214.5C 107.294,228.104 105.46,228.771 100.5,216.5 Z"/></g>
<g><path style="opacity:1" fill="#b4bbb9" d="M 202.5,213.5 C 205.757,213.174 207.257,214.507 207,217.5C 205.406,215.018 203.572,214.852 201.5,217C 203.468,218.544 205.635,219.711 208,220.5C 208.699,222.074 208.365,223.407 207,224.5C 206.51,223.207 206.343,221.873 206.5,220.5C 200.73,220.431 199.397,218.097 202.5,213.5 Z"/></g>
<g><path style="opacity:1" fill="#aeb6b4" d="M 184.5,214.5 C 186.857,214.337 189.19,214.503 191.5,215C 189.527,215.495 187.527,215.662 185.5,215.5C 185.5,216.5 185.5,217.5 185.5,218.5C 193.5,219.167 193.5,219.833 185.5,220.5C 185.5,221.833 185.5,223.167 185.5,224.5C 187.857,224.337 190.19,224.503 192.5,225C 189.854,225.497 187.187,225.664 184.5,225.5C 184.5,221.833 184.5,218.167 184.5,214.5 Z"/></g>
<g><path style="opacity:1" fill="#b6bcba" d="M 117.5,213.5 C 120.278,213.022 122.278,214.022 123.5,216.5C 121.667,215.571 119.5,215.571 117,216.5C 116.333,218.833 116.333,221.167 117,223.5C 120.466,225.35 122.299,224.35 122.5,220.5C 121.448,220.649 120.448,220.483 119.5,220C 121.134,219.506 122.801,219.34 124.5,219.5C 124.5,221.5 124.5,223.5 124.5,225.5C 121.552,225.777 118.719,225.444 116,224.5C 113.771,220.429 114.271,216.762 117.5,213.5 Z"/></g>
</svg>
