<?xml version="1.0" encoding="UTF-8"?>
<svg version="1.1" xmlns="http://www.w3.org/2000/svg" width="215" height="234">
<path d="M0 0 C70.95 0 141.9 0 215 0 C215 77.22 215 154.44 215 234 C144.05 234 73.1 234 0 234 C0 156.78 0 79.56 0 0 Z " fill="#7C7C7C" transform="translate(0,0)"/>
<path d="M0 0 C70.95 0 141.9 0 215 0 C215 35.97 215 71.94 215 109 C144.05 109 73.1 109 0 109 C0 73.03 0 37.06 0 0 Z " fill="#40626B" transform="translate(0,0)"/>
<path d="M0 0 C70.95 0 141.9 0 215 0 C215 16.83 215 33.66 215 51 C144.05 51 73.1 51 0 51 C0 34.17 0 17.34 0 0 Z " fill="#3C6069" transform="translate(0,58)"/>
<path d="M0 0 C70.95 0 141.9 0 215 0 C215 8.91 215 17.82 215 27 C144.05 27 73.1 27 0 27 C0 18.09 0 9.18 0 0 Z " fill="#797C7D" transform="translate(0,109)"/>
<path d="M0 0 C70.95 0 141.9 0 215 0 C215 7.59 215 15.18 215 23 C144.05 23 73.1 23 0 23 C0 15.41 0 7.82 0 0 Z " fill="#596E73" transform="translate(0,0)"/>
<path d="M0 0 C70.95 0 141.9 0 215 0 C215 5.61 215 11.22 215 17 C195.66681949 17.20430528 176.33349704 17.39101842 157 17.5625 C156.28275426 17.56888284 155.56550853 17.57526568 154.82652807 17.58184195 C115.2332339 17.93308788 75.65575199 18.10084518 36.0625 17.5625 C35.11892639 17.54968616 34.17535278 17.53687233 33.20318604 17.5236702 C22.13504764 17.37142286 11.0674369 17.19654249 0 17 C0 11.39 0 5.78 0 0 Z " fill="#454E50" transform="translate(0,136)"/>
<path d="M0 0 C70.95 0 141.9 0 215 0 C215 2.97 215 5.94 215 9 C144.05 9 73.1 9 0 9 C0 6.03 0 3.06 0 0 Z " fill="#43636C" transform="translate(0,49)"/>
<path d="M0 0 C70.95 0 141.9 0 215 0 C215 2.97 215 5.94 215 9 C144.05 9 73.1 9 0 9 C0 6.03 0 3.06 0 0 Z " fill="#465052" transform="translate(0,153)"/>
<path d="M0 0 C70.95 0 141.9 0 215 0 C215 2.64 215 5.28 215 8 C195.66682616 8.20484463 176.33349583 8.39101843 157 8.5625 C156.28275426 8.56888284 155.56550853 8.57526568 154.82652807 8.58184195 C115.2332339 8.93308788 75.65575199 9.10084518 36.0625 8.5625 C35.11892639 8.54968616 34.17535278 8.53687233 33.20318604 8.5236702 C22.13506646 8.37142312 11.06737966 8.19895024 0 8 C0 5.36 0 2.72 0 0 Z " fill="#404B4E" transform="translate(0,145)"/>
<path d="M0 0 C70.95 0 141.9 0 215 0 C215 2.31 215 4.62 215 7 C144.05 7 73.1 7 0 7 C0 4.69 0 2.38 0 0 Z " fill="#596466" transform="translate(0,16)"/>
<path d="M0 0 C70.95 0 141.9 0 215 0 C215 1.65 215 3.3 215 5 C144.05 5 73.1 5 0 5 C0 3.35 0 1.7 0 0 Z " fill="#46575B" transform="translate(0,0)"/>
<path d="M0 0 C70.95 0 141.9 0 215 0 C215 1.32 215 2.64 215 4 C144.05 4 73.1 4 0 4 C0 2.68 0 1.36 0 0 Z " fill="#43646C" transform="translate(0,105)"/>
<path d="M0 0 C70.95 0 141.9 0 215 0 C215 1.32 215 2.64 215 4 C144.05 4 73.1 4 0 4 C0 2.68 0 1.36 0 0 Z " fill="#586D72" transform="translate(0,5)"/>
<path d="M0 0 C70.95 0 141.9 0 215 0 C215 0.99 215 1.98 215 3 C143.35190336 4.93852517 71.65482312 4.1828292 0 3 C0 2.01 0 1.02 0 0 Z " fill="#464F52" transform="translate(0,162)"/>
<path d="M0 0 C70.95 0 141.9 0 215 0 C215 0.99 215 1.98 215 3 C143.30783853 4.04866835 71.69198596 4.09679552 0 3 C0 2.01 0 1.02 0 0 Z " fill="#3C4A4D" transform="translate(0,136)"/>
<path d="M0 0 C70.95 0 141.9 0 215 0 C215 0.99 215 1.98 215 3 C144.05 3 73.1 3 0 3 C0 2.01 0 1.02 0 0 Z " fill="#8B9B9F" transform="translate(0,133)"/>
<path d="M0 0 C70.95 0 141.9 0 215 0 C215 0.99 215 1.98 215 3 C144.05 3 73.1 3 0 3 C0 2.01 0 1.02 0 0 Z " fill="#515353" transform="translate(0,130)"/>
<path d="M0 0 C70.95 0 141.9 0 215 0 C215 0.99 215 1.98 215 3 C144.05 3 73.1 3 0 3 C0 2.01 0 1.02 0 0 Z " fill="#99A2A4" transform="translate(0,109)"/>
<path d="M0 0 C70.95 0 141.9 0 215 0 C215 0.99 215 1.98 215 3 C144.05 3 73.1 3 0 3 C0 2.01 0 1.02 0 0 Z " fill="#2E4248" transform="translate(0,58)"/>
<path d="M0 0 C70.95 0 141.9 0 215 0 C215 0.99 215 1.98 215 3 C144.05 3 73.1 3 0 3 C0 2.01 0 1.02 0 0 Z " fill="#5B8590" transform="translate(0,55)"/>
<path d="M0 0 C70.95 0 141.9 0 215 0 C215 0.99 215 1.98 215 3 C144.05 3 73.1 3 0 3 C0 2.01 0 1.02 0 0 Z " fill="#7B949A" transform="translate(0,13)"/>
<path d="M0 0 C70.95 0 141.9 0 215 0 C215 0.99 215 1.98 215 3 C144.05 3 73.1 3 0 3 C0 2.01 0 1.02 0 0 Z " fill="#8C9B9E" transform="translate(0,139)"/>
<path d="M0 0 C70.95 0 141.9 0 215 0 C215 0.99 215 1.98 215 3 C144.05 3 73.1 3 0 3 C0 2.01 0 1.02 0 0 Z " fill="#8F9C9F" transform="translate(0,145)"/>
<path d="M0 0 C70.95 0 141.9 0 215 0 C215 0.99 215 1.98 215 3 C144.05 3 73.1 3 0 3 C0 2.01 0 1.02 0 0 Z " fill="#83969A" transform="translate(0,165)"/>
<path d="M0 0 C70.95 0 141.9 0 215 0 C215 0.99 215 1.98 215 3 C144.05 3 73.1 3 0 3 C0 2.01 0 1.02 0 0 Z " fill="#8A9A9D" transform="translate(0,153)"/>
<path d="M0 0 C66.99 0 133.98 0 203 0 C203 0.66 203 1.32 203 2 C206.96 2 210.92 2 215 2 C215 2.33 215 2.66 215 3 C144.05 3 73.1 3 0 3 C0 2.01 0 1.02 0 0 Z " fill="#909DA1" transform="translate(0,159)"/>
<path d="M0 0 C70.95 0 141.9 0 215 0 C215 0.66 215 1.32 215 2 C195.66682616 2.20484463 176.33349583 2.39101843 157 2.5625 C156.28275426 2.56888284 155.56550853 2.57526568 154.82652807 2.58184195 C115.2332339 2.93308788 75.65575199 3.10084518 36.0625 2.5625 C35.11892639 2.54968616 34.17535278 2.53687233 33.20318604 2.5236702 C22.13506646 2.37142312 11.06737966 2.19895024 0 2 C0 1.34 0 0.68 0 0 Z " fill="#607377" transform="translate(0,151)"/>
</svg>
