<?xml version="1.0" encoding="UTF-8"?>
<!DOCTYPE svg PUBLIC "-//W3C//DTD SVG 1.1//EN" "http://www.w3.org/Graphics/SVG/1.1/DTD/svg11.dtd">
<svg xmlns="http://www.w3.org/2000/svg" version="1.1" width="500px" height="500px" style="shape-rendering:geometricPrecision; text-rendering:geometricPrecision; image-rendering:optimizeQuality; fill-rule:evenodd; clip-rule:evenodd" xmlns:xlink="http://www.w3.org/1999/xlink">
<g><path style="opacity:1" fill="#fefefe" d="M -0.5,-0.5 C 166.167,-0.5 332.833,-0.5 499.5,-0.5C 499.5,166.167 499.5,332.833 499.5,499.5C 332.833,499.5 166.167,499.5 -0.5,499.5C -0.5,332.833 -0.5,166.167 -0.5,-0.5 Z"/></g>
<g><path style="opacity:1" fill="#9c6a83" d="M 17.5,173.5 C 61.5,173.5 105.5,173.5 149.5,173.5C 149.5,173.833 149.5,174.167 149.5,174.5C 147.5,174.5 145.5,174.5 143.5,174.5C 101.833,174.5 60.1667,174.5 18.5,174.5C 18.5,203.167 18.5,231.833 18.5,260.5C 17.596,259.791 17.2627,258.791 17.5,257.5C 17.5,229.5 17.5,201.5 17.5,173.5 Z"/></g>
<g><path style="opacity:1" fill="#7a7979" d="M 274.5,174.5 C 290.992,173.503 307.658,173.17 324.5,173.5C 324.5,175.167 324.5,176.833 324.5,178.5C 320.102,178.294 315.768,178.627 311.5,179.5C 311.611,178.883 311.944,178.383 312.5,178C 316.152,177.501 319.818,177.335 323.5,177.5C 323.5,176.5 323.5,175.5 323.5,174.5C 307.167,174.5 290.833,174.5 274.5,174.5 Z"/></g>
<g><path style="opacity:1" fill="#7c7c7c" d="M 420.5,177.5 C 420.5,176.5 420.5,175.5 420.5,174.5C 404.167,174.5 387.833,174.5 371.5,174.5C 371.5,175.5 371.5,176.5 371.5,177.5C 374.713,177.19 377.713,177.523 380.5,178.5C 377.167,178.5 373.833,178.5 370.5,178.5C 370.5,176.833 370.5,175.167 370.5,173.5C 387.5,173.5 404.5,173.5 421.5,173.5C 421.768,175.099 421.434,176.432 420.5,177.5 Z"/></g>
<g><path style="opacity:1" fill="#787878" d="M 432.5,174.5 C 447.658,173.504 462.991,173.17 478.5,173.5C 478.768,175.099 478.434,176.432 477.5,177.5C 477.5,176.5 477.5,175.5 477.5,174.5C 462.5,174.5 447.5,174.5 432.5,174.5 Z"/></g>
<g><path style="opacity:1" fill="#2c2a28" d="M 274.5,174.5 C 290.833,174.5 307.167,174.5 323.5,174.5C 323.5,175.5 323.5,176.5 323.5,177.5C 319.818,177.335 316.152,177.501 312.5,178C 311.944,178.383 311.611,178.883 311.5,179.5C 310.778,179.918 310.278,180.584 310,181.5C 309.17,211.003 309.336,240.336 310.5,269.5C 310.511,271.017 311.177,272.184 312.5,273C 319.418,273.929 326.085,273.429 332.5,271.5C 342.891,268.95 350.057,262.616 354,252.5C 355.967,247.63 357.467,242.63 358.5,237.5C 360.5,237.5 362.5,237.5 364.5,237.5C 364.5,242.167 364.5,246.833 364.5,251.5C 364.034,257.491 363.701,263.491 363.5,269.5C 362.527,271.948 362.194,274.615 362.5,277.5C 333.167,277.5 303.833,277.5 274.5,277.5C 274.5,276.167 274.5,274.833 274.5,273.5C 278.371,273.815 282.038,273.482 285.5,272.5C 286.496,272.586 287.329,272.252 288,271.5C 288.831,240.997 288.664,210.664 287.5,180.5C 287.047,179.542 286.381,178.708 285.5,178C 281.848,177.501 278.182,177.335 274.5,177.5C 274.5,176.5 274.5,175.5 274.5,174.5 Z"/></g>
<g><path style="opacity:1" fill="#6f2446" d="M 143.5,174.5 C 106.336,175.333 69.0022,175.833 31.5,176C 68.8055,177.449 106.139,177.949 143.5,177.5C 143.917,180.079 143.25,182.246 141.5,184C 142.357,184.689 143.023,185.522 143.5,186.5C 142.253,188.042 142.253,189.542 143.5,191C 143.172,212.784 142.172,234.284 140.5,255.5C 140.5,232.167 140.5,208.833 140.5,185.5C 103.5,185.5 66.5,185.5 29.5,185.5C 29.5,211.5 29.5,237.5 29.5,263.5C 27.6742,239.854 26.8409,215.854 27,191.5C 25.9505,190.483 24.7839,190.316 23.5,191C 24.8261,212.435 24.8261,233.935 23.5,255.5C 22.5003,234.177 22.167,212.844 22.5,191.5C 21.5,191.5 20.5,191.5 19.5,191.5C 19.5,215.5 19.5,239.5 19.5,263.5C 18.596,262.791 18.2627,261.791 18.5,260.5C 18.5,231.833 18.5,203.167 18.5,174.5C 60.1667,174.5 101.833,174.5 143.5,174.5 Z"/></g>
<g><path style="opacity:1" fill="#afafaf" d="M 477.5,177.5 C 475.095,178.768 472.428,179.435 469.5,179.5C 471.78,177.777 474.447,177.111 477.5,177.5 Z"/></g>
<g><path style="opacity:1" fill="#5b1d38" d="M 149.5,174.5 C 151.491,201.146 152.158,228.146 151.5,255.5C 151.5,258.167 151.5,260.833 151.5,263.5C 150.833,266.167 150.167,268.833 149.5,271.5C 150.71,239.102 150.71,206.769 149.5,174.5 Z"/></g>
<g><path style="opacity:1" fill="#8e6c7d" d="M 149.5,174.5 C 149.5,174.167 149.5,173.833 149.5,173.5C 150.791,173.263 151.791,173.596 152.5,174.5C 152.831,201.672 152.498,228.672 151.5,255.5C 152.158,228.146 151.491,201.146 149.5,174.5 Z"/></g>
<g><path style="opacity:1" fill="#f5e6f0" d="M 140.5,255.5 C 140.784,257.415 140.451,259.081 139.5,260.5C 139.5,235.833 139.5,211.167 139.5,186.5C 103.167,186.5 66.8333,186.5 30.5,186.5C 30.3334,209.502 30.5,232.502 31,255.5C 31.3095,256.766 31.8095,257.933 32.5,259C 31.565,261.381 31.2317,263.881 31.5,266.5C 30.8333,265.5 30.1667,264.5 29.5,263.5C 29.5,237.5 29.5,211.5 29.5,185.5C 66.5,185.5 103.5,185.5 140.5,185.5C 140.5,208.833 140.5,232.167 140.5,255.5 Z"/></g>
<g><path style="opacity:1" fill="#fcfbfc" d="M 139.5,260.5 C 139.5,262.5 139.5,264.5 139.5,266.5C 137.025,269.251 136.025,272.584 136.5,276.5C 133.68,284.836 128.68,291.669 121.5,297C 115.101,302.199 108.101,306.365 100.5,309.5C 99.1917,294.628 99.1917,279.628 100.5,264.5C 102.5,261.833 104.833,259.5 107.5,257.5C 108.833,257.5 110.167,257.5 111.5,257.5C 114.512,260.345 117.679,263.012 121,265.5C 123.825,263.694 125.991,261.361 127.5,258.5C 128.962,257.542 130.295,256.376 131.5,255C 130.295,253.624 128.962,252.458 127.5,251.5C 126.5,250.167 125.5,248.833 124.5,247.5C 123.167,245.167 123.167,242.833 124.5,240.5C 126.461,238.037 128.628,235.703 131,233.5C 128.841,228.834 125.341,225.167 120.5,222.5C 118.814,223.857 117.148,225.19 115.5,226.5C 114.167,226.5 112.833,226.5 111.5,226.5C 111.512,229.142 110.179,230.475 107.5,230.5C 106.833,230.167 106.167,229.833 105.5,229.5C 103.5,227.167 101.5,224.833 99.5,222.5C 99.5,221.833 99.5,221.167 99.5,220.5C 102.745,220.03 105.579,218.697 108,216.5C 108.617,215.551 108.451,214.718 107.5,214C 110.017,211.91 110.017,210.077 107.5,208.5C 105.038,205.536 102.371,202.703 99.5,200C 98.4232,199.53 97.4232,199.697 96.5,200.5C 95.1526,199.972 93.8193,199.805 92.5,200C 93.8331,201.84 93.6665,202.34 92,201.5C 91.0771,203.924 89.5771,205.924 87.5,207.5C 86.6858,209.766 86.1858,212.1 86,214.5C 84.4756,212.729 82.9756,211.062 81.5,209.5C 81.1667,208.5 80.5,207.833 79.5,207.5C 78.8333,206.167 77.8333,205.167 76.5,204.5C 75.1879,202.521 73.5212,200.855 71.5,199.5C 68.4789,201.854 65.8123,204.521 63.5,207.5C 62.1882,208.145 61.1882,209.145 60.5,210.5C 62.6207,213.103 64.954,215.436 67.5,217.5C 69.385,219.053 70.385,221.053 70.5,223.5C 67.5012,226.645 64.0012,229.312 60,231.5C 56.345,229.012 53.1783,226.012 50.5,222.5C 49.0527,221.115 48.0527,221.448 47.5,223.5C 44.1877,226.146 41.1877,229.146 38.5,232.5C 39.8569,234.186 41.1902,235.852 42.5,237.5C 42.4914,239.308 42.9914,240.975 44,242.5C 44.8893,241.112 45.3893,241.278 45.5,243C 42.4363,245.264 39.9363,248.097 38,251.5C 36.3514,258.684 39.1847,262.684 46.5,263.5C 48.1994,266.151 49.866,266.151 51.5,263.5C 54.4802,260.856 57.4802,258.189 60.5,255.5C 63.5211,257.854 66.1877,260.521 68.5,263.5C 70.5102,277.784 71.0102,292.451 70,307.5C 68.9887,308.337 67.8221,308.67 66.5,308.5C 65.7659,307.292 65.4326,305.959 65.5,304.5C 63.0971,304.552 60.7638,304.219 58.5,303.5C 51.612,299.942 45.612,295.275 40.5,289.5C 39.3995,288.395 38.7329,287.062 38.5,285.5C 38.3671,282.634 37.0338,280.634 34.5,279.5C 32.7169,275.366 31.7169,271.033 31.5,266.5C 31.2317,263.881 31.565,261.381 32.5,259C 31.8095,257.933 31.3095,256.766 31,255.5C 30.5,232.502 30.3334,209.502 30.5,186.5C 66.8333,186.5 103.167,186.5 139.5,186.5C 139.5,211.167 139.5,235.833 139.5,260.5 Z"/></g>
<g><path style="opacity:1" fill="#f4e6ef" d="M 17.5,173.5 C 17.5,201.5 17.5,229.5 17.5,257.5C 16.8252,229.961 16.1586,202.294 15.5,174.5C 15.9569,173.702 16.6236,173.369 17.5,173.5 Z"/></g>
<g><path style="opacity:1" fill="#f4e7f1" d="M 152.5,174.5 C 153.171,203.236 153.837,232.069 154.5,261C 153.309,261.698 152.309,262.531 151.5,263.5C 151.5,260.833 151.5,258.167 151.5,255.5C 152.498,228.672 152.831,201.672 152.5,174.5 Z"/></g>
<g><path style="opacity:1" fill="#eae9e7" d="M 287.5,180.5 C 288.664,210.664 288.831,240.997 288,271.5C 287.329,272.252 286.496,272.586 285.5,272.5C 287.452,241.952 288.119,211.285 287.5,180.5 Z"/></g>
<g><path style="opacity:1" fill="#6e2f4a" d="M 76.5,204.5 C 75.8826,204.611 75.3826,204.944 75,205.5C 74.6532,203.82 73.6532,202.82 72,202.5C 69.8876,203.608 68.0542,205.108 66.5,207C 65.552,207.483 64.552,207.649 63.5,207.5C 65.8123,204.521 68.4789,201.854 71.5,199.5C 73.5212,200.855 75.1879,202.521 76.5,204.5 Z"/></g>
<g><path style="opacity:1" fill="#6b173f" d="M 76.5,204.5 C 77.8333,205.167 78.8333,206.167 79.5,207.5C 79.5,208.833 79.5,210.167 79.5,211.5C 77.0733,211.523 74.74,212.023 72.5,213C 73.7111,214.113 73.7111,215.28 72.5,216.5C 70.9547,217.452 69.288,217.785 67.5,217.5C 64.954,215.436 62.6207,213.103 60.5,210.5C 61.1882,209.145 62.1882,208.145 63.5,207.5C 64.552,207.649 65.552,207.483 66.5,207C 68.0542,205.108 69.8876,203.608 72,202.5C 73.6532,202.82 74.6532,203.82 75,205.5C 75.3826,204.944 75.8826,204.611 76.5,204.5 Z"/></g>
<g><path style="opacity:1" fill="#6a1b40" d="M 107.5,208.5 C 108.303,209.423 108.47,210.423 108,211.5C 104.934,214.396 102.101,217.396 99.5,220.5C 98.8333,220.5 98.1667,220.5 97.5,220.5C 93.8544,217.521 90.521,214.188 87.5,210.5C 90.5222,207.147 93.5222,203.813 96.5,200.5C 97.4232,199.697 98.4232,199.53 99.5,200C 102.371,202.703 105.038,205.536 107.5,208.5 Z"/></g>
<g><path style="opacity:1" fill="#702c4a" d="M 79.5,207.5 C 80.5,207.833 81.1667,208.5 81.5,209.5C 79.6719,213.842 76.8386,217.509 73,220.5C 72.5172,221.448 72.3505,222.448 72.5,223.5C 71.8333,223.5 71.1667,223.5 70.5,223.5C 70.385,221.053 69.385,219.053 67.5,217.5C 69.288,217.785 70.9547,217.452 72.5,216.5C 73.7111,215.28 73.7111,214.113 72.5,213C 74.74,212.023 77.0733,211.523 79.5,211.5C 79.5,210.167 79.5,208.833 79.5,207.5 Z"/></g>
<g><path style="opacity:1" fill="#e8d8e1" d="M 107.5,208.5 C 110.017,210.077 110.017,211.91 107.5,214C 108.451,214.718 108.617,215.551 108,216.5C 105.579,218.697 102.745,220.03 99.5,220.5C 102.101,217.396 104.934,214.396 108,211.5C 108.47,210.423 108.303,209.423 107.5,208.5 Z"/></g>
<g><path style="opacity:1" fill="#8e8d8b" d="M 247.5,219.5 C 246.167,220.167 244.833,220.833 243.5,221.5C 242.624,221.631 241.957,221.298 241.5,220.5C 243.396,219.534 245.396,219.201 247.5,219.5 Z"/></g>
<g><path style="opacity:1" fill="#b99ea9" d="M 50.5,222.5 C 49.391,222.557 48.391,222.89 47.5,223.5C 48.0527,221.448 49.0527,221.115 50.5,222.5 Z"/></g>
<g><path style="opacity:1" fill="#aa8d9b" d="M 97.5,220.5 C 98.1667,220.5 98.8333,220.5 99.5,220.5C 99.5,221.167 99.5,221.833 99.5,222.5C 98.8333,222.5 98.1667,222.5 97.5,222.5C 97.5,221.833 97.5,221.167 97.5,220.5 Z"/></g>
<g><path style="opacity:1" fill="#e2cdd9" d="M 115.5,226.5 C 114.207,228.296 112.707,229.963 111,231.5C 110.53,232.577 110.697,233.577 111.5,234.5C 110.5,234.5 109.5,234.5 108.5,234.5C 108.567,233.041 108.234,231.708 107.5,230.5C 110.179,230.475 111.512,229.142 111.5,226.5C 112.833,226.5 114.167,226.5 115.5,226.5 Z"/></g>
<g><path style="opacity:1" fill="#2c2a29" d="M 420.5,177.5 C 416.818,177.335 413.152,177.501 409.5,178C 408.944,178.383 408.611,178.883 408.5,179.5C 407.833,179.5 407.5,179.833 407.5,180.5C 406.596,181.209 406.263,182.209 406.5,183.5C 405.505,196.323 405.171,209.323 405.5,222.5C 406.791,222.737 407.791,222.404 408.5,221.5C 408.5,221.167 408.5,220.833 408.5,220.5C 421.248,210.193 433.081,198.86 444,186.5C 445.615,181.957 444.115,179.124 439.5,178C 437.19,177.503 434.857,177.337 432.5,177.5C 432.5,176.5 432.5,175.5 432.5,174.5C 447.5,174.5 462.5,174.5 477.5,174.5C 477.5,175.5 477.5,176.5 477.5,177.5C 474.447,177.111 471.78,177.777 469.5,179.5C 465.144,180.511 461.144,182.344 457.5,185C 448.436,193.402 439.436,201.736 430.5,210C 443.127,228.755 455.627,247.588 468,266.5C 470.106,269.118 472.606,271.118 475.5,272.5C 477.905,273.768 480.572,274.435 483.5,274.5C 483.5,275.5 483.5,276.5 483.5,277.5C 466.167,277.5 448.833,277.5 431.5,277.5C 431.5,276.5 431.5,275.5 431.5,274.5C 433.735,274.795 435.735,274.461 437.5,273.5C 442.151,272.76 443.651,270.094 442,265.5C 436.637,256.66 431.137,247.993 425.5,239.5C 425.573,237.973 424.906,236.973 423.5,236.5C 421.247,231.665 418.247,227.331 414.5,223.5C 412.144,225.69 409.644,227.69 407,229.5C 406.167,243.512 406.334,257.512 407.5,271.5C 408.622,272.63 409.956,273.297 411.5,273.5C 414.287,274.477 417.287,274.81 420.5,274.5C 420.5,275.833 420.5,277.167 420.5,278.5C 404.167,278.5 387.833,278.5 371.5,278.5C 371.5,277.167 371.5,275.833 371.5,274.5C 375.042,274.813 378.375,274.479 381.5,273.5C 383.144,272.684 384.31,271.35 385,269.5C 385.667,240.167 385.667,210.833 385,181.5C 384.411,179.137 382.911,178.137 380.5,178.5C 377.713,177.523 374.713,177.19 371.5,177.5C 371.5,176.5 371.5,175.5 371.5,174.5C 387.833,174.5 404.167,174.5 420.5,174.5C 420.5,175.5 420.5,176.5 420.5,177.5 Z"/></g>
<g><path style="opacity:1" fill="#cccbc9" d="M 407.5,180.5 C 407.171,194.01 407.504,207.344 408.5,220.5C 408.5,220.833 408.5,221.167 408.5,221.5C 406.52,209.211 405.853,196.544 406.5,183.5C 406.263,182.209 406.596,181.209 407.5,180.5 Z"/></g>
<g><path style="opacity:1" fill="#464543" d="M 406.5,183.5 C 405.853,196.544 406.52,209.211 408.5,221.5C 407.791,222.404 406.791,222.737 405.5,222.5C 405.171,209.323 405.505,196.323 406.5,183.5 Z"/></g>
<g><path style="opacity:1" fill="#9e9e9d" d="M 420.5,177.5 C 416.642,178.294 412.642,178.96 408.5,179.5C 408.611,178.883 408.944,178.383 409.5,178C 413.152,177.501 416.818,177.335 420.5,177.5 Z"/></g>
<g><path style="opacity:1" fill="#2d2c2a" d="M 247.5,219.5 C 245.396,219.201 243.396,219.534 241.5,220.5C 241.957,221.298 242.624,221.631 243.5,221.5C 268.816,225.135 277.649,239.135 270,263.5C 262.308,273.26 252.141,278.094 239.5,278C 217.169,278.5 194.836,278.667 172.5,278.5C 172.5,276.833 172.5,275.167 172.5,273.5C 177.109,274.026 181.443,273.359 185.5,271.5C 186.667,241.172 186.833,210.839 186,180.5C 185.167,179.667 184.333,178.833 183.5,178C 179.848,177.501 176.182,177.335 172.5,177.5C 172.5,176.167 172.5,174.833 172.5,173.5C 194.836,173.333 217.169,173.5 239.5,174C 250.496,173.585 259.663,177.418 267,185.5C 273.138,204.235 266.638,215.568 247.5,219.5 Z"/></g>
<g><path style="opacity:1" fill="#f8f8f8" d="M 208.5,223.5 C 215.535,223.326 222.535,223.659 229.5,224.5C 245.31,228.753 251.477,239.086 248,255.5C 247.642,261.842 244.809,266.676 239.5,270C 230.018,273.558 220.351,274.225 210.5,272C 209.283,270.352 208.45,268.519 208,266.5C 207.173,251.994 207.339,237.661 208.5,223.5 Z"/></g>
<g><path style="opacity:1" fill="#3b3a38" d="M 236.5,216.5 C 233.094,218.109 229.427,219.276 225.5,220C 227.5,220.333 229.5,220.667 231.5,221C 229.754,221.471 228.087,222.138 226.5,223C 227.737,223.232 228.737,223.732 229.5,224.5C 222.535,223.659 215.535,223.326 208.5,223.5C 213.316,222.674 218.316,222.174 223.5,222C 219.5,221.333 219.5,220.667 223.5,220C 218.316,219.826 213.316,219.326 208.5,218.5C 215.354,218.824 222.021,218.491 228.5,217.5C 231.167,217.167 233.833,216.833 236.5,216.5 Z"/></g>
<g><path style="opacity:1" fill="#969695" d="M 208.5,181.5 C 208.5,193.5 208.5,205.5 208.5,217.5C 215.167,217.5 221.833,217.5 228.5,217.5C 222.021,218.491 215.354,218.824 208.5,218.5C 207.167,206.167 207.167,193.833 208.5,181.5 Z"/></g>
<g><path style="opacity:1" fill="#fbfbfa" d="M 236.5,216.5 C 233.833,216.833 231.167,217.167 228.5,217.5C 221.833,217.5 215.167,217.5 208.5,217.5C 208.5,205.5 208.5,193.5 208.5,181.5C 208.953,180.542 209.619,179.708 210.5,179C 219.639,178.007 228.639,178.674 237.5,181C 241.77,182.27 244.27,185.104 245,189.5C 245.884,196.582 245.551,203.582 244,210.5C 241.866,213.153 239.366,215.153 236.5,216.5 Z"/></g>
<g><path style="opacity:1" fill="#6a1b40" d="M 124.5,240.5 C 123.18,241.942 121.514,242.608 119.5,242.5C 116.527,240.194 113.86,237.527 111.5,234.5C 110.697,233.577 110.53,232.577 111,231.5C 112.707,229.963 114.207,228.296 115.5,226.5C 117.148,225.19 118.814,223.857 120.5,222.5C 125.341,225.167 128.841,228.834 131,233.5C 128.628,235.703 126.461,238.037 124.5,240.5 Z"/></g>
<g><path style="opacity:1" fill="#8e6376" d="M 89.5,230.5 C 89.4431,231.609 89.1098,232.609 88.5,233.5C 87.2848,232.221 87.6182,231.221 89.5,230.5 Z"/></g>
<g><path style="opacity:1" fill="#6c173f" d="M 97.5,222.5 C 98.1667,222.5 98.8333,222.5 99.5,222.5C 101.5,224.833 103.5,227.167 105.5,229.5C 105.678,230.695 106.011,231.862 106.5,233C 105.99,234.826 105.156,234.993 104,233.5C 103.517,234.448 103.351,235.448 103.5,236.5C 102.325,236.281 101.325,236.614 100.5,237.5C 100.023,238.931 99.3567,240.264 98.5,241.5C 97.914,241.291 97.414,240.957 97,240.5C 96.9219,238.343 96.7552,236.343 96.5,234.5C 94.8437,236.735 92.8437,237.068 90.5,235.5C 89.5,235.167 88.8333,234.5 88.5,233.5C 89.1098,232.609 89.4431,231.609 89.5,230.5C 91.8605,227.473 94.5271,224.806 97.5,222.5 Z"/></g>
<g><path style="opacity:1" fill="#6b1d40" d="M 50.5,222.5 C 53.1783,226.012 56.345,229.012 60,231.5C 64.0012,229.312 67.5012,226.645 70.5,223.5C 71.1667,223.5 71.8333,223.5 72.5,223.5C 75.742,226.399 79.0754,229.399 82.5,232.5C 79.1667,236.5 75.5,240.167 71.5,243.5C 67.8333,240.167 64.1667,236.833 60.5,233.5C 56.2871,236.424 52.6205,239.924 49.5,244C 50.7101,245.039 51.7101,246.206 52.5,247.5C 50.8008,247.34 49.1341,247.506 47.5,248C 46.3185,251.218 44.3185,253.718 41.5,255.5C 42.9838,258.404 45.3171,260.071 48.5,260.5C 48.5,261.5 48.5,262.5 48.5,263.5C 49.5,263.5 50.5,263.5 51.5,263.5C 49.866,266.151 48.1994,266.151 46.5,263.5C 43.6273,260.889 40.9606,258.056 38.5,255C 41.898,251.322 45.2313,247.655 48.5,244C 47.0145,241.348 45.0145,239.182 42.5,237.5C 41.1902,235.852 39.8569,234.186 38.5,232.5C 41.1877,229.146 44.1877,226.146 47.5,223.5C 48.391,222.89 49.391,222.557 50.5,222.5 Z"/></g>
<g><path style="opacity:1" fill="#f8f4f7" d="M 96.5,200.5 C 93.5222,203.813 90.5222,207.147 87.5,210.5C 90.521,214.188 93.8544,217.521 97.5,220.5C 97.5,221.167 97.5,221.833 97.5,222.5C 94.5271,224.806 91.8605,227.473 89.5,230.5C 87.6182,231.221 87.2848,232.221 88.5,233.5C 88.8333,234.5 89.5,235.167 90.5,235.5C 92.5,238.167 94.8333,240.5 97.5,242.5C 97.5,243.167 97.5,243.833 97.5,244.5C 94.8333,247.5 92.1667,250.5 89.5,253.5C 88.8333,253.833 88.1667,254.167 87.5,254.5C 87.67,253.178 87.3366,252.011 86.5,251C 87.3247,249.312 88.3247,249.145 89.5,250.5C 90.3857,249.675 90.719,248.675 90.5,247.5C 87.7181,247.417 85.3848,248.25 83.5,250C 84.5776,254.386 84.5776,258.886 83.5,263.5C 83.8064,260.615 83.4731,257.948 82.5,255.5C 82.5,254.833 82.1667,254.5 81.5,254.5C 78.5211,250.854 75.1877,247.521 71.5,244.5C 67.8333,247.833 64.1667,251.167 60.5,254.5C 57.8136,252.144 55.147,249.811 52.5,247.5C 51.7101,246.206 50.7101,245.039 49.5,244C 52.6205,239.924 56.2871,236.424 60.5,233.5C 64.1667,236.833 67.8333,240.167 71.5,243.5C 75.5,240.167 79.1667,236.5 82.5,232.5C 79.0754,229.399 75.742,226.399 72.5,223.5C 72.3505,222.448 72.5172,221.448 73,220.5C 76.8386,217.509 79.6719,213.842 81.5,209.5C 82.9756,211.062 84.4756,212.729 86,214.5C 86.1858,212.1 86.6858,209.766 87.5,207.5C 89.5771,205.924 91.0771,203.924 92,201.5C 93.6665,202.34 93.8331,201.84 92.5,200C 93.8193,199.805 95.1526,199.972 96.5,200.5 Z"/></g>
<g><path style="opacity:1" fill="#f9f5f8" d="M 108.5,234.5 C 109.5,234.5 110.5,234.5 111.5,234.5C 113.86,237.527 116.527,240.194 119.5,242.5C 119.5,243.5 119.5,244.5 119.5,245.5C 116.5,247.833 113.833,250.5 111.5,253.5C 109.989,252.498 108.322,251.831 106.5,251.5C 103.833,249.5 101.5,247.167 99.5,244.5C 99.5,243.833 99.5,243.167 99.5,242.5C 102.5,239.833 105.5,237.167 108.5,234.5 Z"/></g>
<g><path style="opacity:1" fill="#6b2846" d="M 105.5,229.5 C 106.167,229.833 106.833,230.167 107.5,230.5C 108.234,231.708 108.567,233.041 108.5,234.5C 105.5,237.167 102.5,239.833 99.5,242.5C 98.8333,242.5 98.1667,242.5 97.5,242.5C 94.8333,240.5 92.5,238.167 90.5,235.5C 92.8437,237.068 94.8437,236.735 96.5,234.5C 96.7552,236.343 96.9219,238.343 97,240.5C 97.414,240.957 97.914,241.291 98.5,241.5C 99.3567,240.264 100.023,238.931 100.5,237.5C 101.325,236.614 102.325,236.281 103.5,236.5C 103.351,235.448 103.517,234.448 104,233.5C 105.156,234.993 105.99,234.826 106.5,233C 106.011,231.862 105.678,230.695 105.5,229.5 Z"/></g>
<g><path style="opacity:1" fill="#a3a2a0" d="M 423.5,236.5 C 424.906,236.973 425.573,237.973 425.5,239.5C 424.094,239.027 423.427,238.027 423.5,236.5 Z"/></g>
<g><path style="opacity:1" fill="#f1e5ec" d="M 42.5,237.5 C 45.0145,239.182 47.0145,241.348 48.5,244C 45.2313,247.655 41.898,251.322 38.5,255C 40.9606,258.056 43.6273,260.889 46.5,263.5C 39.1847,262.684 36.3514,258.684 38,251.5C 39.9363,248.097 42.4363,245.264 45.5,243C 45.3893,241.278 44.8893,241.112 44,242.5C 42.9914,240.975 42.4914,239.308 42.5,237.5 Z"/></g>
<g><path style="opacity:1" fill="#b28796" d="M 97.5,242.5 C 98.1667,242.5 98.8333,242.5 99.5,242.5C 99.5,243.167 99.5,243.833 99.5,244.5C 98.8333,244.5 98.1667,244.5 97.5,244.5C 97.5,243.833 97.5,243.167 97.5,242.5 Z"/></g>
<g><path style="opacity:1" fill="#d9bdcb" d="M 124.5,240.5 C 123.167,242.833 123.167,245.167 124.5,247.5C 123.206,246.71 122.039,245.71 121,244.5C 120.617,245.056 120.117,245.389 119.5,245.5C 119.5,244.5 119.5,243.5 119.5,242.5C 121.514,242.608 123.18,241.942 124.5,240.5 Z"/></g>
<g><path style="opacity:1" fill="#6d133e" d="M 29.5,263.5 C 29.5,266.167 29.5,268.833 29.5,271.5C 28.5,271.5 27.5,271.5 26.5,271.5C 26.6621,273.527 26.4955,275.527 26,277.5C 25.3333,278.833 24.6667,278.833 24,277.5C 22.6726,272.536 21.1726,267.87 19.5,263.5C 19.5,239.5 19.5,215.5 19.5,191.5C 20.5,191.5 21.5,191.5 22.5,191.5C 22.167,212.844 22.5003,234.177 23.5,255.5C 24.8261,233.935 24.8261,212.435 23.5,191C 24.7839,190.316 25.9505,190.483 27,191.5C 26.8409,215.854 27.6742,239.854 29.5,263.5 Z"/></g>
<g><path style="opacity:1" fill="#a6a5a3" d="M 358.5,237.5 C 360.607,236.532 362.941,236.198 365.5,236.5C 365.821,241.695 365.487,246.695 364.5,251.5C 364.5,246.833 364.5,242.167 364.5,237.5C 362.5,237.5 360.5,237.5 358.5,237.5 Z"/></g>
<g><path style="opacity:1" fill="#6b173e" d="M 81.5,254.5 C 82.1568,278.857 81.4902,302.857 79.5,326.5C 73.4828,324.991 67.8161,322.657 62.5,319.5C 62.0269,318.094 61.0269,317.427 59.5,317.5C 46.7742,311.448 36.1075,302.781 27.5,291.5C 27.1667,290.167 26.8333,288.833 26.5,287.5C 25.8333,284.833 25.1667,282.167 24.5,279.5C 28.4214,280.07 30.588,278.403 31,274.5C 31.121,276.727 31.9544,278.56 33.5,280C 33.4521,282.127 33.2855,284.294 33,286.5C 33.3333,286.167 33.6667,285.833 34,285.5C 35.6006,287.719 37.7672,289.052 40.5,289.5C 45.612,295.275 51.612,299.942 58.5,303.5C 60.822,305.664 63.4887,307.331 66.5,308.5C 67.2905,309.401 68.2905,310.068 69.5,310.5C 70.209,311.404 71.209,311.737 72.5,311.5C 72.8294,296.324 72.4961,281.324 71.5,266.5C 70.8333,265.167 69.8333,264.167 68.5,263.5C 66.1877,260.521 63.5211,257.854 60.5,255.5C 57.4802,258.189 54.4802,260.856 51.5,263.5C 50.5,263.5 49.5,263.5 48.5,263.5C 48.5,262.5 48.5,261.5 48.5,260.5C 45.3171,260.071 42.9838,258.404 41.5,255.5C 44.3185,253.718 46.3185,251.218 47.5,248C 49.1341,247.506 50.8008,247.34 52.5,247.5C 55.147,249.811 57.8136,252.144 60.5,254.5C 64.1667,251.167 67.8333,247.833 71.5,244.5C 75.1877,247.521 78.5211,250.854 81.5,254.5 Z"/></g>
<g><path style="opacity:1" fill="#dbc0ce" d="M 151.5,263.5 C 152.09,268.64 151.09,273.307 148.5,277.5C 148.517,275.435 148.85,273.435 149.5,271.5C 150.167,268.833 150.833,266.167 151.5,263.5 Z"/></g>
<g><path style="opacity:1" fill="#672141" d="M 19.5,263.5 C 21.1726,267.87 22.6726,272.536 24,277.5C 24.6667,278.833 25.3333,278.833 26,277.5C 26.4955,275.527 26.6621,273.527 26.5,271.5C 27.5,271.5 28.5,271.5 29.5,271.5C 29.5,268.833 29.5,266.167 29.5,263.5C 30.1667,264.5 30.8333,265.5 31.5,266.5C 31.7169,271.033 32.7169,275.366 34.5,279.5C 35.3403,281.853 36.6736,283.853 38.5,285.5C 38.7329,287.062 39.3995,288.395 40.5,289.5C 37.7672,289.052 35.6006,287.719 34,285.5C 33.6667,285.833 33.3333,286.167 33,286.5C 33.2855,284.294 33.4521,282.127 33.5,280C 31.9544,278.56 31.121,276.727 31,274.5C 30.588,278.403 28.4214,280.07 24.5,279.5C 25.1667,282.167 25.8333,284.833 26.5,287.5C 24.4495,284.342 22.7828,281.008 21.5,277.5C 20.0184,272.985 19.3517,268.319 19.5,263.5 Z"/></g>
<g><path style="opacity:1" fill="#eed6e4" d="M 68.5,263.5 C 69.8333,264.167 70.8333,265.167 71.5,266.5C 72.1499,281.538 71.4833,296.205 69.5,310.5C 68.2905,310.068 67.2905,309.401 66.5,308.5C 67.8221,308.67 68.9887,308.337 70,307.5C 71.0102,292.451 70.5102,277.784 68.5,263.5 Z"/></g>
<g><path style="opacity:1" fill="#d3d2d0" d="M 310.5,269.5 C 311.995,269.415 312.995,270.081 313.5,271.5C 319.822,272.527 326.155,272.527 332.5,271.5C 326.085,273.429 319.418,273.929 312.5,273C 311.177,272.184 310.511,271.017 310.5,269.5 Z"/></g>
<g><path style="opacity:1" fill="#828282" d="M 411.5,273.5 C 414.833,273.5 418.167,273.5 421.5,273.5C 421.784,275.415 421.451,277.081 420.5,278.5C 420.5,277.167 420.5,275.833 420.5,274.5C 417.287,274.81 414.287,274.477 411.5,273.5 Z"/></g>
<g><path style="opacity:1" fill="#90908f" d="M 475.5,272.5 C 478.518,272.704 481.518,273.037 484.5,273.5C 484.784,275.415 484.451,277.081 483.5,278.5C 483.5,278.167 483.5,277.833 483.5,277.5C 483.5,276.5 483.5,275.5 483.5,274.5C 480.572,274.435 477.905,273.768 475.5,272.5 Z"/></g>
<g><path style="opacity:1" fill="#848283" d="M 381.5,273.5 C 378.375,274.479 375.042,274.813 371.5,274.5C 371.5,275.833 371.5,277.167 371.5,278.5C 370.549,277.081 370.216,275.415 370.5,273.5C 374.167,273.5 377.833,273.5 381.5,273.5 Z"/></g>
<g><path style="opacity:1" fill="#51504e" d="M 363.5,269.5 C 363.5,272.5 363.5,275.5 363.5,278.5C 333.662,278.831 303.995,278.498 274.5,277.5C 303.833,277.5 333.167,277.5 362.5,277.5C 362.194,274.615 362.527,271.948 363.5,269.5 Z"/></g>
<g><path style="opacity:1" fill="#504f4d" d="M 437.5,273.5 C 435.735,274.461 433.735,274.795 431.5,274.5C 431.5,275.5 431.5,276.5 431.5,277.5C 448.833,277.5 466.167,277.5 483.5,277.5C 483.5,277.833 483.5,278.167 483.5,278.5C 465.833,278.5 448.167,278.5 430.5,278.5C 430.5,276.833 430.5,275.167 430.5,273.5C 432.833,273.5 435.167,273.5 437.5,273.5 Z"/></g>
<g><path style="opacity:1" fill="#c7b2bd" d="M 82.5,255.5 C 83.4731,257.948 83.8064,260.615 83.5,263.5C 83.5,285.167 83.5,306.833 83.5,328.5C 82.209,328.737 81.209,328.404 80.5,327.5C 82.4902,303.857 83.1568,279.857 82.5,255.5 Z"/></g>
<g><path style="opacity:1" fill="#e2c3d3" d="M 34.5,279.5 C 37.0338,280.634 38.3671,282.634 38.5,285.5C 36.6736,283.853 35.3403,281.853 34.5,279.5 Z"/></g>
<g><path style="opacity:1" fill="#e9d3e0" d="M 21.5,277.5 C 22.7828,281.008 24.4495,284.342 26.5,287.5C 26.8333,288.833 27.1667,290.167 27.5,291.5C 25.1119,290.781 23.6119,289.115 23,286.5C 22.304,283.522 21.804,280.522 21.5,277.5 Z"/></g>
<g><path style="opacity:1" fill="#612c46" d="M 81.5,254.5 C 82.1667,254.5 82.5,254.833 82.5,255.5C 83.1568,279.857 82.4902,303.857 80.5,327.5C 79.8333,327.5 79.5,327.167 79.5,326.5C 81.4902,302.857 82.1568,278.857 81.5,254.5 Z"/></g>
<g><path style="opacity:1" fill="#662744" d="M 89.5,253.5 C 88.1866,277.148 88.1866,300.814 89.5,324.5C 91.5,324.5 93.5,324.5 95.5,324.5C 93.1098,326.02 90.4432,327.02 87.5,327.5C 87.5,303.167 87.5,278.833 87.5,254.5C 88.1667,254.167 88.8333,253.833 89.5,253.5 Z"/></g>
<g><path style="opacity:1" fill="#6b183f" d="M 143.5,174.5 C 145.5,174.5 147.5,174.5 149.5,174.5C 150.71,206.769 150.71,239.102 149.5,271.5C 148.85,273.435 148.517,275.435 148.5,277.5C 144.134,289.519 136.801,299.519 126.5,307.5C 120.271,311.775 113.938,315.775 107.5,319.5C 103.849,320.659 100.515,322.326 97.5,324.5C 96.8333,324.5 96.1667,324.5 95.5,324.5C 93.5,324.5 91.5,324.5 89.5,324.5C 88.1866,300.814 88.1866,277.148 89.5,253.5C 92.1667,250.5 94.8333,247.5 97.5,244.5C 98.1667,244.5 98.8333,244.5 99.5,244.5C 101.5,247.167 103.833,249.5 106.5,251.5C 108.531,253.249 108.865,255.249 107.5,257.5C 104.833,259.5 102.5,261.833 100.5,264.5C 99.8826,264.611 99.3826,264.944 99,265.5C 98.1672,280.511 98.3338,295.511 99.5,310.5C 100.107,310.376 100.44,310.043 100.5,309.5C 108.101,306.365 115.101,302.199 121.5,297C 128.68,291.669 133.68,284.836 136.5,276.5C 138.277,273.495 139.277,270.162 139.5,266.5C 139.5,264.5 139.5,262.5 139.5,260.5C 140.451,259.081 140.784,257.415 140.5,255.5C 142.172,234.284 143.172,212.784 143.5,191C 142.253,189.542 142.253,188.042 143.5,186.5C 143.023,185.522 142.357,184.689 141.5,184C 143.25,182.246 143.917,180.079 143.5,177.5C 106.139,177.949 68.8055,177.449 31.5,176C 69.0022,175.833 106.336,175.333 143.5,174.5 Z"/></g>
<g><path style="opacity:1" fill="#ccb0bd" d="M 139.5,266.5 C 139.277,270.162 138.277,273.495 136.5,276.5C 136.025,272.584 137.025,269.251 139.5,266.5 Z"/></g>
<g><path style="opacity:1" fill="#ead3e0" d="M 100.5,264.5 C 99.1917,279.628 99.1917,294.628 100.5,309.5C 100.44,310.043 100.107,310.376 99.5,310.5C 98.3338,295.511 98.1672,280.511 99,265.5C 99.3826,264.944 99.8826,264.611 100.5,264.5 Z"/></g>
<g><path style="opacity:1" fill="#662443" d="M 124.5,247.5 C 125.5,248.833 126.5,250.167 127.5,251.5C 124.775,251.055 122.608,249.722 121,247.5C 119.337,249.328 117.504,250.995 115.5,252.5C 114.691,254.071 114.357,255.738 114.5,257.5C 115.552,257.351 116.552,257.517 117.5,258C 118.119,259.757 119.286,260.924 121,261.5C 123.279,260.609 125.446,259.609 127.5,258.5C 125.991,261.361 123.825,263.694 121,265.5C 117.679,263.012 114.512,260.345 111.5,257.5C 110.167,256.167 110.167,254.833 111.5,253.5C 113.833,250.5 116.5,247.833 119.5,245.5C 120.117,245.389 120.617,245.056 121,244.5C 122.039,245.71 123.206,246.71 124.5,247.5 Z"/></g>
<g><path style="opacity:1" fill="#e2cad8" d="M 106.5,251.5 C 108.322,251.831 109.989,252.498 111.5,253.5C 110.167,254.833 110.167,256.167 111.5,257.5C 110.167,257.5 108.833,257.5 107.5,257.5C 108.865,255.249 108.531,253.249 106.5,251.5 Z"/></g>
<g><path style="opacity:1" fill="#6d143e" d="M 127.5,251.5 C 128.962,252.458 130.295,253.624 131.5,255C 130.295,256.376 128.962,257.542 127.5,258.5C 125.446,259.609 123.279,260.609 121,261.5C 119.286,260.924 118.119,259.757 117.5,258C 116.552,257.517 115.552,257.351 114.5,257.5C 114.357,255.738 114.691,254.071 115.5,252.5C 117.504,250.995 119.337,249.328 121,247.5C 122.608,249.722 124.775,251.055 127.5,251.5 Z"/></g>
<g><path style="opacity:1" fill="#814a63" d="M 71.5,266.5 C 72.4961,281.324 72.8294,296.324 72.5,311.5C 71.209,311.737 70.209,311.404 69.5,310.5C 71.4833,296.205 72.1499,281.538 71.5,266.5 Z"/></g>
<g><path style="opacity:1" fill="#979797" d="M 386.5,303.5 C 385.5,302.167 384.5,302.167 383.5,303.5C 382.624,303.631 381.957,303.298 381.5,302.5C 383.833,301.167 386.167,301.167 388.5,302.5C 388.043,303.298 387.376,303.631 386.5,303.5 Z"/></g>
<g><path style="opacity:1" fill="#8a8a8a" d="M 185.5,308.5 C 184.167,308.5 183.5,307.833 183.5,306.5C 184.776,305.614 184.776,304.614 183.5,303.5C 182.893,303.624 182.56,303.957 182.5,304.5C 180.024,302.448 177.358,302.115 174.5,303.5C 174.167,303.5 173.833,303.5 173.5,303.5C 174.492,301.974 175.992,301.307 178,301.5C 180.498,301.917 182.998,302.251 185.5,302.5C 185.5,304.5 185.5,306.5 185.5,308.5 Z"/></g>
<g><path style="opacity:1" fill="#e6e6e6" d="M 182.5,304.5 C 182.833,305.167 183.167,305.833 183.5,306.5C 183.5,307.833 184.167,308.5 185.5,308.5C 184.167,310.167 184.167,311.833 185.5,313.5C 182.524,311.336 179.191,309.836 175.5,309C 174.594,307.301 174.261,305.467 174.5,303.5C 177.358,302.115 180.024,302.448 182.5,304.5 Z"/></g>
<g><path style="opacity:1" fill="#3a3a3a" d="M 183.5,306.5 C 183.167,305.833 182.833,305.167 182.5,304.5C 182.56,303.957 182.893,303.624 183.5,303.5C 184.776,304.614 184.776,305.614 183.5,306.5 Z"/></g>
<g><path style="opacity:1" fill="#3a3a3a" d="M 313.5,302.5 C 314.5,302.5 315.5,302.5 316.5,302.5C 316.5,303.5 316.5,304.5 316.5,305.5C 315.5,305.5 314.5,305.5 313.5,305.5C 313.5,304.5 313.5,303.5 313.5,302.5 Z"/></g>
<g><path style="opacity:1" fill="#3e3e3e" d="M 446.5,302.5 C 447.5,302.5 448.5,302.5 449.5,302.5C 449.5,303.5 449.5,304.5 449.5,305.5C 448.5,305.5 447.5,305.5 446.5,305.5C 446.5,304.5 446.5,303.5 446.5,302.5 Z"/></g>
<g><path style="opacity:1" fill="#e3cfd9" d="M 58.5,303.5 C 60.7638,304.219 63.0971,304.552 65.5,304.5C 65.4326,305.959 65.7659,307.292 66.5,308.5C 63.4887,307.331 60.822,305.664 58.5,303.5 Z"/></g>
<g><path style="opacity:1" fill="#3a3a3a" d="M 264.5,307.5 C 264.443,306.391 264.11,305.391 263.5,304.5C 264.472,303.249 265.139,303.582 265.5,305.5C 265.457,306.416 265.124,307.083 264.5,307.5 Z"/></g>
<g><path style="opacity:1" fill="#7b7b7a" d="M 347.5,302.5 C 347.5,303.5 347.5,304.5 347.5,305.5C 346.5,305.5 345.5,305.5 344.5,305.5C 343.167,304.5 343.167,303.5 344.5,302.5C 345.5,301.167 346.5,301.167 347.5,302.5 Z"/></g>
<g><path style="opacity:1" fill="#20201f" d="M 344.5,302.5 C 346.337,302.639 346.67,303.306 345.5,304.5C 344.702,304.043 344.369,303.376 344.5,302.5 Z"/></g>
<g><path style="opacity:1" fill="#dfdfdd" d="M 347.5,302.5 C 349.179,303.916 350.846,305.25 352.5,306.5C 352.354,310.956 352.354,315.622 352.5,320.5C 351.518,317.038 351.185,313.371 351.5,309.5C 350.167,309.5 348.833,309.5 347.5,309.5C 346.791,308.596 345.791,308.263 344.5,308.5C 344.5,312.5 344.5,316.5 344.5,320.5C 344.167,320.5 343.833,320.5 343.5,320.5C 343.737,316.278 343.404,312.111 342.5,308C 343.056,306.989 343.722,306.156 344.5,305.5C 345.5,305.5 346.5,305.5 347.5,305.5C 347.5,304.5 347.5,303.5 347.5,302.5 Z"/></g>
<g><path style="opacity:1" fill="#444444" d="M 386.5,303.5 C 386.5,305.5 386.5,307.5 386.5,309.5C 386.5,310.167 386.5,310.833 386.5,311.5C 386.5,314.5 386.5,317.5 386.5,320.5C 385.5,321.833 384.5,321.833 383.5,320.5C 383.5,314.833 383.5,309.167 383.5,303.5C 384.5,302.167 385.5,302.167 386.5,303.5 Z"/></g>
<g><path style="opacity:1" fill="#919190" d="M 457.5,320.5 C 456.833,315.5 456.167,310.5 455.5,305.5C 455.238,304.022 455.571,302.689 456.5,301.5C 457.466,303.396 457.799,305.396 457.5,307.5C 461.5,308.167 461.5,308.833 457.5,309.5C 457.5,313.167 457.5,316.833 457.5,320.5 Z"/></g>
<g><path style="opacity:1" fill="#9b9b9b" d="M 255.5,302.5 C 258.729,301.907 262.063,301.573 265.5,301.5C 266.833,303.833 266.833,306.167 265.5,308.5C 264.893,308.376 264.56,308.043 264.5,307.5C 265.124,307.083 265.457,306.416 265.5,305.5C 265.139,303.582 264.472,303.249 263.5,304.5C 261.309,302.647 258.975,302.313 256.5,303.5C 256.5,302.833 256.167,302.5 255.5,302.5 Z"/></g>
<g><path style="opacity:1" fill="#848484" d="M 272.5,308.5 C 271.508,308.328 270.842,308.662 270.5,309.5C 269.624,309.631 268.957,309.298 268.5,308.5C 269.958,307.218 271.292,307.218 272.5,308.5 Z"/></g>
<g><path style="opacity:1" fill="#898989" d="M 329.5,308.5 C 328.833,308.5 328.167,308.5 327.5,308.5C 325.517,308.157 324.183,308.824 323.5,310.5C 322.833,310.167 322.167,309.833 321.5,309.5C 322.492,307.974 323.992,307.307 326,307.5C 327.385,307.514 328.551,307.848 329.5,308.5 Z"/></g>
<g><path style="opacity:1" fill="#838383" d="M 364.5,310.5 C 363.849,309.909 363.182,309.243 362.5,308.5C 361.702,308.957 361.369,309.624 361.5,310.5C 358.597,308.755 358.93,307.755 362.5,307.5C 363.5,307.667 364.5,307.833 365.5,308C 364.748,308.671 364.414,309.504 364.5,310.5 Z"/></g>
<g><path style="opacity:1" fill="#b6b6b6" d="M 394.5,320.5 C 395.209,321.404 396.209,321.737 397.5,321.5C 397.5,315.167 397.5,308.833 397.5,302.5C 396.209,302.263 395.209,302.596 394.5,303.5C 393.624,303.631 392.957,303.298 392.5,302.5C 395.167,301.167 397.833,301.167 400.5,302.5C 399.262,305.469 398.595,308.636 398.5,312C 398.595,315.364 399.262,318.531 400.5,321.5C 397.833,322.833 395.167,322.833 392.5,321.5C 392.957,320.702 393.624,320.369 394.5,320.5 Z"/></g>
<g><path style="opacity:1" fill="#838383" d="M 419.5,311.5 C 417.797,310.34 417.131,311.007 417.5,313.5C 416.113,311.511 416.447,309.678 418.5,308C 421.192,307.57 423.859,307.737 426.5,308.5C 426.657,309.873 426.49,311.207 426,312.5C 424.649,310.981 423.149,309.648 421.5,308.5C 420.081,309.005 419.415,310.005 419.5,311.5 Z"/></g>
<g><path style="opacity:1" fill="#838383" d="M 472.5,309.5 C 471.833,310.5 471.167,311.5 470.5,312.5C 470.853,310.365 470.02,309.032 468,308.5C 466.97,308.836 466.47,309.503 466.5,310.5C 465.5,309.167 464.5,309.167 463.5,310.5C 463.874,308.05 465.374,307.05 468,307.5C 470.008,307.307 471.508,307.974 472.5,309.5 Z"/></g>
<g><path style="opacity:1" fill="#a2a2a2" d="M 243.5,308.5 C 242.222,308.782 241.222,309.449 240.5,310.5C 240.19,309.262 239.69,309.262 239,310.5C 238.021,314.423 238.521,318.09 240.5,321.5C 238.167,322.833 235.833,322.833 233.5,321.5C 234.833,317.167 234.833,312.833 233.5,308.5C 236.98,307.194 240.313,307.194 243.5,308.5 Z"/></g>
<g><path style="opacity:1" fill="#e8e8e8" d="M 213.5,309.5 C 214.58,312.743 214.747,316.076 214,319.5C 213.617,320.056 213.117,320.389 212.5,320.5C 211.041,320.567 209.708,320.234 208.5,319.5C 208.5,319.167 208.5,318.833 208.5,318.5C 208.336,315.813 208.503,313.146 209,310.5C 210.356,309.62 211.856,309.286 213.5,309.5 Z"/></g>
<g><path style="opacity:1" fill="#f2f2f2" d="M 228.5,310.5 C 228.5,311.5 228.5,312.5 228.5,313.5C 226.833,313.5 225.167,313.5 223.5,313.5C 223.144,308.516 224.811,307.516 228.5,310.5 Z"/></g>
<g><path style="opacity:1" fill="#e9e9e8" d="M 278.5,309.5 C 279.58,312.743 279.747,316.076 279,319.5C 278.617,320.056 278.117,320.389 277.5,320.5C 276.041,320.567 274.708,320.234 273.5,319.5C 273.5,318.833 273.5,318.167 273.5,317.5C 273.292,315.08 273.626,312.747 274.5,310.5C 275.689,309.571 277.022,309.238 278.5,309.5 Z"/></g>
<g><path style="opacity:1" fill="#f0f0f0" d="M 292.5,309.5 C 293.434,310.568 293.768,311.901 293.5,313.5C 291.833,313.5 290.167,313.5 288.5,313.5C 287.766,309.56 289.099,308.227 292.5,309.5 Z"/></g>
<g><path style="opacity:1" fill="#ebebeb" d="M 311.5,307.5 C 311.5,308.833 312.167,309.5 313.5,309.5C 313.5,313.167 313.5,316.833 313.5,320.5C 312.167,320.5 311.5,321.167 311.5,322.5C 310.833,321.833 310.167,321.167 309.5,320.5C 310.364,316.89 309.698,316.723 307.5,320C 306.207,320.49 304.873,320.657 303.5,320.5C 301.663,317.481 301.163,314.148 302,310.5C 306.417,307.461 307.917,308.461 306.5,313.5C 307.5,313.5 308.5,313.5 309.5,313.5C 309.5,312.167 309.5,310.833 309.5,309.5C 309.942,308.769 310.109,307.769 310,306.5C 310.383,307.056 310.883,307.389 311.5,307.5 Z"/></g>
<g><path style="opacity:1" fill="#eeeeed" d="M 327.5,308.5 C 327.5,308.833 327.5,309.167 327.5,309.5C 326.84,314.182 325.507,314.515 323.5,310.5C 324.183,308.824 325.517,308.157 327.5,308.5 Z"/></g>
<g><path style="opacity:1" fill="#ebebeb" d="M 410.5,309.5 C 412.048,313.43 411.715,317.097 409.5,320.5C 408.041,320.567 406.708,320.234 405.5,319.5C 405.18,316.102 405.513,312.768 406.5,309.5C 407.865,308.193 409.198,308.193 410.5,309.5 Z"/></g>
<g><path style="opacity:1" fill="#353534" d="M 455.5,305.5 C 456.167,310.5 456.833,315.5 457.5,320.5C 457.5,321.167 457.167,321.5 456.5,321.5C 455.883,321.389 455.383,321.056 455,320.5C 454.667,316.833 454.333,313.167 454,309.5C 453.5,309 453,308.5 452.5,308C 453.691,307.302 454.691,306.469 455.5,305.5 Z"/></g>
<g><path style="opacity:1" fill="#f4f4f3" d="M 470.5,312.5 C 469.85,312.804 469.183,313.137 468.5,313.5C 467.824,312.398 467.158,311.398 466.5,310.5C 466.47,309.503 466.97,308.836 468,308.5C 470.02,309.032 470.853,310.365 470.5,312.5 Z"/></g>
<g><path style="opacity:1" fill="#383838" d="M 243.5,308.5 C 243.5,309.833 243.5,311.167 243.5,312.5C 241.821,312.715 240.821,312.048 240.5,310.5C 241.222,309.449 242.222,308.782 243.5,308.5 Z"/></g>
<g><path style="opacity:1" fill="#4c4c4c" d="M 292.5,309.5 C 292.5,308.833 292.833,308.5 293.5,308.5C 295.975,309.687 296.975,311.687 296.5,314.5C 295.209,314.737 294.209,314.404 293.5,313.5C 293.768,311.901 293.434,310.568 292.5,309.5 Z"/></g>
<g><path style="opacity:1" fill="#343433" d="M 316.5,320.5 C 315.5,321.833 314.5,321.833 313.5,320.5C 313.5,316.833 313.5,313.167 313.5,309.5C 313.56,308.957 313.893,308.624 314.5,308.5C 315.167,312.647 315.834,316.647 316.5,320.5 Z"/></g>
<g><path style="opacity:1" fill="#808080" d="M 394.5,303.5 C 395.833,309.167 395.833,314.833 394.5,320.5C 394.5,317.5 394.5,314.5 394.5,311.5C 391.833,311.5 389.167,311.5 386.5,311.5C 386.5,310.833 386.5,310.167 386.5,309.5C 389.167,309.5 391.833,309.5 394.5,309.5C 394.5,307.5 394.5,305.5 394.5,303.5 Z"/></g>
<g><path style="opacity:1" fill="#f3f2f0" d="M 438.5,309.5 C 439.58,312.743 439.747,316.076 439,319.5C 438.617,320.056 438.117,320.389 437.5,320.5C 436.504,320.586 435.671,320.252 435,319.5C 434.333,316.5 434.333,313.5 435,310.5C 436.011,309.663 437.178,309.33 438.5,309.5 Z"/></g>
<g><path style="opacity:1" fill="#353534" d="M 466.5,310.5 C 466.5,311.833 465.833,312.5 464.5,312.5C 463.662,312.158 463.328,311.492 463.5,310.5C 464.5,309.167 465.5,309.167 466.5,310.5 Z"/></g>
<g><path style="opacity:1" fill="#3c3c3c" d="M 173.5,303.5 C 173.833,303.5 174.167,303.5 174.5,303.5C 174.261,305.467 174.594,307.301 175.5,309C 179.191,309.836 182.524,311.336 185.5,313.5C 186.742,315.389 186.742,317.389 185.5,319.5C 184.833,318.167 184.167,316.833 183.5,315.5C 180.6,313.465 177.434,311.799 174,310.5C 172.402,308.105 172.236,305.772 173.5,303.5 Z"/></g>
<g><path style="opacity:1" fill="#6e6e6e" d="M 200.5,320.5 C 199.676,316.688 199.176,312.688 199,308.5C 198.821,312.025 198.321,315.359 197.5,318.5C 197.5,318.167 197.5,317.833 197.5,317.5C 197.74,314.421 197.407,311.421 196.5,308.5C 197.689,307.571 199.022,307.238 200.5,307.5C 200.5,311.833 200.5,316.167 200.5,320.5 Z"/></g>
<g><path style="opacity:1" fill="#5c5c5c" d="M 207.5,308.5 C 206.51,314.645 206.177,320.978 206.5,327.5C 205.508,327.672 204.842,327.338 204.5,326.5C 205.164,323.854 205.498,321.021 205.5,318C 205.405,314.636 204.738,311.469 203.5,308.5C 204.958,307.218 206.292,307.218 207.5,308.5 Z"/></g>
<g><path style="opacity:1" fill="#272727" d="M 207.5,308.5 C 207.187,312.042 207.521,315.375 208.5,318.5C 208.5,318.833 208.5,319.167 208.5,319.5C 207.244,321.941 207.244,324.274 208.5,326.5C 208.158,327.338 207.492,327.672 206.5,327.5C 206.177,320.978 206.51,314.645 207.5,308.5 Z"/></g>
<g><path style="opacity:1" fill="#bdbdbc" d="M 258.5,309.5 C 261.313,309.548 263.979,310.215 266.5,311.5C 267.797,313.973 267.797,316.307 266.5,318.5C 266.66,316.801 266.494,315.134 266,313.5C 263.583,311.872 261.083,310.539 258.5,309.5 Z"/></g>
<g><path style="opacity:1" fill="#777776" d="M 311.5,307.5 C 313.167,307.5 314.833,307.5 316.5,307.5C 316.5,311.833 316.5,316.167 316.5,320.5C 315.834,316.647 315.167,312.647 314.5,308.5C 313.893,308.624 313.56,308.957 313.5,309.5C 312.167,309.5 311.5,308.833 311.5,307.5 Z"/></g>
<g><path style="opacity:1" fill="#373736" d="M 321.5,309.5 C 322.167,309.833 322.833,310.167 323.5,310.5C 323.5,311.833 322.833,312.5 321.5,312.5C 320.167,311.5 320.167,310.5 321.5,309.5 Z"/></g>
<g><path style="opacity:1" fill="#6f6f6e" d="M 339.5,320.5 C 338.5,321.833 337.5,321.833 336.5,320.5C 336.5,314.833 336.5,309.167 336.5,303.5C 335.624,303.631 334.957,303.298 334.5,302.5C 336.045,301.548 337.712,301.215 339.5,301.5C 339.5,307.833 339.5,314.167 339.5,320.5 Z"/></g>
<g><path style="opacity:1" fill="#1e1e1c" d="M 336.5,303.5 C 336.56,302.957 336.893,302.624 337.5,302.5C 338.664,308.472 338.83,314.472 338,320.5C 337.827,314.652 337.327,308.985 336.5,303.5 Z"/></g>
<g><path style="opacity:1" fill="#41413f" d="M 347.5,309.5 C 347.5,313.167 347.5,316.833 347.5,320.5C 346.5,321.833 345.5,321.833 344.5,320.5C 344.5,316.5 344.5,312.5 344.5,308.5C 345.791,308.263 346.791,308.596 347.5,309.5 Z"/></g>
<g><path style="opacity:1" fill="#353534" d="M 353.5,304.5 C 354.167,309.833 354.833,315.167 355.5,320.5C 355.158,321.338 354.492,321.672 353.5,321.5C 352.833,321.5 352.5,321.167 352.5,320.5C 352.354,315.622 352.354,310.956 352.5,306.5C 353.338,306.158 353.672,305.492 353.5,304.5 Z"/></g>
<g><path style="opacity:1" fill="#8e8e8e" d="M 367.5,320.5 C 367.567,319.041 367.234,317.708 366.5,316.5C 367.931,316.119 368.764,315.119 369,313.5C 369.743,311.559 369.576,309.726 368.5,308C 370.259,307.202 371.926,307.369 373.5,308.5C 371.47,312.561 369.47,316.561 367.5,320.5 Z"/></g>
<g><path style="opacity:1" fill="#393939" d="M 394.5,303.5 C 395.209,302.596 396.209,302.263 397.5,302.5C 397.5,308.833 397.5,315.167 397.5,321.5C 396.209,321.737 395.209,321.404 394.5,320.5C 395.833,314.833 395.833,309.167 394.5,303.5 Z"/></g>
<g><path style="opacity:1" fill="#3e3e3e" d="M 403.5,310.5 C 404.167,313.5 404.833,316.5 405.5,319.5C 405.5,320.167 405.167,320.5 404.5,320.5C 401.021,317.448 400.687,314.114 403.5,310.5 Z"/></g>
<g><path style="opacity:1" fill="#2e2e2e" d="M 235.5,308.5 C 236.8,310.223 237.467,312.39 237.5,315C 237.167,317.167 236.833,319.333 236.5,321.5C 235.508,317.217 235.174,312.884 235.5,308.5 Z"/></g>
<g><path style="opacity:1" fill="#3d3d3b" d="M 255.5,302.5 C 256.167,302.5 256.5,302.833 256.5,303.5C 255.387,304.946 255.22,306.613 256,308.5C 256.671,309.252 257.504,309.586 258.5,309.5C 261.083,310.539 263.583,311.872 266,313.5C 266.494,315.134 266.66,316.801 266.5,318.5C 266.5,318.833 266.5,319.167 266.5,319.5C 265.833,318.5 265.167,317.5 264.5,316.5C 261.227,314.093 257.727,311.759 254,309.5C 253.333,307.5 253.333,305.5 254,303.5C 254.383,302.944 254.883,302.611 255.5,302.5 Z"/></g>
<g><path style="opacity:1" fill="#6e6d6c" d="M 449.5,320.5 C 448.676,316.688 448.176,312.688 448,308.5C 447.824,312.688 447.324,316.688 446.5,320.5C 446.766,316.429 446.433,312.429 445.5,308.5C 446.689,307.571 448.022,307.238 449.5,307.5C 449.5,311.833 449.5,316.167 449.5,320.5 Z"/></g>
<g><path style="opacity:1" fill="#232322" d="M 449.5,320.5 C 448.5,321.833 447.5,321.833 446.5,320.5C 447.324,316.688 447.824,312.688 448,308.5C 448.176,312.688 448.676,316.688 449.5,320.5 Z"/></g>
<g><path style="opacity:1" fill="#3c3c3a" d="M 472.5,309.5 C 473.167,313.167 473.833,316.833 474.5,320.5C 473.791,321.404 472.791,321.737 471.5,321.5C 471.5,321.167 471.5,320.833 471.5,320.5C 471.721,317.721 471.388,315.054 470.5,312.5C 471.167,311.5 471.833,310.5 472.5,309.5 Z"/></g>
<g><path style="opacity:1" fill="#b6b6b5" d="M 481.5,302.5 C 479.853,308.265 478.853,314.265 478.5,320.5C 478.79,314.439 478.457,308.439 477.5,302.5C 478.958,301.218 480.292,301.218 481.5,302.5 Z"/></g>
<g><path style="opacity:1" fill="#ababaa" d="M 481.5,302.5 C 481.913,308.862 482.913,315.195 484.5,321.5C 482.167,322.833 479.833,322.833 477.5,321.5C 477.624,320.893 477.957,320.56 478.5,320.5C 479.209,321.404 480.209,321.737 481.5,321.5C 481.5,315.167 481.5,308.833 481.5,302.5 Z"/></g>
<g><path style="opacity:1" fill="#4b4b4b" d="M 229.5,309.5 C 231.213,310.635 231.88,312.302 231.5,314.5C 230.209,314.737 229.209,314.404 228.5,313.5C 228.5,312.5 228.5,311.5 228.5,310.5C 228.5,309.833 228.833,309.5 229.5,309.5 Z"/></g>
<g><path style="opacity:1" fill="#3b3b3c" d="M 309.5,309.5 C 309.5,310.833 309.5,312.167 309.5,313.5C 308.5,313.5 307.5,313.5 306.5,313.5C 307.917,308.461 306.417,307.461 302,310.5C 301.163,314.148 301.663,317.481 303.5,320.5C 303.5,321.167 303.167,321.5 302.5,321.5C 298.35,318.287 297.517,314.287 300,309.5C 303.164,306.888 306.331,306.888 309.5,309.5 Z"/></g>
<g><path style="opacity:1" fill="#959594" d="M 327.5,309.5 C 328.482,312.962 328.815,316.629 328.5,320.5C 326.523,322.188 324.523,322.521 322.5,321.5C 323.167,321.5 323.5,321.167 323.5,320.5C 327.225,320.22 328.392,318.22 327,314.5C 326.329,315.252 325.496,315.586 324.5,315.5C 324.5,314.833 324.167,314.5 323.5,314.5C 322.833,313.833 322.167,313.167 321.5,312.5C 322.833,312.5 323.5,311.833 323.5,310.5C 325.507,314.515 326.84,314.182 327.5,309.5 Z"/></g>
<g><path style="opacity:1" fill="#7b7b7b" d="M 410.5,308.5 C 410.5,308.833 410.5,309.167 410.5,309.5C 409.198,308.193 407.865,308.193 406.5,309.5C 405.513,312.768 405.18,316.102 405.5,319.5C 404.833,316.5 404.167,313.5 403.5,310.5C 405.265,307.551 407.598,306.885 410.5,308.5 Z"/></g>
<g><path style="opacity:1" fill="#303030" d="M 481.5,302.5 C 481.5,308.833 481.5,315.167 481.5,321.5C 480.209,321.737 479.209,321.404 478.5,320.5C 478.853,314.265 479.853,308.265 481.5,302.5 Z"/></g>
<g><path style="opacity:1" fill="#242424" d="M 200.5,320.5 C 198.668,321.718 197.668,321.051 197.5,318.5C 198.321,315.359 198.821,312.025 199,308.5C 199.176,312.688 199.676,316.688 200.5,320.5 Z"/></g>
<g><path style="opacity:1" fill="#9c9c9c" d="M 229.5,309.5 C 228.833,309.5 228.5,309.833 228.5,310.5C 224.811,307.516 223.144,308.516 223.5,313.5C 225.167,313.5 226.833,313.5 228.5,313.5C 229.209,314.404 230.209,314.737 231.5,314.5C 229.052,315.473 226.385,315.806 223.5,315.5C 223.5,316.5 223.5,317.5 223.5,318.5C 222.833,315.5 222.167,312.5 221.5,309.5C 222.312,308.007 223.645,307.34 225.5,307.5C 227.355,307.34 228.688,308.007 229.5,309.5 Z"/></g>
<g><path style="opacity:1" fill="#7e7e7d" d="M 279.5,308.5 C 278.833,308.5 278.5,308.833 278.5,309.5C 277.022,309.238 275.689,309.571 274.5,310.5C 273.626,312.747 273.292,315.08 273.5,317.5C 272.523,314.713 272.19,311.713 272.5,308.5C 274.979,307.377 277.312,307.377 279.5,308.5 Z"/></g>
<g><path style="opacity:1" fill="#373736" d="M 286.5,309.5 C 287.167,312.5 287.833,315.5 288.5,318.5C 288.5,319.833 289.167,320.5 290.5,320.5C 289.791,321.404 288.791,321.737 287.5,321.5C 284.073,317.647 283.739,313.647 286.5,309.5 Z"/></g>
<g><path style="opacity:1" fill="#9c9c9c" d="M 293.5,308.5 C 292.833,308.5 292.5,308.833 292.5,309.5C 289.099,308.227 287.766,309.56 288.5,313.5C 290.167,313.5 291.833,313.5 293.5,313.5C 294.209,314.404 295.209,314.737 296.5,314.5C 294.052,315.473 291.385,315.806 288.5,315.5C 288.5,316.5 288.5,317.5 288.5,318.5C 287.833,315.5 287.167,312.5 286.5,309.5C 288.655,307.466 290.988,307.133 293.5,308.5 Z"/></g>
<g><path style="opacity:1" fill="#393938" d="M 364.5,310.5 C 365.363,312.421 366.029,314.421 366.5,316.5C 367.234,317.708 367.567,319.041 367.5,320.5C 367.5,320.833 367.5,321.167 367.5,321.5C 366.833,321.167 366.167,320.833 365.5,320.5C 364.708,316.922 363.375,313.588 361.5,310.5C 361.369,309.624 361.702,308.957 362.5,308.5C 363.182,309.243 363.849,309.909 364.5,310.5 Z"/></g>
<g><path style="opacity:1" fill="#414141" d="M 410.5,308.5 C 415.743,312.753 415.743,317.087 410.5,321.5C 409.833,321.5 409.5,321.167 409.5,320.5C 411.715,317.097 412.048,313.43 410.5,309.5C 410.5,309.167 410.5,308.833 410.5,308.5 Z"/></g>
<g><path style="opacity:1" fill="#363636" d="M 419.5,311.5 C 421.934,312.985 424.267,314.652 426.5,316.5C 426.672,317.492 426.338,318.158 425.5,318.5C 422.871,316.837 420.204,315.171 417.5,313.5C 417.131,311.007 417.797,310.34 419.5,311.5 Z"/></g>
<g><path style="opacity:1" fill="#90908f" d="M 466.5,310.5 C 467.158,311.398 467.824,312.398 468.5,313.5C 469.183,313.137 469.85,312.804 470.5,312.5C 471.388,315.054 471.721,317.721 471.5,320.5C 469.844,321.146 468.177,321.813 466.5,322.5C 465.584,322.457 464.917,322.124 464.5,321.5C 465.492,321.672 466.158,321.338 466.5,320.5C 470.042,319.816 471.042,317.816 469.5,314.5C 468.817,314.863 468.15,315.196 467.5,315.5C 467.5,314.833 467.167,314.5 466.5,314.5C 465.833,313.833 465.167,313.167 464.5,312.5C 465.833,312.5 466.5,311.833 466.5,310.5 Z"/></g>
<g><path style="opacity:1" fill="#313131" d="M 192.5,308.5 C 192.183,312.702 192.517,316.702 193.5,320.5C 192.811,321.774 191.977,321.774 191,320.5C 190.833,318.5 190.667,316.5 190.5,314.5C 190.539,312.048 191.206,310.048 192.5,308.5 Z"/></g>
<g><path style="opacity:1" fill="#7c7c7c" d="M 214.5,308.5 C 213.833,308.5 213.5,308.833 213.5,309.5C 211.856,309.286 210.356,309.62 209,310.5C 208.503,313.146 208.336,315.813 208.5,318.5C 207.521,315.375 207.187,312.042 207.5,308.5C 209.979,307.377 212.312,307.377 214.5,308.5 Z"/></g>
<g><path style="opacity:1" fill="#e4e4e3" d="M 323.5,320.5 C 322.235,318.643 322.568,316.976 324.5,315.5C 325.496,315.586 326.329,315.252 327,314.5C 328.392,318.22 327.225,320.22 323.5,320.5 Z"/></g>
<g><path style="opacity:1" fill="#ababaa" d="M 439.5,308.5 C 438.833,308.5 438.5,308.833 438.5,309.5C 437.178,309.33 436.011,309.663 435,310.5C 434.333,313.5 434.333,316.5 435,319.5C 435.671,320.252 436.504,320.586 437.5,320.5C 437.5,321.167 437.833,321.5 438.5,321.5C 437.001,322.494 435.334,322.494 433.5,321.5C 433.5,317.167 433.5,312.833 433.5,308.5C 435.611,307.258 437.611,307.258 439.5,308.5 Z"/></g>
<g><path style="opacity:1" fill="#e9e9e7" d="M 466.5,320.5 C 465.07,318.545 465.403,316.879 467.5,315.5C 468.15,315.196 468.817,314.863 469.5,314.5C 471.042,317.816 470.042,319.816 466.5,320.5 Z"/></g>
<g><path style="opacity:1" fill="#383838" d="M 221.5,309.5 C 222.167,312.5 222.833,315.5 223.5,318.5C 223.328,319.492 223.662,320.158 224.5,320.5C 224.158,321.338 223.492,321.672 222.5,321.5C 218.959,317.724 218.625,313.724 221.5,309.5 Z"/></g>
<g><path style="opacity:1" fill="#545453" d="M 270.5,309.5 C 271.49,315.31 271.823,321.31 271.5,327.5C 270.508,327.672 269.842,327.338 269.5,326.5C 270.489,321.025 270.822,315.358 270.5,309.5 Z"/></g>
<g><path style="opacity:1" fill="#363635" d="M 279.5,308.5 C 282.917,311.583 283.417,315.25 281,319.5C 280.292,320.381 279.458,321.047 278.5,321.5C 277.833,321.5 277.5,321.167 277.5,320.5C 278.117,320.389 278.617,320.056 279,319.5C 279.747,316.076 279.58,312.743 278.5,309.5C 278.5,308.833 278.833,308.5 279.5,308.5 Z"/></g>
<g><path style="opacity:1" fill="#313130" d="M 327.5,309.5 C 327.5,309.167 327.5,308.833 327.5,308.5C 328.167,308.5 328.833,308.5 329.5,308.5C 330.167,312.5 330.833,316.5 331.5,320.5C 330.652,321.625 329.652,321.625 328.5,320.5C 328.815,316.629 328.482,312.962 327.5,309.5 Z"/></g>
<g><path style="opacity:1" fill="#434342" d="M 466.5,314.5 C 467.167,314.5 467.5,314.833 467.5,315.5C 465.403,316.879 465.07,318.545 466.5,320.5C 466.158,321.338 465.492,321.672 464.5,321.5C 462.623,320.341 462.123,318.674 463,316.5C 463.816,315.177 464.983,314.511 466.5,314.5 Z"/></g>
<g><path style="opacity:1" fill="#3c3c3c" d="M 214.5,308.5 C 217.917,311.583 218.417,315.25 216,319.5C 215.292,320.381 214.458,321.047 213.5,321.5C 212.833,321.5 212.5,321.167 212.5,320.5C 213.117,320.389 213.617,320.056 214,319.5C 214.747,316.076 214.58,312.743 213.5,309.5C 213.5,308.833 213.833,308.5 214.5,308.5 Z"/></g>
<g><path style="opacity:1" fill="#474747" d="M 255.5,318.5 C 255.167,319.167 254.833,319.833 254.5,320.5C 253.378,318.712 253.211,316.712 254,314.5C 254.791,315.745 255.291,317.078 255.5,318.5 Z"/></g>
<g><path style="opacity:1" fill="#343432" d="M 323.5,314.5 C 324.167,314.5 324.5,314.833 324.5,315.5C 322.568,316.976 322.235,318.643 323.5,320.5C 323.5,321.167 323.167,321.5 322.5,321.5C 319.642,318.786 319.976,316.452 323.5,314.5 Z"/></g>
<g><path style="opacity:1" fill="#949493" d="M 355.5,320.5 C 354.833,315.167 354.167,309.833 353.5,304.5C 353.369,303.624 353.702,302.957 354.5,302.5C 355.08,304.637 356.08,306.47 357.5,308C 355.611,311.836 354.945,316.003 355.5,320.5 Z"/></g>
<g><path style="opacity:1" fill="#888888" d="M 425.5,318.5 C 426.338,318.158 426.672,317.492 426.5,316.5C 427.712,318.264 427.379,319.93 425.5,321.5C 422.549,322.357 419.549,322.357 416.5,321.5C 416.215,319.712 416.548,318.045 417.5,316.5C 418.791,319.812 421.125,320.979 424.5,320C 425.056,319.617 425.389,319.117 425.5,318.5 Z"/></g>
<g><path style="opacity:1" fill="#383735" d="M 439.5,308.5 C 442.917,311.583 443.417,315.25 441,319.5C 440.292,320.381 439.458,321.047 438.5,321.5C 437.833,321.5 437.5,321.167 437.5,320.5C 438.117,320.389 438.617,320.056 439,319.5C 439.747,316.076 439.58,312.743 438.5,309.5C 438.5,308.833 438.833,308.5 439.5,308.5 Z"/></g>
<g><path style="opacity:1" fill="#ac7592" d="M 59.5,317.5 C 61.0269,317.427 62.0269,318.094 62.5,319.5C 60.9731,319.573 59.9731,318.906 59.5,317.5 Z"/></g>
<g><path style="opacity:1" fill="#343332" d="M 433.5,308.5 C 433.5,312.833 433.5,317.167 433.5,321.5C 433.216,323.415 433.549,325.081 434.5,326.5C 433.167,327.833 431.833,327.833 430.5,326.5C 430.853,320.265 431.853,314.265 433.5,308.5 Z"/></g>
<g><path style="opacity:1" fill="#969696" d="M 192.5,308.5 C 191.206,310.048 190.539,312.048 190.5,314.5C 190.667,316.5 190.833,318.5 191,320.5C 191.977,321.774 192.811,321.774 193.5,320.5C 195.43,320.229 196.764,319.229 197.5,317.5C 197.5,317.833 197.5,318.167 197.5,318.5C 197.668,321.051 198.668,321.718 200.5,320.5C 203.152,321.294 202.985,321.96 200,322.5C 196.66,322.299 193.326,321.966 190,321.5C 189.774,317.113 189.274,312.779 188.5,308.5C 189.958,307.218 191.292,307.218 192.5,308.5 Z"/></g>
<g><path style="opacity:1" fill="#909090" d="M 287.5,321.5 C 288.791,321.737 289.791,321.404 290.5,320.5C 292.903,320.607 294.736,319.607 296,317.5C 296.379,319.57 295.545,321.07 293.5,322C 291.288,322.789 289.288,322.622 287.5,321.5 Z"/></g>
<g><path style="opacity:1" fill="#939393" d="M 309.5,320.5 C 307.304,322.545 304.97,322.878 302.5,321.5C 303.167,321.5 303.5,321.167 303.5,320.5C 304.873,320.657 306.207,320.49 307.5,320C 309.698,316.723 310.364,316.89 309.5,320.5 Z"/></g>
<g><path style="opacity:1" fill="#a4a4a4" d="M 313.5,320.5 C 314.5,321.833 315.5,321.833 316.5,320.5C 317.376,320.369 318.043,320.702 318.5,321.5C 316.257,322.474 313.924,322.808 311.5,322.5C 311.5,321.167 312.167,320.5 313.5,320.5 Z"/></g>
<g><path style="opacity:1" fill="#e6cedc" d="M 107.5,319.5 C 107.611,320.117 107.944,320.617 108.5,321C 105.415,321.622 102.915,323.122 101,325.5C 99.9887,324.663 98.8221,324.33 97.5,324.5C 100.515,322.326 103.849,320.659 107.5,319.5 Z"/></g>
<g><path style="opacity:1" fill="#828282" d="M 183.5,315.5 C 184.167,316.833 184.833,318.167 185.5,319.5C 182.264,323.101 178.597,323.434 174.5,320.5C 173.914,320.709 173.414,321.043 173,321.5C 171.75,312.996 172.917,312.496 176.5,320C 178.81,320.497 181.143,320.663 183.5,320.5C 183.5,318.833 183.5,317.167 183.5,315.5 Z"/></g>
<g><path style="opacity:1" fill="#818181" d="M 208.5,319.5 C 209.708,320.234 211.041,320.567 212.5,320.5C 212.5,321.167 212.833,321.5 213.5,321.5C 212.328,322.705 210.995,322.705 209.5,321.5C 208.548,323.045 208.215,324.712 208.5,326.5C 207.244,324.274 207.244,321.941 208.5,319.5 Z"/></g>
<g><path style="opacity:1" fill="#919191" d="M 222.5,321.5 C 223.492,321.672 224.158,321.338 224.5,320.5C 227.278,320.978 229.278,319.978 230.5,317.5C 231.731,318.651 231.731,319.817 230.5,321C 227.773,322.636 225.107,322.802 222.5,321.5 Z"/></g>
<g><path style="opacity:1" fill="#848484" d="M 264.5,316.5 C 265.167,317.5 265.833,318.5 266.5,319.5C 265.102,321.533 263.102,322.533 260.5,322.5C 258.307,322.281 256.307,321.615 254.5,320.5C 254.833,319.833 255.167,319.167 255.5,318.5C 257.836,320.391 260.502,320.891 263.5,320C 264.337,318.989 264.67,317.822 264.5,316.5 Z"/></g>
<g><path style="opacity:1" fill="#989898" d="M 328.5,320.5 C 329.652,321.625 330.652,321.625 331.5,320.5C 332.222,320.082 332.722,319.416 333,318.5C 333.915,320.92 333.082,322.253 330.5,322.5C 329.287,322.253 328.62,321.586 328.5,320.5 Z"/></g>
<g><path style="opacity:1" fill="#a7a7a7" d="M 336.5,320.5 C 337.5,321.833 338.5,321.833 339.5,320.5C 340.833,320.5 342.167,320.5 343.5,320.5C 343.833,320.5 344.167,320.5 344.5,320.5C 345.5,321.833 346.5,321.833 347.5,320.5C 348.376,320.369 349.043,320.702 349.5,321.5C 344.5,322.833 339.5,322.833 334.5,321.5C 334.957,320.702 335.624,320.369 336.5,320.5 Z"/></g>
<g><path style="opacity:1" fill="#929292" d="M 353.5,321.5 C 354.492,321.672 355.158,321.338 355.5,320.5C 356.158,319.602 356.824,318.602 357.5,317.5C 358.833,318.833 358.833,320.167 357.5,321.5C 356.005,322.705 354.672,322.705 353.5,321.5 Z"/></g>
<g><path style="opacity:1" fill="#a5a5a5" d="M 383.5,320.5 C 384.5,321.833 385.5,321.833 386.5,320.5C 387.376,320.369 388.043,320.702 388.5,321.5C 385.833,322.833 383.167,322.833 380.5,321.5C 381.325,320.614 382.325,320.281 383.5,320.5 Z"/></g>
<g><path style="opacity:1" fill="#959595" d="M 405.5,319.5 C 406.708,320.234 408.041,320.567 409.5,320.5C 409.5,321.167 409.833,321.5 410.5,321.5C 409.903,322.139 409.07,322.472 408,322.5C 406.301,322.613 405.134,321.947 404.5,320.5C 405.167,320.5 405.5,320.167 405.5,319.5 Z"/></g>
<g><path style="opacity:1" fill="#a3a3a3" d="M 446.5,320.5 C 447.5,321.833 448.5,321.833 449.5,320.5C 450.376,320.369 451.043,320.702 451.5,321.5C 449.167,322.833 446.833,322.833 444.5,321.5C 444.957,320.702 445.624,320.369 446.5,320.5 Z"/></g>
<g><path style="opacity:1" fill="#8e8e8e" d="M 456.5,321.5 C 457.167,321.5 457.5,321.167 457.5,320.5C 458.79,319.942 459.623,318.942 460,317.5C 461.16,321.501 459.994,322.835 456.5,321.5 Z"/></g>
<g><path style="opacity:1" fill="#999999" d="M 471.5,321.5 C 472.791,321.737 473.791,321.404 474.5,320.5C 475.222,320.082 475.722,319.416 476,318.5C 476.684,319.784 476.517,320.951 475.5,322C 473.934,322.765 472.601,322.598 471.5,321.5 Z"/></g>
<g><path style="opacity:1" fill="#848484" d="M 433.5,308.5 C 431.853,314.265 430.853,320.265 430.5,326.5C 430.81,320.242 430.476,314.076 429.5,308C 431.066,307.235 432.399,307.402 433.5,308.5 Z"/></g>
<g><path style="opacity:1" fill="#787878" d="M 273.5,319.5 C 274.708,320.234 276.041,320.567 277.5,320.5C 277.5,321.167 277.833,321.5 278.5,321.5C 277.328,322.705 275.995,322.705 274.5,321.5C 273.212,323.299 273.212,324.965 274.5,326.5C 274.158,327.338 273.492,327.672 272.5,327.5C 272.279,324.721 272.612,322.054 273.5,319.5 Z"/></g>
<g><path style="opacity:1" fill="#252524" d="M 270.5,309.5 C 270.842,308.662 271.508,308.328 272.5,308.5C 272.19,311.713 272.523,314.713 273.5,317.5C 273.5,318.167 273.5,318.833 273.5,319.5C 272.612,322.054 272.279,324.721 272.5,327.5C 272.167,327.5 271.833,327.5 271.5,327.5C 271.823,321.31 271.49,315.31 270.5,309.5 Z"/></g>
<g><path style="opacity:1" fill="#a1a1a1" d="M 365.5,320.5 C 366.167,320.833 366.833,321.167 367.5,321.5C 367.373,326.657 365.04,328.657 360.5,327.5C 361.674,326.486 362.34,325.153 362.5,323.5C 363.222,323.918 363.722,324.584 364,325.5C 365.269,324.095 365.769,322.429 365.5,320.5 Z"/></g>
<g><path style="opacity:1" fill="#3c3c3c" d="M 362.5,323.5 C 362.34,325.153 361.674,326.486 360.5,327.5C 359.566,326.432 359.232,325.099 359.5,323.5C 360.5,323.5 361.5,323.5 362.5,323.5 Z"/></g>
<g><path style="opacity:1" fill="#aeaeae" d="M 204.5,326.5 C 204.842,327.338 205.508,327.672 206.5,327.5C 207.492,327.672 208.158,327.338 208.5,326.5C 209.376,326.369 210.043,326.702 210.5,327.5C 208.167,328.833 205.833,328.833 203.5,327.5C 203.624,326.893 203.957,326.56 204.5,326.5 Z"/></g>
<g><path style="opacity:1" fill="#b3b3b3" d="M 269.5,326.5 C 269.842,327.338 270.508,327.672 271.5,327.5C 271.833,327.5 272.167,327.5 272.5,327.5C 273.492,327.672 274.158,327.338 274.5,326.5C 275.043,326.56 275.376,326.893 275.5,327.5C 273.167,328.833 270.833,328.833 268.5,327.5C 268.624,326.893 268.957,326.56 269.5,326.5 Z"/></g>
<g><path style="opacity:1" fill="#afafaf" d="M 430.5,326.5 C 431.833,327.833 433.167,327.833 434.5,326.5C 435.043,326.56 435.376,326.893 435.5,327.5C 433.167,328.833 430.833,328.833 428.5,327.5C 428.957,326.702 429.624,326.369 430.5,326.5 Z"/></g>
</svg>
