<?xml version="1.0" encoding="UTF-8"?>
<!DOCTYPE svg PUBLIC "-//W3C//DTD SVG 1.1//EN" "http://www.w3.org/Graphics/SVG/1.1/DTD/svg11.dtd">
<svg xmlns="http://www.w3.org/2000/svg" version="1.1" width="325px" height="325px" style="shape-rendering:geometricPrecision; text-rendering:geometricPrecision; image-rendering:optimizeQuality; fill-rule:evenodd; clip-rule:evenodd" xmlns:xlink="http://www.w3.org/1999/xlink">
<g><path style="opacity:1" fill="#fcfcfc" d="M -0.5,-0.5 C 107.833,-0.5 216.167,-0.5 324.5,-0.5C 324.5,107.833 324.5,216.167 324.5,324.5C 216.167,324.5 107.833,324.5 -0.5,324.5C -0.5,216.167 -0.5,107.833 -0.5,-0.5 Z"/></g>
<g><path style="opacity:1" fill="#283a6f" d="M 143.5,79.5 C 143.662,81.5273 143.495,83.5273 143,85.5C 137.86,91.4002 135.36,98.0668 135.5,105.5C 134.236,105.64 133.069,105.64 132,105.5C 130.872,107.345 130.372,109.345 130.5,111.5C 129.5,111.5 128.5,111.5 127.5,111.5C 132.341,100.485 137.674,89.8179 143.5,79.5 Z"/></g>
<g><path style="opacity:1" fill="#0a2b71" d="M 244.5,201.5 C 235.833,201.5 227.167,201.5 218.5,201.5C 217.533,195.893 215.7,190.56 213,185.5C 212.114,182.907 210.614,180.907 208.5,179.5C 207.662,179.158 207.328,178.492 207.5,177.5C 207.66,175.801 207.494,174.134 207,172.5C 205.456,169.068 203.789,165.734 202,162.5C 201.023,160.26 200.523,157.927 200.5,155.5C 202.167,155.5 203.833,155.5 205.5,155.5C 205.216,152.746 204.549,150.08 203.5,147.5C 202.813,149.555 201.646,151.221 200,152.5C 197.393,149.151 194.559,146.151 191.5,143.5C 183.376,124.584 174.709,105.918 165.5,87.5C 147.501,125.499 129.501,163.499 111.5,201.5C 102.651,201.826 93.9839,201.493 85.5,200.5C 99.2053,170.753 113.205,141.087 127.5,111.5C 128.5,111.5 129.5,111.5 130.5,111.5C 130.372,109.345 130.872,107.345 132,105.5C 133.069,105.64 134.236,105.64 135.5,105.5C 135.36,98.0668 137.86,91.4002 143,85.5C 143.495,83.5273 143.662,81.5273 143.5,79.5C 149.768,64.2942 156.601,49.2942 164,34.5C 164.667,33.1667 165.333,33.1667 166,34.5C 192.457,90.04 218.623,145.707 244.5,201.5 Z"/></g>
<g><path style="opacity:1" fill="#122e69" d="M 191.5,143.5 C 194.559,146.151 197.393,149.151 200,152.5C 201.646,151.221 202.813,149.555 203.5,147.5C 204.549,150.08 205.216,152.746 205.5,155.5C 203.833,155.5 202.167,155.5 200.5,155.5C 200.523,157.927 201.023,160.26 202,162.5C 203.789,165.734 205.456,169.068 207,172.5C 207.494,174.134 207.66,175.801 207.5,177.5C 201.996,166.36 196.663,155.026 191.5,143.5 Z"/></g>
<g><path style="opacity:1" fill="#253668" d="M 208.5,179.5 C 210.614,180.907 212.114,182.907 213,185.5C 215.7,190.56 217.533,195.893 218.5,201.5C 227.167,201.5 235.833,201.5 244.5,201.5C 235.682,202.493 226.682,202.827 217.5,202.5C 214.353,194.933 211.353,187.267 208.5,179.5 Z"/></g>
<g><path style="opacity:1" fill="#3c4b77" d="M 85.5,200.5 C 93.9839,201.493 102.651,201.826 111.5,201.5C 102.658,202.822 93.6582,202.822 84.5,201.5C 84.6236,200.893 84.9569,200.56 85.5,200.5 Z"/></g>
<g><path style="opacity:1" fill="#20355e" d="M 197.5,226.5 C 207.916,229.896 210.416,236.562 205,246.5C 202.413,248.196 199.579,249.196 196.5,249.5C 194.167,249.5 191.833,249.5 189.5,249.5C 189.5,241.833 189.5,234.167 189.5,226.5C 192.167,226.5 194.833,226.5 197.5,226.5 Z"/></g>
<g><path style="opacity:1" fill="#273c66" d="M 251.5,225.5 C 254.24,230.892 257.074,236.225 260,241.5C 262.667,236.167 265.333,230.833 268,225.5C 270.613,232.922 272.447,240.588 273.5,248.5C 272.311,249.429 270.978,249.762 269.5,249.5C 269.246,245.061 268.412,240.728 267,236.5C 264.475,241.079 262.141,245.746 260,250.5C 257.651,245.802 255.318,241.136 253,236.5C 251.369,240.688 250.536,245.021 250.5,249.5C 249.167,249.5 247.833,249.5 246.5,249.5C 247.916,241.418 249.583,233.418 251.5,225.5 Z"/></g>
<g><path style="opacity:1" fill="#aabaca" d="M 224.5,229.5 C 224.5,231.167 224.5,232.833 224.5,234.5C 227.713,234.19 230.713,234.523 233.5,235.5C 230.167,235.5 226.833,235.5 223.5,235.5C 223.205,233.265 223.539,231.265 224.5,229.5 Z"/></g>
<g><path style="opacity:1" fill="#293c5f" d="M 93.5,249.5 C 83.0757,252.79 76.7424,249.124 74.5,238.5C 74.7432,235.171 75.7432,232.171 77.5,229.5C 82.4981,225.074 87.9981,224.407 94,227.5C 94.7494,228.635 94.5827,229.635 93.5,230.5C 89.3039,227.746 85.3039,227.913 81.5,231C 76.1222,239.204 78.1222,244.704 87.5,247.5C 89.5683,247.033 91.5683,246.366 93.5,245.5C 94.782,246.958 94.782,248.292 93.5,249.5 Z"/></g>
<g><path style="opacity:1" fill="#193360" d="M 108.5,226.5 C 109.5,226.5 110.5,226.5 111.5,226.5C 111.5,234.167 111.5,241.833 111.5,249.5C 110.5,249.5 109.5,249.5 108.5,249.5C 108.5,241.833 108.5,234.167 108.5,226.5 Z"/></g>
<g><path style="opacity:1" fill="#74839b" d="M 197.5,226.5 C 194.833,226.5 192.167,226.5 189.5,226.5C 189.5,234.167 189.5,241.833 189.5,249.5C 191.833,249.5 194.167,249.5 196.5,249.5C 194.052,250.473 191.385,250.806 188.5,250.5C 188.5,242.167 188.5,233.833 188.5,225.5C 191.713,225.19 194.713,225.523 197.5,226.5 Z"/></g>
<g><path style="opacity:1" fill="#99a7bd" d="M 220.5,226.5 C 220.5,234.167 220.5,241.833 220.5,249.5C 224.833,249.5 229.167,249.5 233.5,249.5C 229.03,250.486 224.363,250.819 219.5,250.5C 219.174,242.316 219.508,234.316 220.5,226.5 Z"/></g>
<g><path style="opacity:1" fill="#58667e" d="M 135.5,226.5 C 133.5,226.5 131.5,226.5 129.5,226.5C 129.5,234.167 129.5,241.833 129.5,249.5C 129.167,249.5 128.833,249.5 128.5,249.5C 128.5,241.5 128.5,233.5 128.5,225.5C 131.059,225.198 133.393,225.532 135.5,226.5 Z"/></g>
<g><path style="opacity:1" fill="#1e3861" d="M 135.5,226.5 C 137.933,226.273 139.599,227.273 140.5,229.5C 138.833,233.938 139.666,237.605 143,240.5C 144.615,245.09 143.115,247.923 138.5,249C 135.518,249.498 132.518,249.665 129.5,249.5C 129.5,241.833 129.5,234.167 129.5,226.5C 131.5,226.5 133.5,226.5 135.5,226.5 Z"/></g>
<g><path style="opacity:1" fill="#e5ebf2" d="M 132.5,229.5 C 137.328,229.385 138.661,231.552 136.5,236C 135.207,236.49 133.873,236.657 132.5,236.5C 132.5,234.167 132.5,231.833 132.5,229.5 Z"/></g>
<g><path style="opacity:1" fill="#263c63" d="M 53.5,226.5 C 58.4739,233.1 62.4739,240.433 65.5,248.5C 64.1667,249.833 62.8333,249.833 61.5,248.5C 59.5272,243.221 57.0272,238.221 54,233.5C 51.5156,238.469 49.0156,243.469 46.5,248.5C 45.1667,249.833 43.8333,249.833 42.5,248.5C 46.1799,241.14 49.8466,233.807 53.5,226.5 Z"/></g>
<g><path style="opacity:1" fill="#757f8d" d="M 108.5,226.5 C 109.568,225.566 110.901,225.232 112.5,225.5C 112.5,233.833 112.5,242.167 112.5,250.5C 110.901,250.768 109.568,250.434 108.5,249.5C 109.5,249.5 110.5,249.5 111.5,249.5C 111.5,241.833 111.5,234.167 111.5,226.5C 110.5,226.5 109.5,226.5 108.5,226.5 Z"/></g>
<g><path style="opacity:1" fill="#f4f8f7" d="M 192.5,229.5 C 201.674,228.633 205.507,232.633 204,241.5C 201.377,245.903 197.543,247.569 192.5,246.5C 192.5,240.833 192.5,235.167 192.5,229.5 Z"/></g>
<g><path style="opacity:1" fill="#edf3f5" d="M 132.5,239.5 C 138.36,238.074 140.36,240.074 138.5,245.5C 136.591,246.348 134.591,246.682 132.5,246.5C 132.5,244.167 132.5,241.833 132.5,239.5 Z"/></g>
<g><path style="opacity:1" fill="#d4dee6" d="M 140.5,229.5 C 141.166,232.028 141.832,234.694 142.5,237.5C 144.226,239.439 145.893,241.273 147.5,243C 146.384,247.116 143.718,249.449 139.5,250C 135.642,250.81 131.976,250.643 128.5,249.5C 128.833,249.5 129.167,249.5 129.5,249.5C 132.518,249.665 135.518,249.498 138.5,249C 143.115,247.923 144.615,245.09 143,240.5C 139.666,237.605 138.833,233.938 140.5,229.5 Z"/></g>
<g><path style="opacity:1" fill="#263860" d="M 164.5,225.5 C 168.852,232.812 172.852,240.479 176.5,248.5C 175.167,249.833 173.833,249.833 172.5,248.5C 170,243.5 167.5,238.5 165,233.5C 162.033,238.211 159.533,243.211 157.5,248.5C 156.167,249.833 154.833,249.833 153.5,248.5C 157.453,240.929 161.12,233.262 164.5,225.5 Z"/></g>
<g><path style="opacity:1" fill="#1d315c" d="M 220.5,226.5 C 224.833,226.5 229.167,226.5 233.5,226.5C 233.5,227.5 233.5,228.5 233.5,229.5C 230.5,229.5 227.5,229.5 224.5,229.5C 223.539,231.265 223.205,233.265 223.5,235.5C 226.833,235.5 230.167,235.5 233.5,235.5C 233.5,236.5 233.5,237.5 233.5,238.5C 230.167,238.5 226.833,238.5 223.5,238.5C 223.5,241.167 223.5,243.833 223.5,246.5C 226.833,246.5 230.167,246.5 233.5,246.5C 233.5,247.5 233.5,248.5 233.5,249.5C 229.167,249.5 224.833,249.5 220.5,249.5C 220.5,241.833 220.5,234.167 220.5,226.5 Z"/></g>
<g><path style="opacity:1" fill="#141f39" d="M 117.5,264.5 C 118.614,272.046 118.614,273.713 117.5,269.5C 115.833,269.5 114.167,269.5 112.5,269.5C 111.167,269.167 111.167,268.833 112.5,268.5C 114.167,268.5 115.833,268.5 117.5,268.5C 117.5,267.167 117.5,265.833 117.5,264.5 Z"/></g>
<g><path style="opacity:1" fill="#3e435a" d="M 51.5,270.5 C 52.494,272.334 52.494,274.001 51.5,275.5C 50.9096,272.715 49.5763,270.381 47.5,268.5C 46.5256,271.296 44.8589,273.129 42.5,274C 43.9607,270.268 45.7941,266.768 48,263.5C 49.1799,265.86 50.3466,268.193 51.5,270.5 Z"/></g>
<g><path style="opacity:1" fill="#29334a" d="M 187.5,264.5 C 193.555,263.942 194.888,266.109 191.5,271C 194.046,276.762 193.379,276.928 189.5,271.5C 188.749,272.376 188.249,273.376 188,274.5C 187.502,271.183 187.335,267.85 187.5,264.5 Z"/></g>
<g><path style="opacity:1" fill="#adbbd0" d="M 188.5,265.5 C 189.5,265.5 190.5,265.5 191.5,265.5C 191.5,266.833 191.5,268.167 191.5,269.5C 190.5,269.5 189.5,269.5 188.5,269.5C 188.5,268.167 188.5,266.833 188.5,265.5 Z"/></g>
<g><path style="opacity:1" fill="#262f45" d="M 202.5,265.5 C 200.833,265.5 199.167,265.5 197.5,265.5C 197.5,266.5 197.5,267.5 197.5,268.5C 202.833,268.833 202.833,269.167 197.5,269.5C 197.232,271.099 197.566,272.432 198.5,273.5C 199.978,273.238 201.311,273.571 202.5,274.5C 200.604,275.466 198.604,275.799 196.5,275.5C 196.5,271.833 196.5,268.167 196.5,264.5C 198.735,264.205 200.735,264.539 202.5,265.5 Z"/></g>
<g><path style="opacity:1" fill="#444a61" d="M 245.5,264.5 C 246.787,265.871 247.453,267.705 247.5,270C 247.167,271.833 246.833,273.667 246.5,275.5C 245.511,271.893 245.177,268.226 245.5,264.5 Z"/></g>
<g><path style="opacity:1" fill="#3a4356" d="M 101.5,268.5 C 104.363,271.397 103.863,273.731 100,275.5C 99.0979,275.257 98.2646,274.923 97.5,274.5C 96.4376,273.425 96.4376,272.425 97.5,271.5C 98.5237,272.853 99.857,273.52 101.5,273.5C 101.649,272.448 101.483,271.448 101,270.5C 96.7033,268.347 96.5366,266.013 100.5,263.5C 101.308,263.808 101.975,264.308 102.5,265C 97.7302,265.639 97.3969,266.805 101.5,268.5 Z"/></g>
<g><path style="opacity:1" fill="#333a54" d="M 121.5,264.5 C 123.527,264.338 125.527,264.505 127.5,265C 126.207,265.49 124.873,265.657 123.5,265.5C 123.5,266.5 123.5,267.5 123.5,268.5C 128.833,268.833 128.833,269.167 123.5,269.5C 123.5,270.833 123.5,272.167 123.5,273.5C 124.978,273.238 126.311,273.571 127.5,274.5C 125.604,275.466 123.604,275.799 121.5,275.5C 121.5,271.833 121.5,268.167 121.5,264.5 Z"/></g>
<g><path style="opacity:1" fill="#3e4558" d="M 146.5,265.5 C 148.288,264.378 150.288,264.211 152.5,265C 150.947,268.217 149.947,271.717 149.5,275.5C 149.104,271.737 148.104,268.403 146.5,265.5 Z"/></g>
<g><path style="opacity:1" fill="#43495c" d="M 168.5,263.5 C 174.989,264.484 174.989,265.318 168.5,266C 165.498,269.493 166.165,271.993 170.5,273.5C 172.935,271.721 173.935,272.387 173.5,275.5C 164.02,274.55 162.353,270.55 168.5,263.5 Z"/></g>
<g><path style="opacity:1" fill="#2d3749" d="M 266.5,269.5 C 264.833,269.5 263.167,269.5 261.5,269.5C 261.232,271.099 261.566,272.432 262.5,273.5C 263.978,273.238 265.311,273.571 266.5,274.5C 264.604,275.466 262.604,275.799 260.5,275.5C 260.5,271.833 260.5,268.167 260.5,264.5C 262.527,264.338 264.527,264.505 266.5,265C 264.866,265.494 263.199,265.66 261.5,265.5C 261.5,266.5 261.5,267.5 261.5,268.5C 263.415,268.216 265.081,268.549 266.5,269.5 Z"/></g>
<g><path style="opacity:1" fill="#384257" d="M 133.5,264.5 C 135.977,267.438 137.977,270.771 139.5,274.5C 139.167,274.833 138.833,275.167 138.5,275.5C 135.69,271.574 132.857,271.574 130,275.5C 130.451,271.645 131.618,267.978 133.5,264.5 Z"/></g>
<g><path style="opacity:1" fill="#141b36" d="M 141.5,264.5 C 142.477,267.287 142.81,270.287 142.5,273.5C 143.5,273.5 144.5,273.5 145.5,273.5C 144.432,274.434 143.099,274.768 141.5,274.5C 141.5,271.167 141.5,267.833 141.5,264.5 Z"/></g>
<g><path style="opacity:1" fill="#2a3347" d="M 224.5,265.5 C 222.833,265.5 221.167,265.5 219.5,265.5C 219.5,266.5 219.5,267.5 219.5,268.5C 224.833,268.833 224.833,269.167 219.5,269.5C 219.232,271.099 219.566,272.432 220.5,273.5C 221.978,273.238 223.311,273.571 224.5,274.5C 222.604,275.466 220.604,275.799 218.5,275.5C 218.5,271.833 218.5,268.167 218.5,264.5C 220.735,264.205 222.735,264.539 224.5,265.5 Z"/></g>
<g><path style="opacity:1" fill="#a5afbc" d="M 224.5,265.5 C 223.391,266.29 222.058,266.79 220.5,267C 221.793,267.49 223.127,267.657 224.5,267.5C 224.5,268.5 224.5,269.5 224.5,270.5C 223.167,270.5 221.833,270.5 220.5,270.5C 220.5,271.5 220.5,272.5 220.5,273.5C 219.566,272.432 219.232,271.099 219.5,269.5C 224.833,269.167 224.833,268.833 219.5,268.5C 219.5,267.5 219.5,266.5 219.5,265.5C 221.167,265.5 222.833,265.5 224.5,265.5 Z"/></g>
<g><path style="opacity:1" fill="#4d5263" d="M 253.5,263.5 C 255.665,263.116 257.332,263.783 258.5,265.5C 256.979,265.88 255.313,266.046 253.5,266C 250.366,271.248 252.033,273.915 258.5,274C 252.288,276.466 249.455,274.299 250,267.5C 250.69,265.65 251.856,264.316 253.5,263.5 Z"/></g>
<g><path style="opacity:1" fill="#8f9fbe" d="M 133.5,267.5 C 135.104,268.287 135.771,269.62 135.5,271.5C 134.325,271.719 133.325,271.386 132.5,270.5C 133.127,269.583 133.461,268.583 133.5,267.5 Z"/></g>
<g><path style="opacity:1" fill="#343c4c" d="M 65.5,263.5 C 66.7387,264.212 67.2387,265.212 67,266.5C 63.5762,264.733 61.4096,265.733 60.5,269.5C 60.5288,271.029 61.1955,272.196 62.5,273C 69.1673,274.321 69.1673,274.987 62.5,275C 59.9586,273.152 58.9586,270.652 59.5,267.5C 60.8021,265.178 62.8021,263.845 65.5,263.5 Z"/></g>
<g><path style="opacity:1" fill="#9ba5b4" d="M 117.5,264.5 C 117.56,263.957 117.893,263.624 118.5,263.5C 119.491,267.445 119.824,271.445 119.5,275.5C 118.5,275.5 117.5,275.5 116.5,275.5C 116.5,273.833 116.5,272.167 116.5,270.5C 115.167,270.5 113.833,270.5 112.5,270.5C 112.5,270.167 112.5,269.833 112.5,269.5C 114.167,269.5 115.833,269.5 117.5,269.5C 118.614,273.713 118.614,272.046 117.5,264.5 Z"/></g>
<g><path style="opacity:1" fill="#424b5d" d="M 154.5,264.5 C 156.176,265.183 156.843,266.517 156.5,268.5C 157.833,268.5 159.167,268.5 160.5,268.5C 160.238,267.022 160.571,265.689 161.5,264.5C 162.833,268.167 162.833,271.833 161.5,275.5C 160.548,273.955 160.215,272.288 160.5,270.5C 159.167,270.5 157.833,270.5 156.5,270.5C 156.785,272.288 156.452,273.955 155.5,275.5C 154.511,271.893 154.177,268.226 154.5,264.5 Z"/></g>
<g><path style="opacity:1" fill="#3f4c5f" d="M 226.5,264.5 C 232.555,263.942 233.888,266.109 230.5,271C 232.616,272.171 233.282,273.671 232.5,275.5C 231.52,274.019 230.353,272.685 229,271.5C 228.781,272.938 228.281,274.271 227.5,275.5C 226.511,271.893 226.177,268.226 226.5,264.5 Z"/></g>
<g><path style="opacity:1" fill="#c5d7e9" d="M 228.5,265.5 C 231.861,266.203 232.194,267.537 229.5,269.5C 228.571,268.311 228.238,266.978 228.5,265.5 Z"/></g>
<g><path style="opacity:1" fill="#47505d" d="M 112.5,268.5 C 111.167,268.833 111.167,269.167 112.5,269.5C 112.5,269.833 112.5,270.167 112.5,270.5C 111.755,277.068 111.088,276.902 110.5,270C 110.833,268.167 111.167,266.333 111.5,264.5C 112.429,265.689 112.762,267.022 112.5,268.5 Z"/></g>
<g><path style="opacity:1" fill="#353f53" d="M 179.5,264.5 C 180.458,264.953 181.292,265.619 182,266.5C 182.892,269.284 184.058,271.95 185.5,274.5C 185.167,274.833 184.833,275.167 184.5,275.5C 183.614,274.675 183.281,273.675 183.5,272.5C 180.348,272.047 177.848,273.047 176,275.5C 176.545,271.717 177.712,268.05 179.5,264.5 Z"/></g>
<g><path style="opacity:1" fill="#8ba0b3" d="M 179.5,267.5 C 181.104,268.287 181.771,269.62 181.5,271.5C 180.325,271.719 179.325,271.386 178.5,270.5C 179.127,269.583 179.461,268.583 179.5,267.5 Z"/></g>
<g><path style="opacity:1" fill="#a5b1c1" d="M 202.5,265.5 C 201.391,266.29 200.058,266.79 198.5,267C 199.793,267.49 201.127,267.657 202.5,267.5C 202.5,268.5 202.5,269.5 202.5,270.5C 201.167,270.5 199.833,270.5 198.5,270.5C 198.5,271.5 198.5,272.5 198.5,273.5C 197.566,272.432 197.232,271.099 197.5,269.5C 202.833,269.167 202.833,268.833 197.5,268.5C 197.5,267.5 197.5,266.5 197.5,265.5C 199.167,265.5 200.833,265.5 202.5,265.5 Z"/></g>
<g><path style="opacity:1" fill="#848e9c" d="M 266.5,269.5 C 265.432,270.434 264.099,270.768 262.5,270.5C 262.5,271.5 262.5,272.5 262.5,273.5C 261.566,272.432 261.232,271.099 261.5,269.5C 263.167,269.5 264.833,269.5 266.5,269.5 Z"/></g>
<g><path style="opacity:1" fill="#3b4154" d="M 211.5,263.5 C 213.346,263.222 214.68,263.889 215.5,265.5C 210.455,265.452 210.289,266.786 215,269.5C 216.583,274.1 215.083,275.934 210.5,275C 209.483,273.951 209.316,272.784 210,271.5C 211.11,273.037 212.61,273.703 214.5,273.5C 214.719,272.325 214.386,271.325 213.5,270.5C 209.148,269.119 208.482,266.786 211.5,263.5 Z"/></g>
<g><path style="opacity:1" fill="#30384e" d="M 234.5,264.5 C 236.686,265.823 238.186,267.823 239,270.5C 240.115,269 240.948,267.333 241.5,265.5C 242.167,264.167 242.833,264.167 243.5,265.5C 242.089,268.91 240.589,272.243 239,275.5C 237.201,271.93 235.701,268.263 234.5,264.5 Z"/></g>
<g><path style="opacity:1" fill="#434b58" d="M 270.5,263.5 C 273.166,263.066 274.333,264.066 274,266.5C 272.817,265.269 271.651,265.269 270.5,266.5C 271.381,267.971 272.714,268.804 274.5,269C 276.179,272.114 275.345,274.281 272,275.5C 269.474,274.872 268.641,273.539 269.5,271.5C 270.524,272.853 271.857,273.52 273.5,273.5C 273.338,271.176 272.172,269.509 270,268.5C 269.36,266.735 269.527,265.068 270.5,263.5 Z"/></g>
<g><path style="opacity:1" fill="#eef3f5" d="M 77.5,229.5 C 75.7432,232.171 74.7432,235.171 74.5,238.5C 76.7424,249.124 83.0757,252.79 93.5,249.5C 93.5,250.833 93.5,252.167 93.5,253.5C 94.5,253.5 95.5,253.5 96.5,253.5C 96.67,254.822 96.3366,255.989 95.5,257C 93.8333,257.333 92.1667,257.667 90.5,258C 89.1963,260.478 90.0296,261.978 93,262.5C 94.6458,260.859 95.6458,261.193 96,263.5C 98.3333,262.167 100.667,260.833 103,259.5C 103.273,261.329 104.107,262.829 105.5,264C 103.593,265.069 102.259,266.569 101.5,268.5C 97.3969,266.805 97.7302,265.639 102.5,265C 101.975,264.308 101.308,263.808 100.5,263.5C 96.5366,266.013 96.7033,268.347 101,270.5C 101.483,271.448 101.649,272.448 101.5,273.5C 99.857,273.52 98.5237,272.853 97.5,271.5C 96.4376,272.425 96.4376,273.425 97.5,274.5C 96.8485,275.091 96.1818,275.757 95.5,276.5C 95.407,275.528 95.0736,274.528 94.5,273.5C 94.6567,272.127 94.49,270.793 94,269.5C 89.2885,266.786 89.4552,265.452 94.5,265.5C 92.0024,262.746 90.0024,263.08 88.5,266.5C 89.5898,268.744 91.2564,270.578 93.5,272C 91.7227,274.152 90.2227,273.985 89,271.5C 88.5172,272.448 88.3505,273.448 88.5,274.5C 82.9175,275.574 77.2508,276.407 71.5,277C 69.3883,278.445 67.2216,278.278 65,276.5C 64.6667,277.167 64.3333,277.833 64,278.5C 60.1712,277.255 56.8379,275.255 54,272.5C 53.7811,273.938 53.2811,275.271 52.5,276.5C 51.8933,276.376 51.56,276.043 51.5,275.5C 52.494,274.001 52.494,272.334 51.5,270.5C 52.1174,270.389 52.6174,270.056 53,269.5C 54.0665,271.283 55.5665,271.783 57.5,271C 58.0848,269.698 58.7515,268.531 59.5,267.5C 58.9586,270.652 59.9586,273.152 62.5,275C 69.1673,274.987 69.1673,274.321 62.5,273C 61.1955,272.196 60.5288,271.029 60.5,269.5C 61.4096,265.733 63.5762,264.733 67,266.5C 67.2387,265.212 66.7387,264.212 65.5,263.5C 67.8333,262.167 70.1667,262.167 72.5,263.5C 72.2796,266.4 72.9462,269.067 74.5,271.5C 76.1112,270.68 76.7778,269.346 76.5,267.5C 77.5,267.5 78.5,267.5 79.5,267.5C 78.4059,269.612 77.4059,271.779 76.5,274C 78.049,273.656 79.7157,273.156 81.5,272.5C 83.2843,273.156 84.951,273.656 86.5,274C 85.0737,271.227 83.7404,268.393 82.5,265.5C 82.0431,264.702 81.3764,264.369 80.5,264.5C 83.7247,261.387 86.7247,258.221 89.5,255C 87.5,255 85.5,255 83.5,255C 84.1667,254.333 84.8333,253.667 85.5,253C 78.8612,251.357 74.5279,247.357 72.5,241C 72.6562,237.149 72.9895,233.315 73.5,229.5C 74.8333,229.5 76.1667,229.5 77.5,229.5 Z"/></g>
<g><path style="opacity:1" fill="#788092" d="M 70.5,264.5 C 70.5,267.833 70.5,271.167 70.5,274.5C 71.8333,274.5 73.1667,274.5 74.5,274.5C 73.0813,275.451 71.4147,275.784 69.5,275.5C 69.185,271.629 69.5184,267.962 70.5,264.5 Z"/></g>
<g><path style="opacity:1" fill="#313c56" d="M 80.5,264.5 C 81.3764,264.369 82.0431,264.702 82.5,265.5C 83.7404,268.393 85.0737,271.227 86.5,274C 84.951,273.656 83.2843,273.156 81.5,272.5C 79.7157,273.156 78.049,273.656 76.5,274C 77.4059,271.779 78.4059,269.612 79.5,267.5C 80.1098,266.609 80.4431,265.609 80.5,264.5 Z"/></g>
<g><path style="opacity:1" fill="#20293c" d="M 70.5,264.5 C 69.5184,267.962 69.185,271.629 69.5,275.5C 71.4147,275.784 73.0813,275.451 74.5,274.5C 73.1667,274.5 71.8333,274.5 70.5,274.5C 70.5,271.167 70.5,267.833 70.5,264.5 Z"/></g>
<g><path style="opacity:1" fill="#dbedfc" d="M 80.5,268.5 C 82.337,268.639 82.6704,269.306 81.5,270.5C 80.7025,270.043 80.3691,269.376 80.5,268.5 Z"/></g>
<g><path style="opacity:1" fill="#424b5f" d="M 94.5,273.5 C 92.9007,275.729 90.9007,276.062 88.5,274.5C 88.3505,273.448 88.5172,272.448 89,271.5C 90.2227,273.985 91.7227,274.152 93.5,272C 91.2564,270.578 89.5898,268.744 88.5,266.5C 90.0024,263.08 92.0024,262.746 94.5,265.5C 89.4552,265.452 89.2885,266.786 94,269.5C 94.49,270.793 94.6567,272.127 94.5,273.5 Z"/></g>
<g><path style="opacity:1" fill="#b1b9c2" d="M 141.5,264.5 C 141.5,267.833 141.5,271.167 141.5,274.5C 143.099,274.768 144.432,274.434 145.5,273.5C 146.043,273.56 146.376,273.893 146.5,274.5C 144.083,275.574 141.749,276.407 139.5,277C 140.14,272.732 140.807,268.565 141.5,264.5 Z"/></g>
</svg>
