<?xml version="1.0" encoding="UTF-8"?>
<svg version="1.1" xmlns="http://www.w3.org/2000/svg" width="325" height="325">
<path d="M0 0 C107.25 0 214.5 0 325 0 C325 107.25 325 214.5 325 325 C217.75 325 110.5 325 0 325 C0 217.75 0 110.5 0 0 Z " fill="#FCFDFD" transform="translate(0,0)"/>
<path d="M0 0 C2.77247189 1.38623594 3.10627322 3.0003296 4.3828125 5.8046875 C4.82753906 6.78050781 5.27226562 7.75632812 5.73046875 8.76171875 C6.19066406 9.78910156 6.65085937 10.81648438 7.125 11.875 C7.82689453 13.40447266 7.82689453 13.40447266 8.54296875 14.96484375 C12 22.61465926 12 22.61465926 12 26 C12.66 26 13.32 26 14 26 C14.37769531 26.91007812 14.75539063 27.82015625 15.14453125 28.7578125 C17.48318196 34.21238344 20.10510965 39.53287394 22.6875 44.875 C26.48815738 52.76345782 30.26940436 60.65917904 33.98217773 68.58935547 C37.32324171 75.71407715 40.73113472 82.80678182 44.14477539 89.89697266 C46.1457427 94.06519871 48.12331671 98.23597718 49.984375 102.46875 C52.36321716 107.87324941 54.9337605 113.1825365 57.5 118.5 C58.01755859 119.57572266 58.53511719 120.65144531 59.06835938 121.75976562 C60.71097382 125.17378817 62.35527156 128.58699544 64 132 C66.16819779 136.4992649 68.33462977 140.99937371 70.5 145.5 C70.99177734 146.51900391 71.48355469 147.53800781 71.99023438 148.58789062 C74.13901582 153.05439219 76.27357238 157.52770571 78.34375 162.03125 C78.66537109 162.72798828 78.98699219 163.42472656 79.31835938 164.14257812 C80 166 80 166 80 169 C71.09 169 62.18 169 53 169 C48 158 48 158 45.75 152.5 C43.20313207 146.31703759 40.3287876 140.309586 37.44287109 134.28027344 C34.99165201 129.14196517 32.63248574 123.97619877 30.375 118.75 C27.06752699 111.09344255 23.55028335 103.54641623 20 96 C15.5431288 86.4562287 11.23227824 76.85070054 6.98339844 67.21289062 C6.28677093 65.64530578 5.58073533 64.08188634 4.86816406 62.52148438 C4.50174805 61.71517578 4.13533203 60.90886719 3.7578125 60.078125 C3.42152832 59.3449707 3.08524414 58.61181641 2.73876953 57.85644531 C2 56 2 56 2 54 C1.34 54 0.68 54 0 54 C-0.26570801 54.84908936 -0.53141602 55.69817871 -0.80517578 56.57299805 C-2.04183027 60.11997783 -3.51584714 63.43463092 -5.1171875 66.83203125 C-5.41561554 67.46807785 -5.71404358 68.10412445 -6.02151489 68.75944519 C-6.96955076 70.77861777 -7.922051 72.79564219 -8.875 74.8125 C-10.1237949 77.46418685 -11.37082067 80.11670237 -12.6171875 82.76953125 C-12.91784622 83.40900696 -13.21850494 84.04848267 -13.52827454 84.70733643 C-15.42640692 88.75258303 -17.2795441 92.81371623 -19.078125 96.90405273 C-24.83020515 109.98180911 -30.88129977 122.91637249 -37.09057617 135.78222656 C-40.36458174 142.59346845 -43.44225746 149.46192223 -46.3671875 156.4296875 C-48.33757528 160.73814309 -50.6991994 164.85855893 -53 169 C-61.91 169 -70.82 169 -80 169 C-78 163 -78 163 -76.5625 160.625 C-74.93580729 157.89215625 -73.9357472 155.12020725 -72.84106445 152.14501953 C-71.55112148 148.8551969 -69.94015855 145.75783982 -68.3125 142.625 C-65.35220891 136.82524602 -62.60406406 130.9678341 -60 125 C-57.26591925 118.75341715 -54.37644847 112.62604104 -51.29003906 106.54663086 C-48.0222105 100.09401391 -44.88058542 93.58265218 -41.75 87.0625 C-40.98864746 85.48069946 -40.98864746 85.48069946 -40.21191406 83.86694336 C-38.10224224 79.46668107 -36.00828927 75.06623394 -34.046875 70.59765625 C-31.34536801 64.45415229 -28.41092501 58.42127508 -25.5 52.375 C-24.93152344 51.18648437 -24.36304688 49.99796875 -23.77734375 48.7734375 C-19.11182793 39.07436053 -19.11182793 39.07436053 -16.84375 35.2890625 C-14.90539671 31.83123735 -13.50463497 28.36499047 -12.07568359 24.67626953 C-10.19616931 20.0000926 -7.99476257 15.47827249 -5.8125 10.9375 C-5.36197266 9.98939453 -4.91144531 9.04128906 -4.44726562 8.06445312 C-1.13316664 1.13316664 -1.13316664 1.13316664 0 0 Z " fill="#092C70" transform="translate(165,34)"/>
<path d="M0 0 C10.17228464 0 10.17228464 0 13.4375 1.8125 C14.07558594 2.14894531 14.71367187 2.48539063 15.37109375 2.83203125 C17 4 17 4 19 7 C19.77667219 12.28137088 19.96663016 16.60691536 16.875 21.0625 C10.90717136 25.08429756 7.47101302 25 0 25 C0 16.75 0 8.5 0 0 Z " fill="#162F57" transform="translate(189,226)"/>
<path d="M0 0 C8.9 0 8.9 0 13 4 C13.42638266 6.75210626 13.17834124 9.19112546 13 12 C13.99 13.485 13.99 13.485 15 15 C14.7385729 19.87997262 14.53396051 21.46603949 11 25 C7.37 25 3.74 25 0 25 C0 16.75 0 8.5 0 0 Z " fill="#304768" transform="translate(129,226)"/>
<path d="M0 0 C0.9075 0.185625 1.815 0.37125 2.75 0.5625 C5.81387973 0.97494535 7.1297269 0.74071564 10 0 C12.75 0.4375 12.75 0.4375 15 1 C15 1.66 15 2.32 15 3 C15.99 3 16.98 3 18 3 C18.33 2.34 18.66 1.68 19 1 C21.30119506 4.55639236 22.77472971 7.94718288 24 12 C23.34 12 22.68 12 22 12 C21.67 11.34 21.34 10.68 21 10 C20.01 9.67 19.02 9.34 18 9 C18 9.99 18 10.98 18 12 C17.195625 12.12375 16.39125 12.2475 15.5625 12.375 C14.716875 12.58125 13.87125 12.7875 13 13 C12.67 13.66 12.34 14.32 12 15 C10.02 14.34 8.04 13.68 6 13 C5.67 13.66 5.34 14.32 5 15 C3.02 15 1.04 15 -1 15 C-1 12.36 -1 9.72 -1 7 C-2.32 7 -3.64 7 -5 7 C-5 8.65 -5 10.3 -5 12 C-5.66 12 -6.32 12 -7 12 C-7 8.37 -7 4.74 -7 1 C-6.34 1 -5.68 1 -5 1 C-5 2.32 -5 3.64 -5 5 C-3.68 5 -2.36 5 -1 5 C-0.67 3.35 -0.34 1.7 0 0 Z " fill="#EFF5F8" transform="translate(162,264)"/>
<path d="M0 0 C0.33 -0.33 0.66 -0.66 1 -1 C3.18639453 -1.07258946 5.37500389 -1.08373783 7.5625 -1.0625 C9.35880859 -1.04896484 9.35880859 -1.04896484 11.19140625 -1.03515625 C12.11824219 -1.02355469 13.04507812 -1.01195312 14 -1 C14 -0.01 14 0.98 14 2 C13.01 1.67 12.02 1.34 11 1 C12.25541557 3.51083114 13.50063488 3.87125446 16 5 C15.63692621 7.68674602 15.33095772 9.55872304 13.6875 11.75 C11.80095268 13.14744246 10.29800696 13.6037919 8 14 C8 13.01 8 12.02 8 11 C4.7 11.66 1.4 12.32 -2 13 C-2 12.67 -2 12.34 -2 12 C-2.94875 11.71125 -3.8975 11.4225 -4.875 11.125 C-8 10 -8 10 -10 8 C-9.8125 4.5 -9.8125 4.5 -9 1 C-5.29658604 -1.46894264 -4.19547676 -0.82085415 0 0 Z " fill="#EEF5F8" transform="translate(260,265)"/>
<path d="M0 0 C0.66 0 1.32 0 2 0 C4.31 5.61 6.62 11.22 9 17 C11.64 11.72 14.28 6.44 17 1 C17.66 1.33 18.32 1.66 19 2 C19.59423828 4.00952148 19.59423828 4.00952148 20.0703125 6.62109375 C20.24433594 7.55630859 20.41835938 8.49152344 20.59765625 9.45507812 C20.77167969 10.43927734 20.94570313 11.42347656 21.125 12.4375 C21.30675781 13.41783203 21.48851562 14.39816406 21.67578125 15.40820312 C23 22.64162359 23 22.64162359 23 25 C21.68 25 20.36 25 19 25 C18.01 21.04 17.02 17.08 16 13 C14.02 17.29 12.04 21.58 10 26 C6.94616796 24.47308398 6.61913497 22.04783744 5.375 18.9375 C4.92898437 17.83277344 4.48296875 16.72804687 4.0234375 15.58984375 C3.68570313 14.73519531 3.34796875 13.88054687 3 13 C2.01 16.96 1.02 20.92 0 25 C-1.32 25 -2.64 25 -4 25 C-3.33182164 19.29129167 -2.46165521 13.65490487 -1.4375 8 C-1.29892578 7.22527344 -1.16035156 6.45054687 -1.01757812 5.65234375 C-0.68023879 3.76789645 -0.34038635 1.8838993 0 0 Z " fill="#22395F" transform="translate(251,225)"/>
<path d="M0 0 C1.79244141 0.01740234 1.79244141 0.01740234 3.62109375 0.03515625 C5.41740234 0.04869141 5.41740234 0.04869141 7.25 0.0625 C8.17683594 0.07410156 9.10367188 0.08570313 10.05859375 0.09765625 C10.05859375 1.41765625 10.05859375 2.73765625 10.05859375 4.09765625 C6.75859375 4.09765625 3.45859375 4.09765625 0.05859375 4.09765625 C0.05859375 6.07765625 0.05859375 8.05765625 0.05859375 10.09765625 C3.35859375 10.09765625 6.65859375 10.09765625 10.05859375 10.09765625 C10.05859375 11.08765625 10.05859375 12.07765625 10.05859375 13.09765625 C6.75859375 13.09765625 3.45859375 13.09765625 0.05859375 13.09765625 C0.05859375 15.73765625 0.05859375 18.37765625 0.05859375 21.09765625 C3.35859375 21.09765625 6.65859375 21.09765625 10.05859375 21.09765625 C10.05859375 22.41765625 10.05859375 23.73765625 10.05859375 25.09765625 C5.43859375 25.09765625 0.81859375 25.09765625 -3.94140625 25.09765625 C-3.96823239 21.11844531 -3.98816018 17.13941284 -4.00390625 13.16015625 C-4.01228516 12.02384766 -4.02066406 10.88753906 -4.02929688 9.71679688 C-4.03251953 8.63720703 -4.03574219 7.55761719 -4.0390625 6.4453125 C-4.04429932 5.44508057 -4.04953613 4.44484863 -4.05493164 3.41430664 C-3.88398334 -0.0741415 -3.54910828 0.11783228 0 0 Z " fill="#1B2F54" transform="translate(223.94140625,225.90234375)"/>
<path d="M0 0 C0.99 0.66 1.98 1.32 3 2 C3 2.99 3 3.98 3 5 C2.11248047 4.83951172 2.11248047 4.83951172 1.20703125 4.67578125 C-4.00662364 3.86873382 -4.00662364 3.86873382 -9 5.3125 C-11.08978966 6.8502393 -11.08978966 6.8502393 -12 9 C-12.26004123 12.51055666 -12.38797265 15.13276702 -10.9375 18.375 C-8.08299544 20.7691006 -5.66714451 20.81032011 -2 21 C0.81237541 20.64025105 0.81237541 20.64025105 3 20 C3 21.32 3 22.64 3 24 C-0.20422044 25.60211022 -3.51558502 25.35104181 -7 25 C-12.15055847 23.21711438 -14.56506082 20.86987836 -17 16 C-17.46618895 12.20389 -17.35117243 9.83891192 -15.875 6.3125 C-11.19708432 0.54307066 -7.10080692 -0.69844002 0 0 Z " fill="#2C405F" transform="translate(92,226)"/>
<path d="M0 0 C8 1 8 1 10.5 2.6875 C12.49398185 5.76155535 12.58862899 7.39464741 12 11 C10.5 13.8125 10.5 13.8125 8 16 C4.04 16.495 4.04 16.495 0 17 C0 11.39 0 5.78 0 0 Z " fill="#EEF5F8" transform="translate(193,230)"/>
<path d="M0 0 C0.66 0 1.32 0 2 0 C2.32871094 0.74830078 2.32871094 0.74830078 2.6640625 1.51171875 C5.29811212 7.47580671 8.04267685 13.3823978 10.828125 19.27734375 C12 22 12 22 12 24 C10.68 24 9.36 24 8 24 C5.69 19.05 3.38 14.1 1 9 C-1.64 14.28 -4.28 19.56 -7 25 C-8.32 25 -9.64 25 -11 25 C-10.40990351 21.50112943 -9.49917813 18.58778923 -7.96875 15.390625 C-7.37126953 14.13572266 -7.37126953 14.13572266 -6.76171875 12.85546875 C-6.34535156 11.99566406 -5.92898437 11.13585937 -5.5 10.25 C-5.08363281 9.37472656 -4.66726562 8.49945313 -4.23828125 7.59765625 C-1.14885603 1.14885603 -1.14885603 1.14885603 0 0 Z " fill="#32476A" transform="translate(54,226)"/>
<path d="M0 0 C2.4769862 2.23574154 3.8444543 4.36836479 5.26171875 7.37890625 C5.65810547 8.21744141 6.05449219 9.05597656 6.46289062 9.91992188 C6.86701172 10.79197266 7.27113281 11.66402344 7.6875 12.5625 C8.10322266 13.43841797 8.51894531 14.31433594 8.94726562 15.21679688 C12 21.72829433 12 21.72829433 12 24 C10.68 24 9.36 24 8 24 C7.50628906 23.00097656 7.01257813 22.00195312 6.50390625 20.97265625 C5.85687605 19.6692186 5.20973489 18.36583602 4.5625 17.0625 C4.23701172 16.40314453 3.91152344 15.74378906 3.57617188 15.06445312 C2.10888654 11.81709965 2.10888654 11.81709965 0 9 C-3.465 16.425 -3.465 16.425 -7 24 C-8.32 24 -9.64 24 -11 24 C-9.42341672 18.82451456 -7.25856048 14.05799007 -4.9375 9.1875 C-4.57333984 8.41212891 -4.20917969 7.63675781 -3.83398438 6.83789062 C-1.13446065 1.13446065 -1.13446065 1.13446065 0 0 Z " fill="#2A4064" transform="translate(165,226)"/>
<path d="M0 0 C0.9075 0.185625 1.815 0.37125 2.75 0.5625 C5.85285194 1.18412768 5.85285194 1.18412768 8.25 0.4375 C8.8275 0.293125 9.405 0.14875 10 0 C10.66 0.66 11.32 1.32 12 2 C10.02 2.66 8.04 3.32 6 4 C6.33 5.65 6.66 7.3 7 9 C8.65 9 10.3 9 12 9 C12 9.99 12 10.98 12 12 C11.030625 12.12375 10.06125 12.2475 9.0625 12.375 C8.051875 12.58125 7.04125 12.7875 6 13 C5.67 13.66 5.34 14.32 5 15 C3.02 15 1.04 15 -1 15 C-1 12.36 -1 9.72 -1 7 C-2.32 7 -3.64 7 -5 7 C-5 8.65 -5 10.3 -5 12 C-5.66 12 -6.32 12 -7 12 C-7 8.37 -7 4.74 -7 1 C-6.34 1 -5.68 1 -5 1 C-5 2.32 -5 3.64 -5 5 C-3.68 5 -2.36 5 -1 5 C-0.67 3.35 -0.34 1.7 0 0 Z " fill="#F2F7F8" transform="translate(162,264)"/>
<path d="M0 0 C2 0 2 0 4.125 2 C4.74375 2.66 5.3625 3.32 6 4 C6.33 3.34 6.66 2.68 7 2 C8.65 1.67 10.3 1.34 12 1 C13.32 4.3 14.64 7.6 16 11 C15.34 11 14.68 11 14 11 C14 10.34 14 9.68 14 9 C12.04105639 9.11306697 12.04105639 9.11306697 10 10 C8.70339566 12.49034386 8.70339566 12.49034386 8 15 C7.67 14.34 7.34 13.68 7 13 C5.10466658 12.53476937 5.10466658 12.53476937 2.9375 12.375 C1.638125 12.25125 0.33875 12.1275 -1 12 C-1.02687279 10.18757948 -1.04633715 8.37504767 -1.0625 6.5625 C-1.07410156 5.55316406 -1.08570312 4.54382813 -1.09765625 3.50390625 C-1 1 -1 1 0 0 Z " fill="#ECF2F5" transform="translate(71,264)"/>
<path d="M0 0 C1.65 0 3.3 0 5 0 C5.66 1.32 6.32 2.64 7 4 C7.33 2.68 7.66 1.36 8 0 C10.31 0 12.62 0 15 0 C15 0.33 15 0.66 15 1 C13.35 1 11.7 1 10 1 C10 1.99 10 2.98 10 4 C11.65 4 13.3 4 15 4 C15 4.33 15 4.66 15 5 C13.35 5 11.7 5 10 5 C10 6.32 10 7.64 10 9 C11.65 9 13.3 9 15 9 C15 9.66 15 10.32 15 11 C12.69 11 10.38 11 8 11 C7.34 12.32 6.68 13.64 6 15 C4.35 15 2.7 15 1 15 C1.33 14.01 1.66 13.02 2 12 C1.34 11.67 0.68 11.34 0 11 C0 7.37 0 3.74 0 0 Z " fill="#89919B" transform="translate(188,265)"/>
<path d="M0 0 C4.66666667 0 9.33333333 0 14 0 C14 2.66666667 14 5.33333333 14 8 C14.33 8.99 14.66 9.98 15 11 C14.34 11 13.68 11 13 11 C12.34 10.01 11.68 9.02 11 8 C10.67 8.99 10.34 9.98 10 11 C6.7 11 3.4 11 0 11 C0 7.37 0 3.74 0 0 Z " fill="#868F9A" transform="translate(219,265)"/>
<path d="M0 0 C0.66 0 1.32 0 2 0 C3.06129426 2.24250878 4.09881233 4.49149089 5.125 6.75 C5.42792969 7.38421875 5.73085938 8.0184375 6.04296875 8.671875 C8.18359806 13.45095438 8.18359806 13.45095438 7.1796875 16.453125 C6.79039062 16.96359375 6.40109375 17.4740625 6 18 C4 16 4 16 3 13 C2.01 16.96 1.02 20.92 0 25 C-1.32 25 -2.64 25 -4 25 C-3.33182164 19.29129167 -2.46165521 13.65490487 -1.4375 8 C-1.29892578 7.22527344 -1.16035156 6.45054687 -1.01757812 5.65234375 C-0.68023879 3.76789645 -0.34038635 1.8838993 0 0 Z " fill="#364A6D" transform="translate(251,225)"/>
<path d="M0 0 C0.33 3.96 0.66 7.92 1 12 C-0.32 12.33 -1.64 12.66 -3 13 C-3 12.67 -3 12.34 -3 12 C-3.94875 11.71125 -4.8975 11.4225 -5.875 11.125 C-9 10 -9 10 -11 8 C-10.8125 4.5 -10.8125 4.5 -10 1 C-6.1496895 -1.56687367 -4.41430237 -0.83288724 0 0 Z " fill="#F1F6F9" transform="translate(261,265)"/>
<path d="M0 0 C0.928125 0.350625 1.85625 0.70125 2.8125 1.0625 C6.47239847 2.13894073 7.70400293 1.74493963 11 0 C11.33 0.66 11.66 1.32 12 2 C10.68 2 9.36 2 8 2 C9.25541557 4.51083114 10.50063488 4.87125446 13 6 C12.67 7.65 12.34 9.3 12 11 C10.68 11.33 9.36 11.66 8 12 C7.34 10.68 6.68 9.36 6 8 C5.01 9.32 4.02 10.64 3 12 C1.35 11.67 -0.3 11.34 -2 11 C-1.67 10.01 -1.34 9.02 -1 8 C-1 8.66 -1 9.32 -1 10 C-0.01 9.34 0.98 8.68 2 8 C1.34 7.5875 0.68 7.175 0 6.75 C-0.66 6.1725 -1.32 5.595 -2 5 C-2 3.68 -2 2.36 -2 1 C-1.34 0.67 -0.68 0.34 0 0 Z " fill="#DFE9EF" transform="translate(91,264)"/>
<path d="M0 0 C10.21538462 0 10.21538462 0 13.5 1.75 C14.1496875 2.07484375 14.799375 2.3996875 15.46875 2.734375 C17 4 17 4 17.84375 6.015625 C17.92109375 6.99789062 17.92109375 6.99789062 18 8 C17.34 8.66 16.68 9.32 16 10 C15.2575 9.071875 15.2575 9.071875 14.5 8.125 C11.48333719 5.24252304 11.48333719 5.24252304 4 4 C4 9.61 4 15.22 4 21 C3.67 21 3.34 21 3 21 C2.67 15.39 2.34 9.78 2 4 C1.67 10.6 1.34 17.2 1 24 C3.31 24 5.62 24 8 24 C8 24.33 8 24.66 8 25 C5.36 25 2.72 25 0 25 C0 16.75 0 8.5 0 0 Z " fill="#465875" transform="translate(189,226)"/>
<path d="M0 0 C1.32 0 2.64 0 4 0 C4 8.25 4 16.5 4 25 C2.68 25 1.36 25 0 25 C0 16.75 0 8.5 0 0 Z " fill="#36496A" transform="translate(109,226)"/>
<path d="M0 0 C2.0245738 1.93254772 3.42105792 3.63158688 5 6 C5.66 4.02 6.32 2.04 7 0 C9.97 0.495 9.97 0.495 13 1 C13 4.63 13 8.26 13 12 C12.01 12 11.02 12 10 12 C9.67 11.01 9.34 10.02 9 9 C6.525 10.485 6.525 10.485 4 12 C3.32645501 10.56570999 2.66140299 9.12742943 2 7.6875 C1.62875 6.88699219 1.2575 6.08648437 0.875 5.26171875 C0 3 0 3 0 0 Z " fill="#A1A8B3" transform="translate(235,264)"/>
<path d="M0 0 C1.51400391 0.01740234 1.51400391 0.01740234 3.05859375 0.03515625 C4.07050781 0.04417969 5.08242187 0.05320312 6.125 0.0625 C7.29869141 0.07990234 7.29869141 0.07990234 8.49609375 0.09765625 C8.49609375 0.75765625 8.49609375 1.41765625 8.49609375 2.09765625 C7.83609375 2.09765625 7.17609375 2.09765625 6.49609375 2.09765625 C6.49609375 5.39765625 6.49609375 8.69765625 6.49609375 12.09765625 C5.83609375 12.09765625 5.17609375 12.09765625 4.49609375 12.09765625 C4.49609375 9.12765625 4.49609375 6.15765625 4.49609375 3.09765625 C3.83609375 3.09765625 3.17609375 3.09765625 2.49609375 3.09765625 C1.35382659 5.38219058 0.43355902 7.72274424 -0.50390625 10.09765625 C0.48609375 10.09765625 1.47609375 10.09765625 2.49609375 10.09765625 C2.49609375 10.75765625 2.49609375 11.41765625 2.49609375 12.09765625 C0.51609375 12.09765625 -1.46390625 12.09765625 -3.50390625 12.09765625 C-3.53077904 10.28523573 -3.5502434 8.47270392 -3.56640625 6.66015625 C-3.57800781 5.65082031 -3.58960938 4.64148438 -3.6015625 3.6015625 C-3.46988459 0.22534083 -3.37622167 0.13167791 0 0 Z " fill="#8F96A4" transform="translate(144.50390625,263.90234375)"/>
<path d="M0 0 C1.79244141 0.01740234 1.79244141 0.01740234 3.62109375 0.03515625 C5.41740234 0.04869141 5.41740234 0.04869141 7.25 0.0625 C8.17683594 0.07410156 9.10367188 0.08570313 10.05859375 0.09765625 C10.05859375 0.42765625 10.05859375 0.75765625 10.05859375 1.09765625 C6.75859375 1.42765625 3.45859375 1.75765625 0.05859375 2.09765625 C-0.27140625 9.02765625 -0.60140625 15.95765625 -0.94140625 23.09765625 C2.68859375 23.42765625 6.31859375 23.75765625 10.05859375 24.09765625 C10.05859375 24.42765625 10.05859375 24.75765625 10.05859375 25.09765625 C5.43859375 25.09765625 0.81859375 25.09765625 -3.94140625 25.09765625 C-3.96823239 21.11844531 -3.98816018 17.13941284 -4.00390625 13.16015625 C-4.01228516 12.02384766 -4.02066406 10.88753906 -4.02929688 9.71679688 C-4.03251953 8.63720703 -4.03574219 7.55761719 -4.0390625 6.4453125 C-4.04429932 5.44508057 -4.04953613 4.44484863 -4.05493164 3.41430664 C-3.88398334 -0.0741415 -3.54910828 0.11783228 0 0 Z " fill="#647592" transform="translate(223.94140625,225.90234375)"/>
<path d="M0 0 C1.32 0.66 2.64 1.32 4 2 C4 4.97 4 7.94 4 11 C2.35 11 0.7 11 -1 11 C-0.67 10.01 -0.34 9.02 0 8 C-1.65 8.33 -3.3 8.66 -5 9 C-5 6.69 -5 4.38 -5 2 C-3.35 2 -1.7 2 0 2 C0 1.34 0 0.68 0 0 Z " fill="#3B5271" transform="translate(138,228)"/>
<path d="M0 0 C0.33 0 0.66 0 1 0 C1.75 3.1875 1.75 3.1875 2 7 C0.125 9.75 0.125 9.75 -2 12 C-2.33 12.99 -2.66 13.98 -3 15 C4.59 15.33 12.18 15.66 20 16 C20 16.33 20 16.66 20 17 C11.09 17 2.18 17 -7 17 C-5.49767994 12.49303983 -4.32324489 9.87207481 -2 6 C-1.28856912 4.01548229 -0.61008664 2.01797888 0 0 Z " fill="#374773" transform="translate(92,186)"/>
<path d="M0 0 C2.42999536 2.27364177 3.42805835 3.68273845 4 7 C3.34 7 2.68 7 2 7 C1.67 7.99 1.34 8.98 1 10 C-0.64488294 11.68816933 -2.31337542 13.35353315 -4 15 C-5.02813611 16.31175986 -6.04084432 17.6369893 -7 19 C-7.33 18.34 -7.66 17.68 -8 17 C-7.37915039 15.21240234 -7.37915039 15.21240234 -6.34765625 13.0859375 C-5.98349609 12.32539063 -5.61933594 11.56484375 -5.24414062 10.78125 C-4.85419922 9.9871875 -4.46425781 9.193125 -4.0625 8.375 C-3.67642578 7.57320312 -3.29035156 6.77140625 -2.89257812 5.9453125 C-1.93538427 3.96002154 -0.97096525 1.97858263 0 0 Z " fill="#E2EBF2" transform="translate(54,234)"/>
<path d="M0 0 C1.39211215 4.17633644 -0.0464421 5.78960515 -1.9375 9.6875 C-2.50339844 10.86699219 -3.06929687 12.04648438 -3.65234375 13.26171875 C-4.09707031 14.16535156 -4.54179687 15.06898438 -5 16 C-6.32 16 -7.64 16 -9 16 C-7.4763905 10.59811177 -5.07730789 5.685004 -2 1 C-1.34 0.67 -0.68 0.34 0 0 Z " fill="#28375B" transform="translate(163,234)"/>
<path d="M0 0 C1.98 0 3.96 0 6 0 C6 2.66666667 6 5.33333333 6 8 C6.33 8.99 6.66 9.98 7 11 C6.34 11 5.68 11 5 11 C4.34 10.01 3.68 9.02 3 8 C2.67 8.99 2.34 9.98 2 11 C1.34 11 0.68 11 0 11 C0 7.37 0 3.74 0 0 Z " fill="#404D5D" transform="translate(227,265)"/>
<path d="M0 0 C0.99 0.99 1.98 1.98 3 3 C3.66 2.67 4.32 2.34 5 2 C5.33 2.99 5.66 3.98 6 5 C7.29355827 6.37195574 8.62298702 7.71182656 10 9 C7.02588876 10.23921302 4.14737182 11.30058404 1 12 C1.33 11.34 1.66 10.68 2 10 C1.45783893 7.765028 1.45783893 7.765028 0.5625 5.375 C0.27503906 4.55773437 -0.01242188 3.74046875 -0.30859375 2.8984375 C-0.53675781 2.27195312 -0.76492187 1.64546875 -1 1 C-0.67 0.67 -0.34 0.34 0 0 Z " fill="#DEE5E9" transform="translate(84,264)"/>
<path d="M0 0 C3.30477928 1.65238964 4.19939987 5.20781576 5.6875 8.4375 C6.02072266 9.13166016 6.35394531 9.82582031 6.69726562 10.54101562 C7.53091594 12.33137066 8.27264253 14.16389131 9 16 C8.67 16.66 8.34 17.32 8 18 C7.34 18 6.68 18 6 18 C5.896875 17.38125 5.79375 16.7625 5.6875 16.125 C5.12474627 13.63473516 5.12474627 13.63473516 2 12 C2.66 12 3.32 12 4 12 C3.34 10.02 2.68 8.04 2 6 C1.01 6 0.02 6 -1 6 C-1 6.66 -1 7.32 -1 8 C-1.99 8.33 -2.98 8.66 -4 9 C-2.94124926 5.59687262 -1.99097846 2.98646769 0 0 Z " fill="#2C436E" transform="translate(165,34)"/>
<path d="M0 0 C1.42944945 2.35438733 2.08661261 3.48032433 1.625 6.25 C1.41875 6.8275 1.2125 7.405 1 8 C1.66 8.33 2.32 8.66 3 9 C1.02 9.99 -0.96 10.98 -3 12 C-3.33 11.01 -3.66 10.02 -4 9 C-11.26 8.67 -18.52 8.34 -26 8 C-26 7.67 -26 7.34 -26 7 C-17.42 7 -8.84 7 0 7 C-0.33 5.02 -0.66 3.04 -1 1 C-0.67 0.67 -0.34 0.34 0 0 Z " fill="#E9F0F8" transform="translate(245,196)"/>
<path d="M0 0 C1.8272911 2.74093665 2.93698178 5.13825324 4.125 8.1875 C4.47820312 9.08855469 4.83140625 9.98960937 5.1953125 10.91796875 C5.46085938 11.60503906 5.72640625 12.29210937 6 13 C4.35 13.33 2.7 13.66 1 14 C-2.08290155 9.68393782 -2.08290155 9.68393782 -3 7 C-2.45067572 4.23737888 -1.42158414 2.48777224 0 0 Z " fill="#E9EFF4" transform="translate(234,264)"/>
<path d="M0 0 C0.66 0 1.32 0 2 0 C2 1.32 2 2.64 2 4 C3.32 4 4.64 4 6 4 C6 2.68 6 1.36 6 0 C6.66 0 7.32 0 8 0 C8 3.63 8 7.26 8 11 C7.34 11 6.68 11 6 11 C6 9.35 6 7.7 6 6 C4.68 6 3.36 6 2 6 C2 7.65 2 9.3 2 11 C1.34 11 0.68 11 0 11 C0 7.37 0 3.74 0 0 Z " fill="#4A5465" transform="translate(155,265)"/>
<path d="M0 0 C3.2188892 3.49227431 3.62878842 6.60839611 4.1875 11.25 C4.42533203 13.14492187 4.42533203 13.14492187 4.66796875 15.078125 C4.83232422 16.52445313 4.83232422 16.52445313 5 18 C3.68 18 2.36 18 1 18 C0.04380267 14.00204108 -0.1039592 10.29196078 -0.0625 6.1875 C-0.05347656 5.02605469 -0.04445313 3.86460937 -0.03515625 2.66796875 C-0.02355469 1.78753906 -0.01195312 0.90710938 0 0 Z " fill="#1A3053" transform="translate(269,232)"/>
<path d="M0 0 C0.66 0.33 1.32 0.66 2 1 C2.59355614 3.64860427 2.74209269 6.29197322 3 9 C2.67 9 2.34 9 2 9 C1.67 10.65 1.34 12.3 1 14 C-1 13 -3 12 -5 11 C-3.35 7.37 -1.7 3.74 0 0 Z " fill="#334A6E" transform="translate(268,226)"/>
<path d="M0 0 C1.65 0 3.3 0 5 0 C6.125 4.75 6.125 4.75 5 7 C5.39938767 9.09821215 5.39938767 9.09821215 6 11 C5.01 10.34 4.02 9.68 3 9 C3 8.34 3 7.68 3 7 C2.34 7 1.68 7 1 7 C0.67 8.32 0.34 9.64 0 11 C0 7.37 0 3.74 0 0 Z " fill="#515E72" transform="translate(188,265)"/>
<path d="M0 0 C2.87121002 2.69427271 4.3882549 5.39276097 6 9 C6 9.66 6 10.32 6 11 C5.34 11 4.68 11 4 11 C3.67 10.34 3.34 9.68 3 9 C0.47266765 8.34444881 0.47266765 8.34444881 -2 8 C-2.33 8.99 -2.66 9.98 -3 11 C-4 8 -4 8 -3.22265625 5.95703125 C-2.83980469 5.24933594 -2.45695313 4.54164063 -2.0625 3.8125 C-1.68222656 3.09707031 -1.30195313 2.38164062 -0.91015625 1.64453125 C-0.60980469 1.10183594 -0.30945313 0.55914062 0 0 Z " fill="#4D586D" transform="translate(134,265)"/>
<path d="M0 0 C3.3566285 2.23775234 3.57996014 2.93320048 4.6875 6.625 C5.06455078 7.85089844 5.06455078 7.85089844 5.44921875 9.1015625 C5.63097656 9.72804688 5.81273437 10.35453125 6 11 C5.34 11 4.68 11 4 11 C3.67 10.34 3.34 9.68 3 9 C0.47266765 8.34444881 0.47266765 8.34444881 -2 8 C-2.33 8.99 -2.66 9.98 -3 11 C-4 8 -4 8 -3.22265625 5.95703125 C-2.83980469 5.24933594 -2.45695313 4.54164063 -2.0625 3.8125 C-1.68222656 3.09707031 -1.30195313 2.38164062 -0.91015625 1.64453125 C-0.60980469 1.10183594 -0.30945313 0.55914062 0 0 Z " fill="#4D596C" transform="translate(180,265)"/>
<path d="M0 0 C0.66 0 1.32 0 2 0 C3.32 3.3 4.64 6.6 6 10 C5.34 10 4.68 10 4 10 C4 9.34 4 8.68 4 8 C2.02 8 0.04 8 -2 8 C-2.33 8.99 -2.66 9.98 -3 11 C-3.33 10.34 -3.66 9.68 -4 9 C-3.22265625 6.8359375 -3.22265625 6.8359375 -2.0625 4.375 C-1.68222656 3.55773437 -1.30195312 2.74046875 -0.91015625 1.8984375 C-0.60980469 1.27195312 -0.30945313 0.64546875 0 0 Z " fill="#49556B" transform="translate(81,265)"/>
<path d="M0 0 C2.10827055 3.16240582 2.33817465 4.50657469 2.625 8.1875 C2.69976562 9.08855469 2.77453125 9.98960937 2.8515625 10.91796875 C2.90054687 11.60503906 2.94953125 12.29210937 3 13 C2.01 12.67 1.02 12.34 0 12 C0 11.01 0 10.02 0 9 C-1.65 9.66 -3.3 10.32 -5 11 C-3.77472971 6.94718288 -2.30119506 3.55639236 0 0 Z " fill="#DBE5EE" transform="translate(267,237)"/>
<path d="M0 0 C1.99954746 -0.04254356 4.00041636 -0.04080783 6 0 C7 1 7 1 7.0625 3.5625 C7.041875 4.366875 7.02125 5.17125 7 6 C4.69 6.33 2.38 6.66 0 7 C0 4.69 0 2.38 0 0 Z " fill="#E5EFF5" transform="translate(133,240)"/>
<path d="M0 0 C0.763125 0.20625 1.52625 0.4125 2.3125 0.625 C2.3125 1.285 2.3125 1.945 2.3125 2.625 C0.6625 2.625 -0.9875 2.625 -2.6875 2.625 C-3.0175 4.275 -3.3475 5.925 -3.6875 7.625 C-1.7075 8.285 0.2725 8.945 2.3125 9.625 C1.9825 10.285 1.6525 10.945 1.3125 11.625 C-1.41455554 11.84611261 -3.15170662 11.92861625 -5.5625 10.5625 C-7.38598531 7.42205307 -6.5533284 5.0264687 -5.6875 1.625 C-2.6875 -0.375 -2.6875 -0.375 0 0 Z " fill="#525766" transform="translate(256.6875,264.375)"/>
<path d="M0 0 C0.598125 0.165 1.19625 0.33 1.8125 0.5 C4.11344336 1.1114124 4.11344336 1.1114124 7 1 C7.33 1 7.66 1 8 1 C8 4.63 8 8.26 8 12 C7.34 12 6.68 12 6 12 C4 8 2 4 0 0 Z " fill="#DFE7ED" transform="translate(180,264)"/>
<path d="M0 0 C1.98 0 3.96 0 6 0 C4.68 0.33 3.36 0.66 2 1 C2 1.99 2 2.98 2 4 C3.32 4 4.64 4 6 4 C6 4.66 6 5.32 6 6 C4.68 6 3.36 6 2 6 C2 6.99 2 7.98 2 9 C3.32 9 4.64 9 6 9 C6 9.66 6 10.32 6 11 C4.02 11 2.04 11 0 11 C0 7.37 0 3.74 0 0 Z " fill="#454F5F" transform="translate(261,265)"/>
<path d="M0 0 C0.99 0 1.98 0 3 0 C3.66 1.98 4.32 3.96 5 6 C4.01 5.67 3.02 5.34 2 5 C2 4.34 2 3.68 2 3 C1.34 3 0.68 3 0 3 C-0.4021875 3.8353125 -0.4021875 3.8353125 -0.8125 4.6875 C-2.10899496 7.21225334 -3.42476323 9.63714484 -5 12 C-5.66 12 -6.32 12 -7 12 C-5.85569823 8.12697862 -4.76679902 4.99736561 -2 2 C-1.34 2 -0.68 2 0 2 C0 1.34 0 0.68 0 0 Z " fill="#15326C" transform="translate(164,40)"/>
<path d="M0 0 C2.16264785 2.16264785 2.82246387 2.98188578 3 6 C1.375 8.3125 1.375 8.3125 -1 10 C-4.41605892 9.82919705 -7.03387957 8.64784469 -10 7 C-7.03312999 5.35173889 -4.34373475 4.55728913 -1 4 C-0.67 2.68 -0.34 1.36 0 0 Z " fill="#F1F6F8" transform="translate(96,270)"/>
<path d="M0 0 C0 0.66 0 1.32 0 2 C-1.32 1.67 -2.64 1.34 -4 1 C-3.34 1.556875 -2.68 2.11375 -2 2.6875 C0 5 0 5 0.25 7.75 C0.1675 8.4925 0.085 9.235 0 10 C-1.65 10.33 -3.3 10.66 -5 11 C-5.33 9.68 -5.66 8.36 -6 7 C-5.67 7.66 -5.34 8.32 -5 9 C-4.01 8.34 -3.02 7.68 -2 7 C-2.66 6.5875 -3.32 6.175 -4 5.75 C-4.66 5.1725 -5.32 4.595 -6 4 C-6 2.68 -6 1.36 -6 0 C-3.50907189 -1.24546405 -2.58919267 -0.7767578 0 0 Z " fill="#454F60" transform="translate(95,265)"/>
<path d="M0 0 C2.0625 0.4375 2.0625 0.4375 4 1 C4 1.66 4 2.32 4 3 C2.68 2.67 1.36 2.34 0 2 C0.66 2.556875 1.32 3.11375 2 3.6875 C4 6 4 6 4.25 8.75 C4.1675 9.4925 4.085 10.235 4 11 C2.35 11.33 0.7 11.66 -1 12 C-1.33 10.68 -1.66 9.36 -2 8 C0.475 8.99 0.475 8.99 3 10 C3 9.01 3 8.02 3 7 C0.525 6.01 0.525 6.01 -2 5 C-1.125 1.125 -1.125 1.125 0 0 Z " fill="#3D4554" transform="translate(212,264)"/>
<path d="M0 0 C2.31966166 2.84685749 3.91581154 5.4763875 5 9 C4.67 9.99 4.34 10.98 4 12 C3.54625 11.030625 3.0925 10.06125 2.625 9.0625 C1.34213779 5.92920418 1.34213779 5.92920418 -1 5 C-1.66 7.31 -2.32 9.62 -3 12 C-3.66 12 -4.32 12 -5 12 C-4.54738642 10.56068883 -4.08767021 9.12361001 -3.625 7.6875 C-3.24214844 6.48673828 -3.24214844 6.48673828 -2.8515625 5.26171875 C-2 3 -2 3 0 0 Z " fill="#484E60" transform="translate(48,264)"/>
<path d="M0 0 C0.33 0 0.66 0 1 0 C1.33 3.96 1.66 7.92 2 12 C0.02 12.66 -1.96 13.32 -4 14 C-3.52372025 12.04096255 -3.04388577 10.08278903 -2.5625 8.125 C-2.29566406 7.03445313 -2.02882812 5.94390625 -1.75390625 4.8203125 C-1 2 -1 2 0 0 Z " fill="#E2EAEF" transform="translate(218,265)"/>
<path d="M0 0 C1.32 0.33 2.64 0.66 4 1 C3.67 1.66 3.34 2.32 3 3 C2.01 2.67 1.02 2.34 0 2 C1.25541557 4.51083114 2.50063488 4.87125446 5 6 C4.67 7.65 4.34 9.3 4 11 C2.68 11.33 1.36 11.66 0 12 C-0.66 10.68 -1.32 9.36 -2 8 C-1.34 8 -0.68 8 0 8 C0 8.66 0 9.32 0 10 C0.99 10 1.98 10 3 10 C3 9.01 3 8.02 3 7 C1.68 6.34 0.36 5.68 -1 5 C-0.67 3.35 -0.34 1.7 0 0 Z " fill="#444C59" transform="translate(271,264)"/>
<path d="M0 0 C1.1446875 0.3403125 1.1446875 0.3403125 2.3125 0.6875 C2.3125 1.0175 2.3125 1.3475 2.3125 1.6875 C0.3325 2.3475 -1.6475 3.0075 -3.6875 3.6875 C-3.3575 5.3375 -3.0275 6.9875 -2.6875 8.6875 C-1.0375 8.6875 0.6125 8.6875 2.3125 8.6875 C2.3125 9.6775 2.3125 10.6675 2.3125 11.6875 C-1.0625 11.375 -1.0625 11.375 -4.6875 10.6875 C-6.6875 7.6875 -6.6875 7.6875 -6.5 5.1875 C-5.24003635 1.31068877 -4.28286911 -0.49800804 0 0 Z " fill="#494F5F" transform="translate(171.6875,264.3125)"/>
<path d="M0 0 C0.99 0.33 1.98 0.66 3 1 C3 1.99 3 2.98 3 4 C4.32 3.67 5.64 3.34 7 3 C5.25 8.75 5.25 8.75 3 11 C2.30034557 9.73581754 1.61565237 8.46334598 0.9375 7.1875 C0.55464844 6.47980469 0.17179687 5.77210938 -0.22265625 5.04296875 C-1 3 -1 3 0 0 Z " fill="#DAE5EF" transform="translate(257,232)"/>
<path d="M0 0 C1.98 0 3.96 0 6 0 C4.68 0.33 3.36 0.66 2 1 C2 1.99 2 2.98 2 4 C3.32 4.33 4.64 4.66 6 5 C4.68 5 3.36 5 2 5 C2 6.32 2 7.64 2 9 C3.32 9 4.64 9 6 9 C6 9.66 6 10.32 6 11 C4.02 11 2.04 11 0 11 C0 7.37 0 3.74 0 0 Z " fill="#374055" transform="translate(122,265)"/>
<path d="M0 0 C0.66 0 1.32 0 2 0 C2 1.32 2 2.64 2 4 C3.65 4 5.3 4 7 4 C7.33 2.68 7.66 1.36 8 0 C8 3.3 8 6.6 8 10 C7.67 10 7.34 10 7 10 C7 8.35 7 6.7 7 5 C5.35 5 3.7 5 2 5 C2 6.98 2 8.96 2 11 C1.34 11 0.68 11 0 11 C0 7.37 0 3.74 0 0 Z " fill="#313C4B" transform="translate(111,265)"/>
<path d="M0 0 C2.0245738 1.93254772 3.42105792 3.63158688 5 6 C5.66 4.35 6.32 2.7 7 1 C7.66 1 8.32 1 9 1 C7.92289822 5.30840713 6.96052484 8.63576723 4 12 C3.32645501 10.56570999 2.66140299 9.12742943 2 7.6875 C1.62875 6.88699219 1.2575 6.08648437 0.875 5.26171875 C0 3 0 3 0 0 Z " fill="#363E4E" transform="translate(235,264)"/>
<path d="M0 0 C0.33 0 0.66 0 1 0 C1 1.65 1 3.3 1 5 C-3.76052962 6.97387813 -6.96488101 7.0070238 -12 6 C-9.77524902 3.77524902 -8.40264256 3.34655655 -5.4375 2.4375 C-2.4574868 1.66788364 -2.4574868 1.66788364 0 0 Z " fill="#2C4162" transform="translate(203,243)"/>
<path d="M0 0 C0.33 0 0.66 0 1 0 C0.67 4.29 0.34 8.58 0 13 C-1.32 13 -2.64 13 -4 13 C-3.56407724 7.85611138 -3.18386087 4.24514783 0 0 Z " fill="#1F3658" transform="translate(251,237)"/>
<path d="M0 0 C1.890625 0.21484375 1.890625 0.21484375 4 1 C5.046875 3.06640625 5.046875 3.06640625 5.75 5.5625 C5.99234375 6.38878906 6.2346875 7.21507812 6.484375 8.06640625 C6.65453125 8.70449219 6.8246875 9.34257812 7 10 C5.68 10 4.36 10 3 10 C0 3.375 0 3.375 0 0 Z " fill="#293F5F" transform="translate(59,240)"/>
<path d="M0 0 C1.5625 1.0625 1.5625 1.0625 3 3 C2.6875 6.6875 2.6875 6.6875 2 10 C-0.97 9.505 -0.97 9.505 -4 9 C-2.94124926 5.59687262 -1.99097846 2.98646769 0 0 Z " fill="#3A4D70" transform="translate(165,226)"/>
<path d="M0 0 C0.99 0.33 1.98 0.66 3 1 C1.68 1.33 0.36 1.66 -1 2 C0.25541557 4.51083114 1.50063488 4.87125446 4 6 C3.67 7.65 3.34 9.3 3 11 C1.68 11.33 0.36 11.66 -1 12 C-1.66 10.68 -2.32 9.36 -3 8 C-2.34 8 -1.68 8 -1 8 C-1 8.66 -1 9.32 -1 10 C-0.01 10 0.98 10 2 10 C1.24849977 6.72226496 1.24849977 6.72226496 -2 5 C-2 3.68 -2 2.36 -2 1 C-1.34 0.67 -0.68 0.34 0 0 Z " fill="#3F4757" transform="translate(100,264)"/>
<path d="M0 0 C2.64 0 5.28 0 8 0 C8.66 1.98 9.32 3.96 10 6 C7.36 5.67 4.72 5.34 2 5 C2 4.01 2 3.02 2 2 C1.34 1.34 0.68 0.68 0 0 Z " fill="#D2DAE2" transform="translate(261,264)"/>
<path d="M0 0 C0.99 0.66 1.98 1.32 3 2 C3 2.66 3 3.32 3 4 C3.66 4.33 4.32 4.66 5 5 C1.49223216 6.60355101 -1.14354879 7.22036864 -5 7 C-5.33 6.01 -5.66 5.02 -6 4 C-2.25 2.875 -2.25 2.875 0 4 C0 2.68 0 1.36 0 0 Z " fill="#EFF4F9" transform="translate(229,272)"/>
<path d="M0 0 C0.66 0.33 1.32 0.66 2 1 C1.54177532 4.46941546 1.10868317 7.67395049 0 11 C-1.32 11 -2.64 11 -4 11 C-3.39301257 6.87248551 -1.96189209 3.6678852 0 0 Z " fill="#384B69" transform="translate(47,240)"/>
<path d="M0 0 C2.125 0.375 2.125 0.375 4 1 C3.34 1.66 2.68 2.32 2 3 C2 3.99 2 4.98 2 6 C3.32 6.33 4.64 6.66 6 7 C5.67 7.66 5.34 8.32 5 9 C3.02 8.34 1.04 7.68 -1 7 C-1.625 4.625 -1.625 4.625 -2 2 C-1.34 1.34 -0.68 0.68 0 0 Z " fill="#E0E7ED" transform="translate(63,266)"/>
<path d="M0 0 C0.99 0 1.98 0 3 0 C3.185625 0.9590625 3.185625 0.9590625 3.375 1.9375 C3.684375 2.9584375 3.684375 2.9584375 4 4 C4.66 4.33 5.32 4.66 6 5 C6 5.66 6 6.32 6 7 C6.33 7.99 6.66 8.98 7 10 C6.01 10.33 5.02 10.66 4 11 C3.32591692 9.73308493 2.66099503 8.46129251 2 7.1875 C1.62875 6.47980469 1.2575 5.77210937 0.875 5.04296875 C0 3 0 3 0 0 Z " fill="#E8F0F6" transform="translate(185,73)"/>
<path d="M0 0 C2.475 0.495 2.475 0.495 5 1 C5 2.65 5 4.3 5 6 C3.35 6.33 1.7 6.66 0 7 C0 4.69 0 2.38 0 0 Z " fill="#DEE7F2" transform="translate(133,230)"/>
<path d="M0 0 C3.96 0 7.92 0 12 0 C12 0.99 12 1.98 12 3 C8.37 3 4.74 3 1 3 C0.67 2.01 0.34 1.02 0 0 Z " fill="#1D345A" transform="translate(222,227)"/>
<path d="M0 0 C1.32 0.33 2.64 0.66 4 1 C3.01 3.31 2.02 5.62 1 8 C0.34 8 -0.32 8 -1 8 C-1.33 8.99 -1.66 9.98 -2 11 C-2.66 11 -3.32 11 -4 11 C-3.52269162 9.5410574 -3.04308958 8.08286504 -2.5625 6.625 C-2.29566406 5.81289062 -2.02882812 5.00078125 -1.75390625 4.1640625 C-1 2 -1 2 0 0 Z " fill="#DEE7F1" transform="translate(155,109)"/>
<path d="M0 0 C0.99 0.66 1.98 1.32 3 2 C1.8141763 5.37503669 0.72426311 7.64722731 -2 10 C-2.66 9.67 -3.32 9.34 -4 9 C-2.94124926 5.59687262 -1.99097846 2.98646769 0 0 Z " fill="#E3ECF2" transform="translate(133,158)"/>
<path d="M0 0 C0.33 0 0.66 0 1 0 C1 3.3 1 6.6 1 10 C2.32 10 3.64 10 5 10 C5 10.66 5 11.32 5 12 C3.02 12 1.04 12 -1 12 C-1.02687279 10.18757948 -1.04633715 8.37504767 -1.0625 6.5625 C-1.07410156 5.55316406 -1.08570313 4.54382813 -1.09765625 3.50390625 C-1 1 -1 1 0 0 Z " fill="#5B6477" transform="translate(142,264)"/>
<path d="M0 0 C0.99 0 1.98 0 3 0 C2.67 1.65 2.34 3.3 2 5 C1.34 4.67 0.68 4.34 0 4 C0 2.68 0 1.36 0 0 Z M-2 5 C-1.34 5.33 -0.68 5.66 0 6 C-0.928125 7.1446875 -0.928125 7.1446875 -1.875 8.3125 C-4.05597052 10.99625809 -4.05597052 10.99625809 -6 14 C-7 12 -7 12 -6.25 9.5 C-5 7 -5 7 -2 5 Z " fill="#EDF2F4" transform="translate(53,239)"/>
<path d="M0 0 C0.99 0 1.98 0 3 0 C2.48964169 4.3890815 1.47785723 7.33708062 -1 11 C-2.11074104 7.66777687 -1.88927847 5.37925818 -1 2 C-0.67 1.34 -0.34 0.68 0 0 Z " fill="#24385A" transform="translate(50,234)"/>
<path d="M0 0 C0 3.10981343 -0.46713709 4.39396369 -1.8125 7.125 C-2.14894531 7.82882813 -2.48539062 8.53265625 -2.83203125 9.2578125 C-4 11 -4 11 -7 12 C-6.4685789 7.48292068 -4.70984317 4.61312423 -2 1 C-1.34 0.67 -0.68 0.34 0 0 Z " fill="#E8EEF5" transform="translate(90,190)"/>
<path d="M0 0 C0.99 0 1.98 0 3 0 C3.433125 0.9590625 3.433125 0.9590625 3.875 1.9375 C4.82823451 4.15206079 4.82823451 4.15206079 7 5 C6.67 7.31 6.34 9.62 6 12 C3.25207517 8.59780735 0 4.51535412 0 0 Z " fill="#133168" transform="translate(205,172)"/>
<path d="M0 0 C0.66 0 1.32 0 2 0 C0.68938409 4.23429756 -0.94356259 8.07407404 -3 12 C-3.66 11.34 -4.32 10.68 -5 10 C-4.71742799 6.0439918 -2.31559095 3.0874546 0 0 Z " fill="#EAF1F7" transform="translate(159,42)"/>
<path d="M0 0 C0.33 0 0.66 0 1 0 C1 3.63 1 7.26 1 11 C0.01 11 -0.98 11 -2 11 C-2.66 9.35 -3.32 7.7 -4 6 C-3.01 5.34 -2.02 4.68 -1 4 C-0.27617533 1.94074861 -0.27617533 1.94074861 0 0 Z " fill="#DFE6F0" transform="translate(196,265)"/>
<path d="M0 0 C2.31 0 4.62 0 7 0 C7 2.31 7 4.62 7 7 C5.35 7 3.7 7 2 7 C2.04125 6.21625 2.0825 5.4325 2.125 4.625 C2.28728734 1.83883881 2.28728734 1.83883881 0 0 Z " fill="#C4CED4" transform="translate(122,264)"/>
<path d="M0 0 C0.66 0 1.32 0 2 0 C2 2.97 2 5.94 2 9 C2.99 9 3.98 9 5 9 C5 9.66 5 10.32 5 11 C3.35 11 1.7 11 0 11 C0 7.37 0 3.74 0 0 Z " fill="#4D5566" transform="translate(70,265)"/>
<path d="M0 0 C1.258125 -0.04125 2.51625 -0.0825 3.8125 -0.125 C4.52019531 -0.14820313 5.22789063 -0.17140625 5.95703125 -0.1953125 C8 0 8 0 11 2 C11 2.99 11 3.98 11 5 C7.27566618 3.7874262 3.62197194 2.49140021 0 1 C0 0.67 0 0.34 0 0 Z " fill="#384666" transform="translate(84,226)"/>
<path d="M0 0 C0.33 0 0.66 0 1 0 C2.34516765 6.35897436 2.34516765 6.35897436 0.6875 9.4375 C-1 11 -1 11 -3 11 C-2.32829194 7.1936543 -1.27253436 3.64793184 0 0 Z " fill="#263C73" transform="translate(92,186)"/>
<path d="M0 0 C0.33 0 0.66 0 1 0 C1 2.31 1 4.62 1 7 C0.34 7 -0.32 7 -1 7 C-1.33 7.99 -1.66 8.98 -2 10 C-2.65129797 11.34090759 -3.31513275 12.67592331 -4 14 C-5.305239 10.08428299 -4.32239848 8.96107003 -2.5625 5.3125 C-2.08941406 4.31863281 -1.61632812 3.32476562 -1.12890625 2.30078125 C-0.75636719 1.54152344 -0.38382812 0.78226563 0 0 Z " fill="#304876" transform="translate(113,142)"/>
<path d="M0 0 C2.45668485 3.18816967 4.38838956 6.29329598 6 10 C5.67 10.66 5.34 11.32 5 12 C3.046875 11.3203125 3.046875 11.3203125 1 10 C0.390625 7.6171875 0.390625 7.6171875 0.25 4.875 C0.19328125 3.96492188 0.1365625 3.05484375 0.078125 2.1171875 C0.05234375 1.41851562 0.0265625 0.71984375 0 0 Z " fill="#324778" transform="translate(190,86)"/>
<path d="M0 0 C2.31 0.33 4.62 0.66 7 1 C6.67 2.65 6.34 4.3 6 6 C5.67 5.34 5.34 4.68 5 4 C3.35 4 1.7 4 0 4 C0 2.68 0 1.36 0 0 Z " fill="#D6E0E5" transform="translate(198,270)"/>
<path d="M0 0 C1.32 0.33 2.64 0.66 4 1 C3.95875 1.7425 3.9175 2.485 3.875 3.25 C4.00398134 6.08758952 4.57051222 7.58773938 6 10 C5.34 10 4.68 10 4 10 C3.34 8.35 2.68 6.7 2 5 C1.34 5 0.68 5 0 5 C0 3.35 0 1.7 0 0 Z " fill="#6D7B90" transform="translate(228,266)"/>
<path d="M0 0 C2.22825644 2.22825644 2.69239369 3.65761628 3.625 6.625 C3.88539063 7.44226563 4.14578125 8.25953125 4.4140625 9.1015625 C4.60742188 9.72804688 4.80078125 10.35453125 5 11 C1.83180047 9.65141812 1.16057091 9.35937299 -0.3125 6.0625 C-1 3 -1 3 0 0 Z " fill="#DAE4EE" transform="translate(177,112)"/>
<path d="M0 0 C0.33 0 0.66 0 1 0 C0.74438677 2.3431213 0.40729228 4.67843403 0 7 C-0.99 7.495 -0.99 7.495 -2 8 C-2.99 7.01 -3.98 6.02 -5 5 C-4.34 5 -3.68 5 -3 5 C-2.67 3.68 -2.34 2.36 -2 1 C-1.34 1.33 -0.68 1.66 0 2 C0 1.34 0 0.68 0 0 Z " fill="#2D4465" transform="translate(143,241)"/>
<path d="M0 0 C2.96052484 3.36423277 3.92289822 6.69159287 5 11 C4.01 11.33 3.02 11.66 2 12 C1.814375 10.88625 1.814375 10.88625 1.625 9.75 C1.13110544 7.02462728 1.13110544 7.02462728 -0.125 4.875 C-1 3 -1 3 0 0 Z " fill="#324B79" transform="translate(196,98)"/>
<path d="M0 0 C2.475 0.99 2.475 0.99 5 2 C4.67 4.31 4.34 6.62 4 9 C3.34 9 2.68 9 2 9 C1.67 9.66 1.34 10.32 1 11 C0.67 7.37 0.34 3.74 0 0 Z " fill="#DEE7EE" transform="translate(162,264)"/>
<path d="M0 0 C0 0.66 0 1.32 0 2 C0.66 2 1.32 2 2 2 C1.34 3.32 0.68 4.64 0 6 C-2.71224618 4.38731308 -5.37352812 2.75098126 -8 1 C-5.23735711 0.40267181 -2.83967231 0 0 0 Z " fill="#E1E8EA" transform="translate(177,265)"/>
<path d="M0 0 C2.52394612 3.12488567 4.39701907 6.31314387 6 10 C5.67 10.66 5.34 11.32 5 12 C1.91019927 10.45509963 1.31632597 8.11131592 0 5 C-0.1875 2.125 -0.1875 2.125 0 0 Z " fill="#374C78" transform="translate(229,168)"/>
<path d="M0 0 C4 6 4 6 3.625 8.1875 C3.41875 8.785625 3.2125 9.38375 3 10 C-1.42857143 4.85714286 -1.42857143 4.85714286 -2 1 C-1.34 0.67 -0.68 0.34 0 0 Z " fill="#E6F0F6" transform="translate(203,107)"/>
<path d="M0 0 C0.33 0.66 0.66 1.32 1 2 C1.66 2.33 2.32 2.66 3 3 C2.34 4.98 1.68 6.96 1 9 C-0.32 8.34 -1.64 7.68 -3 7 C-2.01 4.69 -1.02 2.38 0 0 Z " fill="#E8EDEE" transform="translate(276,271)"/>
<path d="M0 0 C2 3 2 3 2 5 C3.65 4.67 5.3 4.34 7 4 C7 4.66 7 5.32 7 6 C2.545 6.495 2.545 6.495 -2 7 C-2 5.35 -2 3.7 -2 2 C-1.34 2 -0.68 2 0 2 C0 1.34 0 0.68 0 0 Z " fill="#D4DBE1" transform="translate(60,245)"/>
<path d="M0 0 C-0.33 0.99 -0.66 1.98 -1 3 C-2.32 3 -3.64 3 -5 3 C-6.7511573 4.4166747 -6.7511573 4.4166747 -8 6 C-8.66 5.34 -9.32 4.68 -10 4 C-4.5 0 -4.5 0 0 0 Z " fill="#D7E4EE" transform="translate(90,229)"/>
<path d="M0 0 C1.875 0.25 1.875 0.25 4 1 C5.3125 2.8125 5.3125 2.8125 6 5 C5.625 7.25 5.625 7.25 5 9 C1.9083091 6.47043472 1.09068668 3.77545388 0 0 Z " fill="#D7E1EE" transform="translate(216,140)"/>
<path d="M0 0 C1.32 0 2.64 0 4 0 C4.66 2.31 5.32 4.62 6 7 C5.34 7.66 4.68 8.32 4 9 C2.68 6.03 1.36 3.06 0 0 Z " fill="#E4EDF6" transform="translate(168,39)"/>
<path d="M0 0 C0 0.99 0 1.98 0 3 C0.33 2.34 0.66 1.68 1 1 C1.66 1.33 2.32 1.66 3 2 C2.34 3.65 1.68 5.3 1 7 C0.67 6.34 0.34 5.68 0 5 C-0.99 4.67 -1.98 4.34 -3 4 C-3.33 3.01 -3.66 2.02 -4 1 C-2 0 -2 0 0 0 Z " fill="#DDE5E9" transform="translate(78,272)"/>
<path d="M0 0 C0.61875 0.639375 1.2375 1.27875 1.875 1.9375 C3.82597612 4.03883584 3.82597612 4.03883584 6 5 C6 5.99 6 6.98 6 8 C3.23737447 7.6189482 2.15856106 7.16402868 0.1875 5.125 C-0.204375 4.42375 -0.59625 3.7225 -1 3 C-0.67 2.01 -0.34 1.02 0 0 Z " fill="#E1E9ED" transform="translate(209,266)"/>
<path d="M0 0 C2.31 0 4.62 0 7 0 C7 1.32 7 2.64 7 4 C4.69 3.67 2.38 3.34 0 3 C0 2.01 0 1.02 0 0 Z " fill="#D2DDE6" transform="translate(220,266)"/>
<path d="M0 0 C0.33 0 0.66 0 1 0 C1.19622241 4.21878192 0.80230168 7.17010894 -1 11 C-1.99 11 -2.98 11 -4 11 C-2.7874262 7.27566618 -1.49140021 3.62197194 0 0 Z " fill="#E6EDF4" transform="translate(163,237)"/>
<path d="M0 0 C0.33 0 0.66 0 1 0 C1 1.98 1 3.96 1 6 C1.66 6 2.32 6 3 6 C2.34 9.63 1.68 13.26 1 17 C0.67 17 0.34 17 0 17 C0 11.39 0 5.78 0 0 Z " fill="#071E4A" transform="translate(223,230)"/>
<path d="M0 0 C0.99 0.33 1.98 0.66 3 1 C1.25 6.75 1.25 6.75 -1 9 C-1.80967438 6.08517222 -2.21845993 4.53886783 -1.0625 1.6875 C-0.711875 1.130625 -0.36125 0.57375 0 0 Z " fill="#EBF2F5" transform="translate(108,146)"/>
<path d="M0 0 C0.66 0 1.32 0 2 0 C3.5625 2.8125 3.5625 2.8125 5 6 C4.67 6.99 4.34 7.98 4 9 C2 7.875 2 7.875 0 6 C-0.25 2.8125 -0.25 2.8125 0 0 Z " fill="#283F72" transform="translate(209,128)"/>
<path d="M0 0 C0.99 0.66 1.98 1.32 3 2 C2.67 3.98 2.34 5.96 2 8 C0.10786631 5.61426621 -1.02391783 3.92824652 -2 1 C-1.34 0.67 -0.68 0.34 0 0 Z " fill="#E7F0F4" transform="translate(138,266)"/>
<path d="M0 0 C-0.33 0.66 -0.66 1.32 -1 2 C-1.66 2 -2.32 2 -3 2 C-3.33 2.66 -3.66 3.32 -4 4 C-5.32 3.34 -6.64 2.68 -8 2 C-8 1.34 -8 0.68 -8 0 C-4.94736336 -0.98120464 -3.05263664 -0.98120464 0 0 Z " fill="#DDE3E9" transform="translate(279,266)"/>
<path d="M0 0 C0.66 0.33 1.32 0.66 2 1 C1.814375 1.61875 1.62875 2.2375 1.4375 2.875 C0.76313824 5.04160178 0.76313824 5.04160178 2 7 C1.34 7 0.68 7 0 7 C-0.33 8.32 -0.66 9.64 -1 11 C-2.60080151 6.99799622 -1.29279692 3.95443764 0 0 Z " fill="#CEDCE7" transform="translate(253,237)"/>
<path d="M0 0 C1.32 0.66 2.64 1.32 4 2 C2.6875 4 2.6875 4 1 6 C0.01 6 -0.98 6 -2 6 C-1.49396008 3.83125748 -1.00016187 2.00032373 0 0 Z " fill="#FBFCFB" transform="translate(196,240)"/>
<path d="M0 0 C0.66 0.66 1.32 1.32 2 2 C1.875 4.5 1.875 4.5 1 7 C-0.98 7.99 -0.98 7.99 -3 9 C-2.01 6.03 -1.02 3.06 0 0 Z " fill="#DAE5EF" transform="translate(162,94)"/>
<path d="M0 0 C1.09658936 3.28976808 0.79953138 4.71303767 0 8 C-0.99 7.67 -1.98 7.34 -3 7 C-3.33 5.35 -3.66 3.7 -4 2 C-2.68 2 -1.36 2 0 2 C0 1.34 0 0.68 0 0 Z " fill="#F0F4F6" transform="translate(68,265)"/>
<path d="M0 0 C0.33 0 0.66 0 1 0 C1.22162329 1.62324086 1.42689803 3.248721 1.625 4.875 C1.74101562 5.77992188 1.85703125 6.68484375 1.9765625 7.6171875 C1.98429687 8.40351563 1.99203125 9.18984375 2 10 C1.34 10.66 0.68 11.32 0 12 C-1.28571429 3.42857143 -1.28571429 3.42857143 0 0 Z " fill="#31496C" transform="translate(271,236)"/>
<path d="M0 0 C2.0625 0.4375 2.0625 0.4375 4 1 C3.25 5.75 3.25 5.75 1 8 C-0.125 4.25 -0.125 4.25 1 2 C0.34 1.67 -0.32 1.34 -1 1 C-0.67 0.67 -0.34 0.34 0 0 Z " fill="#F0F5F7" transform="translate(42,240)"/>
<path d="M0 0 C3.44216672 2.6598561 3.99504674 5.90288286 5 10 C1.32769295 6.92000054 0.43197635 4.7517398 0 0 Z " fill="#2E4271" transform="translate(202,112)"/>
<path d="M0 0 C1.32 0.66 2.64 1.32 4 2 C3.34 3.65 2.68 5.3 2 7 C0.4375 5.1875 0.4375 5.1875 -1 3 C-0.67 2.01 -0.34 1.02 0 0 Z " fill="#E7F0F6" transform="translate(238,264)"/>
<path d="M0 0 C1.32 0.33 2.64 0.66 4 1 C4.33 2.32 4.66 3.64 5 5 C3.68 5 2.36 5 1 5 C0.67 3.35 0.34 1.7 0 0 Z " fill="#253854" transform="translate(172,245)"/>
<path d="M0 0 C1.32 1.32 2.64 2.64 4 4 C3.34 4 2.68 4 2 4 C2.33 5.98 2.66 7.96 3 10 C1.10786631 7.61426621 -0.02391783 5.92824652 -1 3 C-0.67 2.01 -0.34 1.02 0 0 Z " fill="#E3EBF0" transform="translate(172,234)"/>
<path d="M0 0 C0.99 0.33 1.98 0.66 3 1 C3.33 2.65 3.66 4.3 4 6 C3.01 6.33 2.02 6.66 1 7 C0.34 5.02 -0.32 3.04 -1 1 C-0.67 0.67 -0.34 0.34 0 0 Z " fill="#EAEFF3" transform="translate(257,232)"/>
<path d="M0 0 C2.6875 0.875 2.6875 0.875 5 2 C4.34 3.32 3.68 4.64 3 6 C3 5.34 3 4.68 3 4 C1.02 3.34 -0.96 2.68 -3 2 C-2.01 1.34 -1.02 0.68 0 0 Z " fill="#DAE4E9" transform="translate(203,226)"/>
<path d="M0 0 C0.33 0 0.66 0 1 0 C1.125 5.75 1.125 5.75 0 8 C-0.99 8 -1.98 8 -3 8 C-1.125 1.125 -1.125 1.125 0 0 Z " fill="#DAE6F1" transform="translate(116,194)"/>
<path d="M0 0 C2 2 2 2 2.125 4.625 C2.08375 5.40875 2.0425 6.1925 2 7 C1.01 7.33 0.02 7.66 -1 8 C-1.93065133 5.39417629 -2.14917407 4.35801776 -1.0625 1.75 C-0.711875 1.1725 -0.36125 0.595 0 0 Z " fill="#DFE5F0" transform="translate(125,174)"/>
<path d="M0 0 C0.6875 1.625 0.6875 1.625 1 4 C-0.4375 7.25 -0.4375 7.25 -2 10 C-2.66 10 -3.32 10 -4 10 C-2.8905928 6.51329166 -1.73662334 3.22515763 0 0 Z " fill="#324774" transform="translate(138,90)"/>
<path d="M0 0 C1.65 0 3.3 0 5 0 C5 0.99 5 1.98 5 3 C4.01 3.33 3.02 3.66 2 4 C1.01 3.34 0.02 2.68 -1 2 C-0.67 1.34 -0.34 0.68 0 0 Z " fill="#EAF4F8" transform="translate(132,273)"/>
<path d="M0 0 C1.65 0 3.3 0 5 0 C5 2.64 5 5.28 5 8 C4.731875 7.38125 4.46375 6.7625 4.1875 6.125 C3.04443152 3.7004767 3.04443152 3.7004767 0 2 C0 1.34 0 0.68 0 0 Z " fill="#E4EFF6" transform="translate(91,266)"/>
<path d="M0 0 C2.0625 0.4375 2.0625 0.4375 4 1 C4 1.66 4 2.32 4 3 C2.68 2.67 1.36 2.34 0 2 C0.33 2.99 0.66 3.98 1 5 C0.01 5 -0.98 5 -2 5 C-1.125 1.125 -1.125 1.125 0 0 Z " fill="#4C5563" transform="translate(212,264)"/>
<path d="M0 0 C0.66 0.99 1.32 1.98 2 3 C0.625 5.5 0.625 5.5 -1 8 C-1.66 8 -2.32 8 -3 8 C-1.125 2.25 -1.125 2.25 0 0 Z " fill="#D3DDEA" transform="translate(138,146)"/>
<path d="M0 0 C0.33 0 0.66 0 1 0 C1.25 5.625 1.25 5.625 -1 9 C-1.66 9 -2.32 9 -3 9 C-2.01 6.03 -1.02 3.06 0 0 Z " fill="#314675" transform="translate(122,123)"/>
<path d="M0 0 C0.99 0.33 1.98 0.66 3 1 C4.1875 4.0625 4.1875 4.0625 5 7 C4.01 7 3.02 7 2 7 C1.34 4.69 0.68 2.38 0 0 Z " fill="#304775" transform="translate(168,91)"/>
<path d="M0 0 C0.66 0 1.32 0 2 0 C2.33 1.65 2.66 3.3 3 5 C1.35 5.33 -0.3 5.66 -2 6 C-1.34 4.02 -0.68 2.04 0 0 Z " fill="#C6D6E9" transform="translate(165,88)"/>
<path d="M0 0 C0.144375 0.598125 0.28875 1.19625 0.4375 1.8125 C0.8872439 3.56150404 1.42892341 5.28677023 2 7 C1.34 7 0.68 7 0 7 C-0.33 7.66 -0.66 8.32 -1 9 C-1.66 8.67 -2.32 8.34 -3 8 C-1.125 2.25 -1.125 2.25 0 0 Z " fill="#213873" transform="translate(149,67)"/>
<path d="M0 0 C1.67542976 0.28604898 3.34385343 0.61781233 5 1 C5 1.99 5 2.98 5 4 C4.01 4 3.02 4 2 4 C2 3.34 2 2.68 2 2 C1.01 1.67 0.02 1.34 -1 1 C-0.67 0.67 -0.34 0.34 0 0 Z " fill="#E4EFF4" transform="translate(88,270)"/>
<path d="M0 0 C2.72426311 2.35277269 3.8141763 4.62496331 5 8 C4.01 8 3.02 8 2 8 C0.74335022 5.09399739 0 3.20395416 0 0 Z " fill="#515D72" transform="translate(235,264)"/>
<path d="M0 0 C2.31 0 4.62 0 7 0 C7.33 0.66 7.66 1.32 8 2 C6.02 2.66 4.04 3.32 2 4 C2 3.01 2 2.02 2 1 C1.34 0.67 0.68 0.34 0 0 Z " fill="#EFF8FC" transform="translate(86,251)"/>
<path d="M0 0 C0.66 1.32 1.32 2.64 2 4 C1.01 4.99 0.02 5.98 -1 7 C-1.66 5.02 -2.32 3.04 -3 1 C-2.01 0.67 -1.02 0.34 0 0 Z " fill="#3A4F77" transform="translate(257,236)"/>
<path d="M0 0 C1.41377341 2.63904371 2.37240135 5.07120629 3 8 C2.01 8 1.02 8 0 8 C-0.66 5.69 -1.32 3.38 -2 1 C-1.34 0.67 -0.68 0.34 0 0 Z " fill="#D6DFEC" transform="translate(214,130)"/>
</svg>
